<svg width="24" height="24" viewBox="0 0 24 24" fill="none" xmlns="http://www.w3.org/2000/svg">
<circle cx="12" cy="12" r="12" fill="#E59236"/>
<path d="M16.6609 8.40625H15.0865L14.9031 7.89063C14.8148 7.64026 14.6444 7.42242 14.4163 7.26812C14.1882 7.11381 13.9139 7.03092 13.6326 7.03125H11.3674C11.0861 7.03105 10.812 7.11399 10.584 7.26828C10.356 7.42257 10.1856 7.64034 10.0972 7.89063L9.91353 8.40625H8.33907C7.98404 8.40661 7.64367 8.53899 7.39263 8.77434C7.14159 9.00969 7.00039 9.32879 7 9.66163V14.7148C7.00078 15.0473 7.14215 15.3661 7.39315 15.6011C7.64415 15.8362 7.9843 15.9684 8.33907 15.9688H16.6624C17.0172 15.968 17.3572 15.8355 17.6079 15.6002C17.8586 15.3649 17.9996 15.046 18 14.7134V9.66025C17.9992 9.32765 17.8578 9.00891 17.6069 8.77386C17.3559 8.5388 17.0157 8.40661 16.6609 8.40625ZM17.2667 14.7134C17.2665 14.8639 17.2026 15.0083 17.089 15.1147C16.9755 15.2212 16.8215 15.2811 16.6609 15.2813H8.33907C8.17848 15.2811 8.02452 15.2212 7.91096 15.1147C7.79741 15.0083 7.73353 14.8639 7.73333 14.7134V9.66025C7.73391 9.50994 7.79797 9.36595 7.91148 9.25979C8.02499 9.15363 8.17873 9.09393 8.33907 9.09375H10.1779C10.2548 9.0937 10.3298 9.07096 10.3922 9.02877C10.4545 8.98657 10.5012 8.92705 10.5255 8.85863L10.7928 8.10684C10.8329 7.99377 10.91 7.89542 11.0132 7.82575C11.1163 7.75609 11.2402 7.71865 11.3674 7.71875H13.6326C13.7598 7.71862 13.8838 7.75609 13.9869 7.82583C14.0901 7.89556 14.1672 7.99402 14.2072 8.10719L14.4745 8.85863C14.4988 8.92705 14.5455 8.98657 14.6078 9.02877C14.6702 9.07096 14.7452 9.0937 14.8221 9.09375H16.6609C16.8215 9.09393 16.9755 9.15382 17.089 9.26028C17.2026 9.36674 17.2665 9.51107 17.2667 9.66163V14.7134Z" fill="white"/>
<path d="M12.5 9.4375C11.9561 9.4375 11.4244 9.5887 10.9722 9.87199C10.5199 10.1553 10.1675 10.5579 9.95933 11.029C9.75119 11.5001 9.69673 12.0185 9.80284 12.5186C9.90895 13.0187 10.1709 13.4781 10.5555 13.8386C10.9401 14.1992 11.4301 14.4447 11.9635 14.5442C12.497 14.6437 13.0499 14.5926 13.5524 14.3975C14.0549 14.2024 14.4844 13.8719 14.7865 13.448C15.0887 13.024 15.25 12.5255 15.25 12.0156C15.2492 11.3321 14.9592 10.6768 14.4437 10.1934C13.9281 9.71008 13.2291 9.43823 12.5 9.4375ZM12.5 13.9062C12.1011 13.9062 11.7112 13.7954 11.3796 13.5876C11.048 13.3799 10.7895 13.0846 10.6368 12.7391C10.4842 12.3937 10.4443 12.0135 10.5221 11.6468C10.5999 11.28 10.792 10.9432 11.074 10.6788C11.356 10.4143 11.7154 10.2343 12.1066 10.1613C12.4978 10.0884 12.9032 10.1258 13.2717 10.2689C13.6402 10.412 13.9552 10.6543 14.1768 10.9652C14.3984 11.2762 14.5167 11.6417 14.5167 12.0156C14.5161 12.5169 14.3034 12.9975 13.9254 13.3519C13.5473 13.7063 13.0347 13.9057 12.5 13.9062Z" fill="white"/>
<path d="M16.1665 10.4688C16.369 10.4688 16.5331 10.3148 16.5331 10.125C16.5331 9.93515 16.369 9.78125 16.1665 9.78125C15.964 9.78125 15.7998 9.93515 15.7998 10.125C15.7998 10.3148 15.964 10.4688 16.1665 10.4688Z" fill="white"/>
</svg>
