<svg width="358" height="385" viewBox="0 0 358 385" fill="none" xmlns="http://www.w3.org/2000/svg">
<path d="M0.127869 0.266602H292.025V127.474H0.127869V0.266602Z" fill="white"/>
<path d="M0.12796 127.474C0.181244 127.549 292.111 127.57 292.185 127.634C292.303 127.634 292.207 0.319762 292.281 0.266502V0.0108505H292.025C291.983 -0.0424102 0.0639954 0.191937 0.0213623 0.149328C-0.0639038 0.213241 0.181244 127.389 0.12796 127.474ZM0.12796 127.474C0.138611 127.496 0.362427 -0.19154 0.12796 0.373023L292.025 0.522153L291.77 0.266502C291.748 0.245197 291.695 128.124 292.025 127.325C292.025 127.314 0.12796 127.474 0.12796 127.474Z" fill="#263238"/>
<path d="M0.127869 0.266602H292.025V9.37418H0.127869V0.266602Z" fill="#263238"/>
<path d="M283.232 4.81459C283.232 5.82654 284.053 6.64676 285.065 6.64676C286.078 6.64676 286.898 5.82654 286.898 4.81459C286.898 3.80264 286.078 2.98242 285.065 2.98242C284.053 2.98242 283.232 3.80264 283.232 4.81459Z" fill="#E59236"/>
<path d="M275.728 4.81459C275.728 5.82654 276.549 6.64676 277.561 6.64676C278.574 6.64676 279.395 5.82654 279.395 4.81459C279.395 3.80264 278.574 2.98242 277.561 2.98242C276.549 2.98242 275.728 3.80264 275.728 4.81459Z" fill="white"/>
<path d="M268.226 4.81459C268.226 5.82654 269.047 6.64676 270.059 6.64676C271.072 6.64676 271.893 5.82654 271.893 4.81459C271.893 3.80264 271.083 2.98242 270.07 2.98242C269.057 2.98242 268.226 3.80264 268.226 4.81459Z" fill="#455A64"/>
<path d="M289.426 61.0158C289.426 61.0158 300.361 54.6991 310.305 60.6217C320.249 66.5443 325.206 81.5106 323.756 94.1759C322.306 106.841 332.773 114.99 334.063 124.353C335.352 133.717 329.266 138.169 327.295 143.133C325.035 148.811 334.894 168.666 310.838 173.758C280.75 180.139 268.845 161.796 271.637 146.382C273.001 138.84 277.137 133.418 276.945 127.336C276.753 121.254 272.362 116.492 274.462 108.737C276.561 100.983 279.556 101.973 280.547 89.8405C281.539 77.7077 278.768 63.2847 289.426 61.0158Z" fill="#263238"/>
<path d="M308.216 60.3771C314.835 64.5101 319.833 70.3901 322.818 77.282C324.331 80.7759 325.28 84.4615 325.578 88.2217C325.983 93.1537 325.312 97.7873 327.241 102.538C330.332 110.154 336.332 116.439 336.215 124.993C336.162 128.934 334.989 132.833 332.794 136.21C330.257 140.119 326.601 143.24 324.491 147.405C324.406 147.575 324.139 147.437 324.214 147.267C325.962 143.56 328.861 140.694 331.259 137.36C334.126 133.365 335.704 128.657 335.469 123.842C335.085 115.726 329.159 109.59 326.314 102.24C325.024 98.9165 324.885 95.6676 324.928 92.1524C324.981 87.998 324.459 83.9396 323.127 79.9663C320.505 72.1264 315.122 65.4155 308.12 60.4836C308.067 60.441 308.141 60.3345 308.216 60.3771Z" fill="#263238"/>
<path d="M322.657 152.379C322.7 152.379 322.7 152.432 322.657 152.432C322.626 152.443 322.615 152.39 322.657 152.379Z" fill="#263238"/>
<path d="M271.701 144.209C272.394 140.566 274.227 137.232 274.92 133.6C275.751 129.222 274.568 124.907 273.651 120.647C272.351 114.564 272.372 108.801 274.962 103.007C276.636 99.2571 278.693 95.7419 279.918 91.8113C281.24 87.5504 281.944 83.0978 281.976 78.6559C281.976 78.56 282.135 78.56 282.135 78.6559C282.306 85.1963 281.197 91.4171 278.448 97.4463C276.87 100.908 274.877 104.168 274.003 107.896C272.948 112.37 273.47 116.663 274.334 121.115C274.909 124.077 275.591 127.08 275.623 130.116C275.655 133.269 274.717 136.082 273.651 139.043C270.902 146.723 271.104 154.531 274.216 162.073C274.27 162.201 274.035 162.296 273.982 162.169C271.413 156.512 270.55 150.302 271.701 144.209Z" fill="#263238"/>
<path d="M334.85 123.256C334.456 116.566 329.702 112.114 326.771 106.372C324.555 102.026 323.009 97.382 323.627 92.5353C323.638 92.4607 323.776 92.4713 323.776 92.5459C323.542 99.5444 326.601 105.818 330.576 111.603C333.22 115.448 335.426 119.144 335.533 123.831C335.639 128.412 333.88 132.321 331.333 136.166C329.521 138.904 327.731 141.461 327.006 144.677C326.281 147.873 326.516 151.207 326.739 154.435C326.75 154.605 326.473 154.605 326.462 154.445C325.929 149.439 325.759 144.582 328.2 139.959C331.195 134.27 335.255 130.041 334.85 123.256Z" fill="#263238"/>
<path d="M270.454 139.49C271.424 137.179 272.799 135.059 274.174 132.939C276.668 129.126 277.031 126.069 276.093 121.616C276.071 121.51 276.221 121.467 276.263 121.573C277.563 125.227 277.905 128.284 275.794 131.714C272.842 136.497 269.932 140.864 269.421 146.521C268.493 156.555 274.334 165.801 283.607 170.69C283.735 170.765 283.628 170.946 283.489 170.882C275.72 167.239 270.188 160.475 268.909 152.411C268.227 148.076 268.749 143.581 270.454 139.49Z" fill="#263238"/>
<path d="M317.244 243.114L319.29 258.485L344.465 385.001H351.67L331.792 258.485L330.183 243.114H317.244Z" fill="#E59236"/>
<path opacity="0.3" d="M317.244 243.114L319.29 258.485L344.465 385.001H351.67L331.792 258.485L330.183 243.114H317.244Z" fill="black"/>
<path d="M249.063 385.001H256.279L281.454 258.485L283.5 243.114H270.561L268.951 258.485L249.063 385.001Z" fill="#E59236"/>
<path opacity="0.3" d="M249.063 385.001H256.279L281.454 258.485L283.5 243.114H270.561L268.951 258.485L249.063 385.001Z" fill="black"/>
<path d="M260.786 345.044H341.139V348.655H260.786V345.044Z" fill="#E59236"/>
<path opacity="0.3" d="M260.786 345.044H341.139V348.655H260.786V345.044Z" fill="black"/>
<path opacity="0.3" d="M331.793 257.942H319.291L317.244 243.114H330.184L331.793 257.942Z" fill="black"/>
<path opacity="0.3" d="M268.951 257.942H281.454L283.5 243.114H270.561L268.951 257.942Z" fill="black"/>
<path d="M262.14 232.909H338.592V247.758H262.14V232.909Z" fill="#E59236"/>
<path opacity="0.3" d="M262.14 232.909H338.592V247.758H262.14V232.909Z" fill="black"/>
<path d="M216.04 383.307C218.726 383.35 290.009 360.277 292.108 357.731C292.364 357.444 290.414 350.957 287.6 342.126L287.547 341.956C285.777 336.352 264.077 293.03 264.077 293.03L218.034 309.903L239.702 349.87C239.702 349.87 231.346 356.964 224.237 363.643C224.226 363.654 224.215 363.665 224.226 363.665C219.835 367.766 216.051 371.441 215.284 372.591C213.269 375.616 213.365 383.286 216.04 383.307Z" fill="#EB9481"/>
<path d="M292.109 357.732C290.009 360.267 218.727 383.339 216.041 383.297C213.365 383.286 213.28 375.606 215.273 372.602C216.051 371.452 219.824 367.766 224.205 363.665C224.205 363.665 224.216 363.654 224.226 363.633C226.955 361.076 229.854 358.456 232.412 356.198C223.683 365.966 218.929 379.899 286.662 339.857C287.099 340.784 287.387 341.487 287.526 341.945L287.579 342.126C290.414 350.957 292.375 357.444 292.109 357.732Z" fill="#263238"/>
<path d="M234.864 348.198L285.8 334.212C285.8 334.212 246.13 246.406 247.537 242.018C248.485 239.088 310.996 240.335 329.701 224.314C349.057 207.739 335.073 173.972 335.073 173.972L282.517 172.48C282.517 172.48 283.167 183.463 281.121 185.125C279.767 186.232 207.76 190.887 193.393 216.964C180.358 240.643 234.864 348.198 234.864 348.198Z" fill="#37474F"/>
<path d="M247.547 242.018C247.302 242.753 248.24 245.906 249.988 250.614L211.138 296.12C198.381 265.111 186.539 229.427 193.403 216.975C207.781 190.887 279.778 186.232 281.142 185.135C283.178 183.474 282.538 172.491 282.538 172.491L315.898 173.439L258.877 240.217C252.162 240.782 247.792 241.251 247.547 242.018Z" fill="#263238"/>
<path d="M233.863 337.482C235.184 336.853 236.634 336.481 238.019 336.044C239.49 335.586 240.961 335.117 242.443 334.68C245.352 333.817 248.273 332.997 251.204 332.241C257.119 330.718 263.034 329.226 268.992 327.863C272.094 327.149 278.745 325.594 279.15 325.669C279.341 325.701 279.384 326.031 279.203 326.095C273.437 328.012 267.596 329.621 261.745 331.261C255.904 332.891 250.063 334.499 244.148 335.852C242.506 336.225 240.865 336.555 239.224 336.907C237.508 337.279 235.77 337.78 234.001 337.897C233.831 337.897 233.671 337.567 233.863 337.482Z" fill="#263238"/>
<path d="M332.026 183.91C331.908 182.153 331.748 180.395 331.589 178.648C331.567 178.446 331.248 178.435 331.269 178.648C331.802 185.764 332.356 193.06 330.885 200.101C329.51 206.695 326.132 212.415 321.101 216.889C310.443 226.37 295.798 228.894 282.166 230.886C274.354 232.026 266.499 232.867 258.633 233.453C254.775 233.741 250.916 233.965 247.047 234.114C243.221 234.263 239.384 234.21 235.558 234.337C234.353 234.38 233.256 234.902 233.415 236.287C233.511 237.128 233.959 237.948 234.279 238.715C234.662 239.653 235.057 240.59 235.441 241.528C236.89 245.032 238.361 248.537 239.832 252.031C242.869 259.242 245.95 266.422 249.072 273.59C255.276 287.822 261.734 301.946 268.428 315.954C269.259 317.69 270.09 319.427 270.932 321.163C270.986 321.28 271.156 321.174 271.103 321.067C264.729 306.889 258.42 292.679 252.217 278.416C249.136 271.343 246.056 264.27 243.008 257.175C241.484 253.628 239.97 250.081 238.467 246.534C237.721 244.755 236.965 242.976 236.219 241.197C235.846 240.313 235.472 239.418 235.099 238.534C234.79 237.799 233.639 236.01 234.481 235.349C235.035 234.902 236.176 235.094 236.837 235.083C237.849 235.072 238.872 235.062 239.885 235.051C241.814 235.03 243.754 234.998 245.683 234.945C249.595 234.838 253.506 234.668 257.418 234.412C265.07 233.933 272.712 233.134 280.312 232.09C293.858 230.236 308.599 228.127 319.619 219.318C324.48 215.43 328.338 210.381 330.331 204.458C332.537 197.875 332.495 190.77 332.026 183.91Z" fill="#263238"/>
<path d="M103.597 313.972C105.452 315.922 171.917 350.488 175.199 350.2C175.583 350.19 178.834 344.246 183.161 336.044L183.246 335.884C186.007 330.696 210.947 287.108 210.947 287.108L169.615 264.973L144.035 307.357C144.035 307.357 133.11 306.388 123.358 306.005C123.347 306.005 123.336 306.005 123.326 306.015C117.315 305.76 112.049 305.642 110.685 305.909C107.147 306.601 101.732 312.044 103.597 313.972Z" fill="#EB9481"/>
<path d="M183.652 335.149C183.482 335.436 183.354 335.681 183.247 335.873L183.151 336.043C178.824 344.246 175.584 350.189 175.19 350.2C171.907 350.488 105.453 315.911 103.598 313.962C101.722 312.034 107.126 306.59 110.675 305.919C112.04 305.664 117.315 305.759 123.327 306.026C123.327 306.015 123.337 306.026 123.348 306.015C127.505 306.186 131.853 306.441 135.488 306.707C122.101 306.675 105.293 312.428 183.652 335.149Z" fill="#263238"/>
<path d="M144.408 300.412L194.257 326.766C194.257 326.766 235.483 247.695 239.917 242.635C245.832 235.903 320.6 247.344 338.794 225.56C357.616 203.041 342.609 174.174 342.609 174.174L285.534 172.811C285.534 172.811 285.214 179.138 288.295 188.459C288.295 188.459 223.12 183.058 204.222 200.581C189.727 214.034 144.408 300.412 144.408 300.412Z" fill="#37474F"/>
<path d="M298.559 194.478C295.66 192.422 292.718 190.462 289.606 188.726C288.039 187.852 284.809 186.329 282.795 185.786C281.143 185.338 280.418 185.21 281.953 185.977C282.838 186.425 284.532 187.277 286.11 188.065C285.811 188.044 285.513 188.033 285.225 188.012C284.106 187.927 282.987 187.863 281.857 187.81C279.661 187.703 277.466 187.66 275.27 187.596C270.815 187.469 266.392 187.788 261.947 187.905C261.83 187.905 261.83 188.086 261.947 188.086C266.381 188.044 270.836 188.385 275.27 188.47C277.466 188.513 279.661 188.63 281.857 188.715C282.934 188.758 283.999 188.8 285.076 188.843C285.961 188.875 286.898 188.971 287.804 188.907C288.273 189.141 288.7 189.354 289.019 189.514C292.206 191.112 295.393 192.773 298.463 194.595C298.548 194.669 298.644 194.542 298.559 194.478Z" fill="#263238"/>
<path d="M284.234 170.659C284.757 173.365 285.183 176.081 285.801 178.776C286.078 180.012 286.355 181.258 286.75 182.462C287.08 183.474 287.602 184.645 288.743 184.933C290.054 185.263 290.502 184.155 290.448 183.048C290.395 181.823 290.15 180.576 289.979 179.362C289.777 177.966 289.574 176.56 289.404 175.154C289.318 174.451 289.223 173.748 289.148 173.045C289.127 172.864 289.073 171.533 288.999 171.138C288.988 171.17 288.967 171.202 288.924 171.192C288.913 171.192 288.892 171.181 288.881 171.181C288.85 171.17 288.807 171.149 288.807 171.107C288.796 171 288.807 170.979 288.881 170.915C288.913 170.883 288.967 170.893 288.999 170.915C289.244 171.064 289.244 171.415 289.308 171.682C289.489 172.374 289.67 173.056 289.819 173.748C290.118 175.037 290.406 176.337 290.651 177.647C290.907 178.946 291.141 180.257 291.386 181.556C291.567 182.536 291.791 183.559 291.471 184.539C291.13 185.604 290.235 186.094 289.276 186.126C289.318 186.211 289.372 186.296 289.404 186.392C289.51 186.659 289.574 186.946 289.66 187.223C289.745 187.5 289.819 187.788 289.883 188.075C289.915 188.214 289.926 188.352 289.937 188.491C289.947 188.651 289.905 188.8 289.915 188.949C289.937 189.194 289.596 189.322 289.489 189.077C289.425 188.938 289.329 188.821 289.265 188.693C289.191 188.555 289.137 188.384 289.095 188.235C289.02 187.958 288.956 187.692 288.903 187.415C288.849 187.138 288.786 186.861 288.754 186.595C288.732 186.435 288.732 186.265 288.732 186.105C288.189 186.02 287.666 185.806 287.229 185.434C286.473 184.784 286.057 183.846 285.769 182.909C285.428 181.78 285.183 180.608 284.938 179.458C284.32 176.592 283.829 173.695 283.723 170.766C283.734 170.435 284.171 170.34 284.234 170.659Z" fill="#263238"/>
<path d="M311.574 178.968C311.744 180.31 311.819 181.653 312.043 182.984C312.266 184.284 312.543 185.594 312.895 186.861C313.236 188.076 313.663 189.311 314.323 190.387C314.974 191.431 315.848 192.358 316.764 193.168C318.555 194.765 320.622 196.076 322.829 197.013C323.948 197.482 325.088 197.897 326.25 198.227C326.857 198.398 327.476 198.547 328.094 198.653C328.605 198.749 329.128 198.803 329.575 199.09C329.767 199.218 329.714 199.527 329.522 199.612C328.701 199.964 327.593 199.676 326.74 199.538C325.749 199.378 324.768 199.154 323.809 198.845C321.88 198.227 320.026 197.301 318.342 196.171C316.69 195.064 315.048 193.7 313.876 192.081C312.661 190.409 312.043 188.481 311.691 186.457C311.264 184.039 311.03 181.418 311.296 178.968C311.328 178.83 311.552 178.819 311.574 178.968Z" fill="#263238"/>
<path d="M154.854 291.486C156.25 291.934 157.561 292.658 158.861 293.297C160.247 293.968 161.632 294.639 163.007 295.332C165.715 296.706 168.4 298.112 171.054 299.571C176.394 302.522 181.734 305.505 186.999 308.594C189.738 310.202 195.643 313.632 195.899 313.973C196.016 314.133 195.813 314.399 195.643 314.325C190.133 311.757 184.772 308.924 179.4 306.101C174.039 303.278 168.678 300.445 163.455 297.366C162.006 296.514 160.588 295.619 159.149 294.757C157.646 293.851 156.037 293.02 154.673 291.891C154.545 291.763 154.662 291.423 154.854 291.486Z" fill="#263238"/>
<path d="M342.258 187.446C342.258 187.201 341.885 187.201 341.874 187.446C341.693 199.835 339.455 213.64 329.713 222.311C319.023 231.813 303.909 232.622 290.331 232.196C282.54 231.951 274.759 231.568 266.957 231.642C259.123 231.706 251.204 231.908 243.403 232.718C240.258 233.048 237.594 234.113 235.334 236.35C233.128 238.523 231.519 241.24 229.867 243.828C225.795 250.23 221.841 256.707 218.015 263.258C210.405 276.275 203.338 289.6 196.805 303.193C195.995 304.876 195.185 306.569 194.396 308.263C194.343 308.38 194.513 308.476 194.566 308.359C201.196 294.713 208.337 281.324 215.894 268.179C219.667 261.596 223.578 255.098 227.596 248.664C229.483 245.639 231.316 242.539 233.416 239.653C235.27 237.096 237.572 234.721 240.695 233.847C242.582 233.325 244.586 233.272 246.525 233.133C248.519 232.995 250.512 232.878 252.515 232.782C256.406 232.59 260.307 232.462 264.197 232.42C272.063 232.313 279.907 232.59 287.762 232.92C301.405 233.485 316.316 233.357 327.837 224.942C332.815 221.299 336.46 216.239 338.698 210.508C340.968 204.671 341.885 198.365 342.162 192.133C342.236 190.568 342.258 189.012 342.258 187.446Z" fill="#263238"/>
<path d="M259.315 239.813C256.534 239.803 253.741 239.845 250.959 239.877C248.646 239.898 246.312 239.824 244.031 240.335C241.91 240.814 240.237 241.028 238.457 243.339C236.24 246.226 223.994 268.585 218.835 278.48C217.407 281.229 215.99 283.977 214.604 286.746C213.176 289.601 211.897 292.541 210.469 295.396C210.415 295.503 210.575 295.598 210.628 295.492C211.886 293.106 213.282 290.784 214.583 288.408C215.883 286.033 217.151 283.647 218.42 281.25C220.978 276.425 223.525 271.599 226.094 266.774C228.641 262.002 231.71 257.357 234.29 252.596C236.464 248.601 239.416 243.137 241.42 242.37C243.776 241.464 247.581 240.591 250.085 240.474C253.155 240.335 256.235 240.218 259.305 240.026C259.454 240.026 259.454 239.813 259.315 239.813Z" fill="#263238"/>
<path d="M298.975 125.589C292.58 136.742 267.128 171.137 259.113 172.277C250.779 173.47 220.051 170.839 214.445 164.235C211.705 161.007 216.129 133.322 220.381 134.867C224.645 136.412 250.928 142.76 254.307 142.27C257.664 141.78 284.928 115.416 294.968 109.728C312.287 99.928 302.418 119.592 298.975 125.589Z" fill="#EB9481"/>
<path d="M227.149 135.762L220.669 170.073C220.669 170.073 251.439 176.379 260.52 173.716C269.601 171.063 294.957 135.027 302.354 120.764C309.751 106.511 303.292 102.762 290.011 111.646C276.731 120.519 255.447 140.438 253.379 140.524C251.311 140.598 227.149 135.762 227.149 135.762Z" fill="#E59236"/>
<path d="M252.259 144.976C252.717 146.201 253.091 147.448 253.186 148.811C252.344 147.735 251.79 146.553 251.311 145.338C250.863 144.124 250.479 142.878 250.383 141.514C251.225 142.59 251.769 143.773 252.259 144.976ZM272.979 134.218C274.194 133.77 275.452 133.387 276.805 133.291C275.729 134.132 274.546 134.697 273.341 135.166C272.116 135.624 270.879 136.007 269.515 136.103C270.581 135.262 271.764 134.708 272.979 134.218ZM233.426 154.105C234.641 153.647 235.899 153.274 237.252 153.178C236.176 154.02 235.003 154.574 233.788 155.064C232.563 155.511 231.316 155.884 229.962 155.98C231.039 155.149 232.211 154.595 233.426 154.105ZM248.731 169.924C249.275 168.741 249.893 167.591 250.788 166.568C250.618 167.91 250.17 169.135 249.669 170.339C249.115 171.521 248.497 172.672 247.612 173.694C247.772 172.342 248.22 171.127 248.731 169.924ZM269.728 158.473C270.911 159.016 272.062 159.623 273.096 160.518C271.742 160.358 270.517 159.911 269.323 159.399C268.129 158.856 266.989 158.249 265.955 157.354C267.309 157.514 268.534 157.961 269.728 158.473ZM290.011 111.646C290.288 111.465 290.565 111.284 290.831 111.103H290.842C291.098 111.209 291.343 111.316 291.599 111.422C292.782 111.965 293.933 112.583 294.967 113.467C293.613 113.308 292.388 112.86 291.183 112.349C290.746 112.146 290.32 111.944 289.904 111.72C289.936 111.688 289.979 111.667 290.011 111.646Z" fill="white"/>
<path d="M232.712 154.467C233.234 151.751 235.248 140.875 235.547 138.137C235.547 138.095 235.483 138.073 235.472 138.116C234.684 140.673 232.371 151.346 231.848 154.073C230.793 159.495 229.621 164.927 229.163 170.435C229.152 170.53 229.312 170.584 229.333 170.477C230.815 165.226 231.678 159.814 232.712 154.467Z" fill="#263238"/>
<path opacity="0.1" d="M237.178 172.874C246.003 174.131 255.979 175.047 260.519 173.715C269.6 171.052 294.956 135.016 302.353 120.763C307 111.794 306.179 106.99 301.617 106.873L237.178 172.874Z" fill="black"/>
<path d="M277.851 184.922L348.898 184.038C348.898 184.038 329.447 124.993 314.387 109.867C307.534 102.986 301.075 104.264 295.724 108.994C294.392 110.176 278.245 132.78 277.041 140.343C275.975 147.022 281.41 153.722 281.41 153.722L277.851 184.922Z" fill="#E59236"/>
<path d="M300.446 152.711C297.515 152.604 294.563 152.583 291.653 152.913C290.203 153.073 288.765 153.296 287.336 153.563C286.622 153.691 285.908 153.797 285.183 153.893C284.448 153.999 283.659 154.074 282.913 153.999C282.849 153.989 282.839 154.095 282.903 154.106C283.617 154.223 284.309 154.34 285.045 154.372C285.738 154.394 286.441 154.351 287.134 154.276C288.605 154.127 290.076 153.914 291.546 153.744C294.509 153.414 297.483 153.083 300.467 152.966C300.585 152.945 300.585 152.711 300.446 152.711Z" fill="#263238"/>
<path d="M307.236 156.279C304.901 155.704 302.493 155.224 300.105 154.926C298.901 154.766 297.696 154.692 296.492 154.638C295.917 154.617 295.33 154.596 294.755 154.596C294.115 154.585 293.476 154.66 292.847 154.649C292.783 154.649 292.762 154.745 292.836 154.756C293.433 154.788 294.03 154.926 294.627 154.99C295.224 155.064 295.831 155.128 296.428 155.192C297.632 155.331 298.826 155.48 300.031 155.608C302.439 155.863 304.827 156.14 307.225 156.481C307.342 156.492 307.353 156.311 307.236 156.279Z" fill="#263238"/>
<path d="M293.199 112.232C293.817 112.595 294.414 112.989 294.968 113.468C294.169 113.372 293.423 113.18 292.687 112.935C292.869 112.69 293.039 112.456 293.199 112.232ZM304.742 162.031C305.925 162.585 307.076 163.192 308.11 164.087C306.756 163.927 305.531 163.48 304.326 162.969C303.154 162.425 301.992 161.807 300.969 160.913C302.323 161.083 303.548 161.52 304.742 162.031ZM334.809 165.174C335.352 164.002 335.971 162.841 336.866 161.829C336.695 163.171 336.258 164.396 335.747 165.589C335.193 166.782 334.585 167.932 333.69 168.955C333.85 167.602 334.297 166.377 334.809 165.174ZM291.227 145.989C291.782 144.807 292.389 143.667 293.274 142.634C293.114 143.986 292.666 145.211 292.155 146.404C291.611 147.587 291.003 148.737 290.108 149.771C290.279 148.418 290.716 147.193 291.227 145.989ZM319.738 147.715C320.953 147.257 322.2 146.884 323.564 146.777C322.488 147.619 321.316 148.183 320.09 148.663C318.875 149.11 317.628 149.483 316.264 149.589C317.34 148.748 318.523 148.205 319.738 147.715ZM347.929 181.184C348.046 181.514 348.142 181.823 348.238 182.1C347.29 182.409 346.309 182.654 345.275 182.718C346.107 182.068 347.002 181.588 347.929 181.184ZM288.36 173.908C288.808 175.133 289.192 176.38 289.287 177.732C288.445 176.667 287.891 175.485 287.401 174.27C286.953 173.056 286.58 171.81 286.484 170.446C287.316 171.522 287.87 172.705 288.36 173.908ZM318.214 179.352C318.662 180.576 319.045 181.812 319.141 183.176C318.299 182.1 317.745 180.928 317.265 179.714C316.818 178.489 316.423 177.242 316.338 175.879C317.169 176.965 317.724 178.137 318.214 179.352ZM310.252 126.719C310.711 127.944 311.084 129.201 311.18 130.554C310.348 129.478 309.783 128.296 309.304 127.092C308.856 125.867 308.472 124.621 308.376 123.268C309.218 124.344 309.762 125.516 310.252 126.719Z" fill="white"/>
<path d="M324.394 118.08C343.515 141.579 364.405 180.597 354.173 188.15C344.826 195.042 312.521 186.296 292.398 177.168C288.571 175.431 306.275 141.696 310.154 143.965C316.965 147.949 322.326 150.335 322.848 150.505C323.957 150.867 318.18 143.006 312.275 124.514C306.253 105.724 313.458 104.648 324.394 118.08Z" fill="#EB9481"/>
<path d="M260.348 138.734C260.113 142.75 270.079 142.495 270.079 142.495C270.079 142.495 267.638 143.826 266.849 146.372C265.943 149.291 270.132 151.996 270.132 151.996C270.132 151.996 267.936 153.85 267.372 156.63C266.785 159.517 270.622 162.84 270.622 162.84C270.622 162.84 269.525 165.695 270.761 168.443C272.871 173.151 280.801 173.663 285.64 174.952C290.83 176.326 298.344 179.372 301.425 180.917L312.445 145.296C312.445 145.296 291.875 131.565 285.928 131.534C280.918 131.512 260.71 132.599 260.348 138.734Z" fill="#EB9481"/>
<path d="M270.164 142.388C275.504 141.142 281.121 141.174 286.557 141.259C286.674 141.259 286.674 141.451 286.557 141.451C281.164 141.302 275.589 142.591 270.196 142.644C270.047 142.644 270.026 142.42 270.164 142.388Z" fill="#263238"/>
<path d="M270.293 151.603C271.508 151.358 272.797 151.518 274.034 151.592C275.355 151.677 276.677 151.794 277.988 151.922C280.62 152.189 283.253 152.508 285.875 152.913C285.992 152.934 285.992 153.115 285.875 153.105C283.242 152.849 280.61 152.625 277.977 152.487C276.656 152.412 275.334 152.348 274.012 152.295C272.787 152.242 271.486 152.295 270.293 151.976C270.111 151.912 270.111 151.635 270.293 151.603Z" fill="#263238"/>
<path d="M270.73 162.851C271.774 162.596 273.032 162.894 274.098 163.022C275.302 163.171 276.496 163.309 277.7 163.437C280.098 163.704 282.507 163.959 284.916 164.14C285.033 164.151 285.033 164.332 284.916 164.332C282.465 164.162 280.013 164.023 277.572 163.831C276.368 163.735 275.174 163.64 273.97 163.533C272.947 163.437 271.668 163.448 270.73 162.979C270.655 162.947 270.677 162.862 270.73 162.851Z" fill="#263238"/>
<path d="M313.417 144.945L303.515 183.377C303.515 183.377 351.488 198.653 357.19 186.616C362.892 174.579 336.716 127.379 320.92 113.467C305.124 99.5558 310.208 120.423 310.624 122.085C312.468 129.499 321.826 149.078 321.826 149.078L313.417 144.945Z" fill="#E59236"/>
<path d="M318.213 179.351C318.661 180.576 319.044 181.811 319.14 183.175C318.298 182.099 317.744 180.927 317.264 179.713C316.817 178.488 316.422 177.242 316.337 175.878C317.168 176.965 317.723 178.136 318.213 179.351ZM348.738 180.842C349.953 180.395 351.2 180.011 352.564 179.926C351.488 180.767 350.305 181.311 349.101 181.801C347.875 182.248 346.628 182.632 345.274 182.717C346.34 181.875 347.523 181.332 348.738 180.842ZM319.375 147.863L320.6 148.459C320.43 148.523 320.259 148.598 320.089 148.662C318.874 149.109 317.627 149.482 316.262 149.589C317.232 148.832 318.288 148.31 319.375 147.863ZM321.378 148.108C321.272 147.874 321.144 147.597 320.995 147.288C321.815 147.032 322.668 146.851 323.563 146.776C322.871 147.32 322.135 147.746 321.378 148.108ZM334.808 165.173C335.351 164.001 335.97 162.84 336.865 161.828C336.694 163.17 336.257 164.395 335.746 165.588C335.192 166.781 334.584 167.932 333.689 168.954C333.849 167.601 334.296 166.376 334.808 165.173ZM334.083 129.083C334.435 129.584 334.776 130.095 335.128 130.596C334.712 130.447 334.307 130.287 333.913 130.116C332.729 129.573 331.578 128.966 330.545 128.071C331.802 128.231 332.953 128.625 334.083 129.083Z" fill="white"/>
<path d="M314.26 145.019C319.738 147.278 333.999 155.363 337.047 158.526C337.132 158.622 337.026 158.771 336.93 158.686C333.881 156.289 316.263 146.479 313.492 145.243C313.492 145.243 313.332 145.584 313.268 145.669C313.162 145.797 313.098 145.712 313.109 145.595C313.119 145.509 313.332 144.71 313.364 144.657C313.364 144.657 313.663 144.774 314.26 145.019Z" fill="#263238"/>
<path d="M317.266 166.973C317.937 164.289 320.548 153.541 320.985 150.825C320.996 150.782 320.921 150.75 320.911 150.803C319.983 153.317 317.095 163.841 316.413 166.536C315.059 171.895 313.588 177.253 312.842 182.728C312.832 182.824 312.981 182.888 313.013 182.781C314.782 177.615 315.944 172.267 317.266 166.973Z" fill="#263238"/>
<path d="M322.211 149.322C320.858 145.935 319.174 142.686 317.671 139.363C316.179 136.05 314.601 132.758 313.226 129.403C313.205 129.36 313.13 129.392 313.152 129.435C313.983 131.714 314.804 133.994 315.699 136.242C315.411 135.879 315.145 135.507 314.878 135.123C314.399 134.431 313.962 133.717 313.535 132.993C313.503 132.95 313.439 132.982 313.461 133.035C313.781 133.845 314.196 134.591 314.697 135.304C315.07 135.837 315.486 136.316 315.923 136.796C316.296 137.712 316.669 138.628 317.074 139.533C318.555 142.889 319.675 146.201 321.657 149.301C321.71 149.408 322.265 149.44 322.211 149.322Z" fill="#263238"/>
<path d="M350.071 190.631C340.159 192.026 309.015 184.815 303.708 183.43C303.804 182.866 303.804 182.663 303.931 181.864C303.953 181.758 303.782 181.704 303.761 181.811C303.569 182.567 302.972 184.059 303.185 184.154C305.711 185.305 340.404 193.209 350.06 190.876C350.21 190.833 350.22 190.61 350.071 190.631Z" fill="#263238"/>
<path d="M270.262 178.882L227.554 183.696L212.654 124.204L255.361 119.379L270.262 178.882Z" fill="#37474F"/>
<path d="M268.162 179.116L225.454 183.942L210.565 124.439L253.273 119.624L268.162 179.116Z" fill="#455A64"/>
<path d="M233.459 149.77C233.918 152.039 236.156 153.669 238.447 153.413C240.739 153.157 242.231 151.101 241.773 148.833C241.314 146.564 239.076 144.934 236.785 145.189C234.482 145.445 232.99 147.501 233.459 149.77Z" fill="white"/>
<path d="M210.724 136.646C208.848 141.588 203.625 147.958 203.476 151.878C203.338 155.425 206.354 156.427 206.354 156.427C206.354 156.427 202.624 158.674 203.071 162.253C203.306 164.096 206.45 165.353 206.45 165.353C206.45 165.353 203.54 167.281 204.137 170.445C204.606 172.969 207.697 173.843 207.697 173.843C207.697 173.843 205.768 176.996 207.079 179.403C209.733 184.303 231.689 182.535 234.428 174.184C235.707 170.285 230.367 171.009 230.367 171.009C230.367 171.009 237.796 168.123 237.551 163.585C237.306 159.047 230.42 160.41 230.42 160.41C230.42 160.41 237.593 157.545 236.869 152.869C236.112 148.001 229.461 150.536 229.461 150.536C229.461 150.536 234.076 146.84 232.701 143.388C230.42 137.689 221.766 145.774 216.852 145.018L213.548 137.274L210.724 136.646Z" fill="#EB9481"/>
<path d="M206.876 143.911C208.251 139.075 201.963 133.749 202.613 128.934C203.487 122.425 211.193 128.124 213.538 137.274L214.113 144.71L206.876 143.911Z" fill="#EB9481"/>
<path d="M208.165 174.057C208.09 174.057 208.08 174.163 208.154 174.174C215.519 175.356 223.971 174.398 230.665 171.01C230.888 170.904 230.803 170.499 230.537 170.574C222.969 172.736 216.073 174.057 208.165 174.057Z" fill="#263238"/>
<path d="M206.343 165.407C206.258 165.407 206.258 165.546 206.343 165.567C213.942 166.739 223.428 165.397 230.686 160.592C230.932 160.433 230.995 160.028 230.697 160.198C225.634 163.021 213.463 165.439 206.343 165.407Z" fill="#263238"/>
<path d="M229.876 150.025C222.735 154.361 214.922 155.98 206.662 156.491C206.556 156.502 206.577 156.651 206.662 156.672C210.776 157.525 216.01 156.651 220.017 155.628C223.865 154.648 227.137 152.997 230.025 150.281C230.132 150.164 230.025 149.93 229.876 150.025Z" fill="#263238"/>
<path d="M308.322 108.194C308.088 109.451 302.482 117.792 296.769 117.76C294.914 117.749 294.52 107.608 294.52 107.608L294.317 106.863L291.525 96.4769L303.515 88.0511L305.253 86.9326C305.253 86.9326 305.828 89.83 306.51 93.4304C306.542 93.6009 306.574 93.7606 306.606 93.9417C306.649 94.1441 306.692 94.3358 306.724 94.5276C306.83 95.0602 306.937 95.6141 307.033 96.168C307.107 96.5834 307.182 96.9882 307.246 97.4356C307.32 97.8724 307.384 98.3091 307.459 98.7458C308.12 103.113 308.418 107.662 308.322 108.194Z" fill="#EB9481"/>
<path d="M306.521 93.4304C303.868 101.91 297.334 105.595 294.318 106.863L291.525 96.477L303.516 88.0511L305.253 86.9326C305.264 86.922 305.839 89.8194 306.521 93.4304Z" fill="#263238"/>
<path d="M278.203 76.6958C272.618 94.7299 282.797 100.109 286.687 101.313C290.225 102.399 302.397 105.659 309.815 88.296C317.244 70.933 310.615 62.635 302.664 59.7163C294.702 56.7976 283.788 58.6617 278.203 76.6958Z" fill="#EB9481"/>
<path d="M281.708 74.3735C282.145 74.4481 282.571 74.4375 283.008 74.4694C283.509 74.5014 283.904 74.5759 284.351 74.3096C284.597 74.1711 284.692 73.7664 284.575 73.5214C284.309 72.9461 283.701 72.7544 283.104 72.7012C282.454 72.6372 281.932 72.7544 281.388 73.1166C280.866 73.4468 281.122 74.2777 281.708 74.3735Z" fill="#263238"/>
<path d="M294.179 77.8886C293.763 77.7182 293.411 77.4945 293.028 77.2814C292.591 77.0471 292.218 76.8979 291.973 76.4399C291.845 76.1949 291.973 75.8008 292.196 75.6516C292.729 75.3001 293.337 75.4599 293.88 75.7262C294.467 76.0138 294.85 76.3866 295.117 76.9832C295.383 77.5477 294.722 78.1123 294.179 77.8886Z" fill="#263238"/>
<path d="M290.022 81.5212C290.043 81.4786 290.096 81.6065 290.086 81.6597C289.659 82.8741 289.382 84.3334 290.373 85.0897C290.405 85.111 290.384 85.1749 290.341 85.1536C289.041 84.5465 289.425 82.6078 290.022 81.5212Z" fill="#263238"/>
<path d="M291.514 80.5839C293.539 81.0526 292.463 85.0578 290.587 84.621C288.743 84.195 289.819 80.1898 291.514 80.5839Z" fill="#263238"/>
<path d="M292.249 80.9994C292.537 81.319 292.771 81.809 293.187 81.9688C293.667 82.1498 294.146 81.8303 294.573 81.5107C294.615 81.4788 294.647 81.5214 294.626 81.5746C294.434 82.3416 293.923 83.0553 293.07 82.9488C292.292 82.8529 291.929 82.022 291.951 81.2018C291.951 81.0527 292.132 80.8716 292.249 80.9994Z" fill="#263238"/>
<path d="M283.189 79.4016C283.189 79.3484 283.072 79.4336 283.062 79.4868C282.774 80.7438 282.241 82.1286 281.005 82.2457C280.962 82.2457 280.951 82.3097 280.994 82.3203C282.422 82.4907 283.115 80.6373 283.189 79.4016Z" fill="#263238"/>
<path d="M282.411 77.8143C280.45 77.1433 279.246 81.1165 281.068 81.7343C282.859 82.3522 284.063 78.3789 282.411 77.8143Z" fill="#263238"/>
<path d="M281.505 77.8248C281.132 77.942 280.706 78.2296 280.322 78.1444C279.875 78.0378 279.683 77.5159 279.534 77.0152C279.523 76.962 279.48 76.9833 279.459 77.0365C279.203 77.7928 279.225 78.6557 279.907 79.0178C280.536 79.348 281.218 78.8474 281.633 78.1444C281.697 78.0272 281.655 77.7822 281.505 77.8248Z" fill="#263238"/>
<path d="M287.422 91.747C287.059 91.9707 286.665 92.3116 286.207 92.2477C285.759 92.1837 285.29 91.8748 284.928 91.6298C284.896 91.6085 284.842 91.6405 284.864 91.6831C285.088 92.237 285.706 92.695 286.313 92.7163C286.9 92.7377 287.294 92.3116 287.55 91.8216C287.571 91.7683 287.475 91.715 287.422 91.747Z" fill="#263238"/>
<path d="M283.51 85.8245C283.51 85.8245 282.732 87.6034 282.486 88.4769C282.465 88.5621 282.668 88.6579 282.955 88.7538C282.966 88.7645 282.977 88.7751 282.987 88.7645C284.458 89.4355 286.163 89.3397 287.453 88.349C287.538 88.2851 287.453 88.1573 287.357 88.1892C285.972 88.7112 284.639 88.5727 283.264 88.2105C283.275 87.9549 284.693 85.2173 284.565 85.164C284.096 84.9936 283.073 85.0469 282.454 85.0575C283.968 81.308 286.057 77.8354 287.506 74.0858C287.56 73.9474 287.368 73.8515 287.293 73.9687C284.831 77.4519 283.009 81.7341 281.346 85.5582C281.133 86.0162 283.115 85.8671 283.51 85.8245Z" fill="#263238"/>
<path d="M308.706 87.5399C305.189 87.5292 305.327 79.5082 305.327 79.5082C305.327 79.5082 290.917 75.1195 291.205 62.9761C291.205 62.9761 287.698 70.2941 279.545 72.7547C279.545 72.7547 281.751 59.6845 292.495 58.4702C292.495 58.4702 306.031 55.4237 311.989 66.6191C317.947 77.8038 311.061 87.5505 308.706 87.5399Z" fill="#263238"/>
<path d="M291.268 62.0811C290.831 63.8813 290.863 65.7987 291.226 67.6415C291.588 69.4843 292.302 71.2845 293.379 72.8397C293.613 73.2445 293.954 73.5854 294.242 73.9582L294.69 74.5121C294.85 74.6825 295.031 74.8423 295.201 75.0021C295.553 75.3217 295.883 75.6519 296.246 75.9608C296.619 76.2377 297.003 76.5147 297.386 76.781C297.578 76.9088 297.77 77.058 297.962 77.1751L298.58 77.5053L299.806 78.1658C300.669 78.5279 301.543 78.8475 302.406 79.1458C301.607 78.6664 300.776 78.2829 299.997 77.8036L298.857 77.058L298.292 76.6851C298.111 76.5466 297.94 76.3975 297.77 76.2484C297.429 75.9608 297.077 75.6732 296.725 75.3856C296.395 75.0767 296.097 74.7464 295.777 74.4269L295.308 73.9475L294.892 73.4256C294.626 73.0634 294.306 72.7438 294.082 72.3497C293.038 70.8904 292.345 69.2073 291.855 67.4817C291.609 66.6082 291.45 65.7134 291.364 64.8187C291.247 63.9239 291.226 63.0078 291.268 62.0811Z" fill="#263238"/>
<path d="M307.246 94.1552C306.916 94.2085 306.617 94.2085 306.34 94.1871C306.01 94.1765 305.722 94.1126 305.466 94.0167C305.061 93.8889 304.731 93.6758 304.475 93.4415C304.23 93.2285 304.038 92.9835 303.9 92.7491C303.516 92.1313 303.42 91.5561 303.42 91.5561L305.509 86.8478C305.509 86.8478 310.795 81.9692 313.087 83.9718C315.4 85.9957 310.561 93.6865 307.246 94.1552Z" fill="#EB9481"/>
<path d="M311.659 86.1557C311.713 86.1664 311.702 86.2303 311.659 86.241C309.314 86.6457 307.748 88.3927 306.511 90.2888C307.321 89.6283 308.291 89.3833 309.197 90.374C309.24 90.4272 309.176 90.5018 309.112 90.4805C308.27 90.097 307.598 90.1183 306.852 90.6935C306.319 91.0983 305.893 91.6735 305.467 92.1848C305.328 92.3553 304.998 92.1742 305.126 91.9718C305.136 91.9611 305.147 91.9398 305.158 91.9292C305.691 89.1703 308.654 85.7936 311.659 86.1557Z" fill="#263238"/>
<path d="M307.162 93.3241C306.97 93.7715 306.448 93.9632 306.011 93.7715C305.563 93.5797 305.371 93.0578 305.563 92.621C305.755 92.1736 306.277 91.9819 306.714 92.1736C307.151 92.3654 307.354 92.8873 307.162 93.3241Z" fill="white"/>
<path d="M309.196 92.4191C309.058 92.728 308.695 92.8772 308.386 92.7387C308.077 92.6002 307.928 92.238 308.066 91.9291C308.205 91.6202 308.567 91.4711 308.876 91.6096C309.185 91.7374 309.335 92.1102 309.196 92.4191Z" fill="white"/>
<path d="M290.011 111.646C290.011 111.646 291.002 119.944 297.919 120.722C304.847 121.499 316.283 110.155 316.283 110.155C316.283 110.155 310.56 104.605 302.566 104.903C296.128 105.127 290.011 111.646 290.011 111.646Z" fill="#EB9481"/>
<path d="M15.099 55C15.0057 55 14.9263 54.972 14.861 54.916C14.805 54.8507 14.777 54.7713 14.777 54.678V46.446H12.089C11.9957 46.446 11.9163 46.418 11.851 46.362C11.795 46.2967 11.767 46.2173 11.767 46.124V45.536C11.767 45.4333 11.795 45.354 11.851 45.298C11.9163 45.2327 11.9957 45.2 12.089 45.2H18.837C18.9397 45.2 19.019 45.2327 19.075 45.298C19.1403 45.354 19.173 45.4333 19.173 45.536V46.124C19.173 46.2173 19.1403 46.2967 19.075 46.362C19.019 46.418 18.9397 46.446 18.837 46.446H16.163V54.678C16.163 54.7713 16.1303 54.8507 16.065 54.916C16.009 54.972 15.9297 55 15.827 55H15.099ZM22.2026 55.14C21.4932 55.14 20.9006 55.0047 20.4246 54.734C19.9486 54.4633 19.5846 54.09 19.3326 53.614C19.0806 53.1287 18.9406 52.578 18.9126 51.962C18.9032 51.8033 18.8986 51.6027 18.8986 51.36C18.8986 51.108 18.9032 50.9073 18.9126 50.758C18.9406 50.1327 19.0806 49.582 19.3326 49.106C19.5939 48.63 19.9626 48.2567 20.4386 47.986C20.9146 47.7153 21.5026 47.58 22.2026 47.58C22.9026 47.58 23.4906 47.7153 23.9666 47.986C24.4426 48.2567 24.8066 48.63 25.0586 49.106C25.3199 49.582 25.4646 50.1327 25.4926 50.758C25.5019 50.9073 25.5066 51.108 25.5066 51.36C25.5066 51.6027 25.5019 51.8033 25.4926 51.962C25.4646 52.578 25.3246 53.1287 25.0726 53.614C24.8206 54.09 24.4566 54.4633 23.9806 54.734C23.5046 55.0047 22.9119 55.14 22.2026 55.14ZM22.2026 54.062C22.7812 54.062 23.2432 53.88 23.5886 53.516C23.9339 53.1427 24.1206 52.6013 24.1486 51.892C24.1579 51.752 24.1626 51.5747 24.1626 51.36C24.1626 51.1453 24.1579 50.968 24.1486 50.828C24.1206 50.1187 23.9339 49.582 23.5886 49.218C23.2432 48.8447 22.7812 48.658 22.2026 48.658C21.6239 48.658 21.1572 48.8447 20.8026 49.218C20.4572 49.582 20.2752 50.1187 20.2566 50.828C20.2472 50.968 20.2426 51.1453 20.2426 51.36C20.2426 51.5747 20.2472 51.752 20.2566 51.892C20.2752 52.6013 20.4572 53.1427 20.8026 53.516C21.1572 53.88 21.6239 54.062 22.2026 54.062ZM27.5956 55C27.5023 55 27.423 54.972 27.3576 54.916C27.3016 54.8507 27.2736 54.7713 27.2736 54.678V45.382C27.2736 45.2887 27.3016 45.214 27.3576 45.158C27.423 45.0927 27.5023 45.06 27.5956 45.06H28.2536C28.347 45.06 28.4216 45.0927 28.4776 45.158C28.543 45.214 28.5756 45.2887 28.5756 45.382V50.254L31.3336 47.958C31.4456 47.8647 31.5296 47.804 31.5856 47.776C31.651 47.7387 31.7536 47.72 31.8936 47.72H32.6356C32.7196 47.72 32.7896 47.748 32.8456 47.804C32.9016 47.86 32.9296 47.93 32.9296 48.014C32.9296 48.0513 32.9156 48.0933 32.8876 48.14C32.869 48.1867 32.827 48.2333 32.7616 48.28L29.5276 50.968L33.1116 54.454C33.2236 54.5473 33.2796 54.6313 33.2796 54.706C33.2796 54.79 33.2516 54.86 33.1956 54.916C33.1396 54.972 33.0696 55 32.9856 55H32.2576C32.1176 55 32.015 54.986 31.9496 54.958C31.8843 54.9207 31.8003 54.8553 31.6976 54.762L28.5756 51.78V54.678C28.5756 54.7713 28.543 54.8507 28.4776 54.916C28.4216 54.972 28.347 55 28.2536 55H27.5956ZM37.0486 55.14C36.0779 55.14 35.3079 54.846 34.7386 54.258C34.1693 53.6607 33.8566 52.8487 33.8006 51.822C33.7913 51.7007 33.7866 51.5467 33.7866 51.36C33.7866 51.164 33.7913 51.0053 33.8006 50.884C33.8379 50.2213 33.9919 49.6427 34.2626 49.148C34.5333 48.644 34.9019 48.2567 35.3686 47.986C35.8446 47.7153 36.3999 47.58 37.0346 47.58C37.7439 47.58 38.3366 47.7293 38.8126 48.028C39.2979 48.3267 39.6666 48.7513 39.9186 49.302C40.1706 49.8527 40.2966 50.4967 40.2966 51.234V51.472C40.2966 51.5747 40.2639 51.654 40.1986 51.71C40.1426 51.766 40.0679 51.794 39.9746 51.794H35.1306C35.1306 51.8033 35.1306 51.822 35.1306 51.85C35.1306 51.878 35.1306 51.9013 35.1306 51.92C35.1493 52.3027 35.2333 52.662 35.3826 52.998C35.5319 53.3247 35.7466 53.5907 36.0266 53.796C36.3159 54.0013 36.6519 54.104 37.0346 54.104C37.3706 54.104 37.6506 54.0527 37.8746 53.95C38.0986 53.8473 38.2806 53.7353 38.4206 53.614C38.5606 53.4833 38.6539 53.3807 38.7006 53.306C38.7846 53.194 38.8499 53.1287 38.8966 53.11C38.9433 53.082 39.0179 53.068 39.1206 53.068H39.8066C39.8906 53.068 39.9606 53.096 40.0166 53.152C40.0819 53.1987 40.1099 53.2687 40.1006 53.362C40.0913 53.502 40.0166 53.6747 39.8766 53.88C39.7366 54.076 39.5359 54.272 39.2746 54.468C39.0226 54.664 38.7053 54.8273 38.3226 54.958C37.9493 55.0793 37.5246 55.14 37.0486 55.14ZM35.1306 50.828H38.9666V50.786C38.9666 50.366 38.8873 49.9927 38.7286 49.666C38.5793 49.3393 38.3599 49.0827 38.0706 48.896C37.7813 48.7 37.4359 48.602 37.0346 48.602C36.6333 48.602 36.2879 48.7 35.9986 48.896C35.7186 49.0827 35.5039 49.3393 35.3546 49.666C35.2053 49.9927 35.1306 50.366 35.1306 50.786V50.828ZM42.2926 55C42.1992 55 42.1199 54.972 42.0546 54.916C41.9986 54.8507 41.9706 54.7713 41.9706 54.678V48.042C41.9706 47.9487 41.9986 47.874 42.0546 47.818C42.1199 47.7527 42.1992 47.72 42.2926 47.72H42.9506C43.0439 47.72 43.1186 47.7527 43.1746 47.818C43.2399 47.874 43.2726 47.9487 43.2726 48.042V48.658C43.5152 48.3407 43.8186 48.084 44.1826 47.888C44.5559 47.6827 45.0319 47.58 45.6106 47.58C46.2172 47.58 46.7306 47.7153 47.1506 47.986C47.5799 48.2473 47.9019 48.616 48.1166 49.092C48.3406 49.5587 48.4526 50.1047 48.4526 50.73V54.678C48.4526 54.7713 48.4199 54.8507 48.3546 54.916C48.2986 54.972 48.2239 55 48.1306 55H47.4306C47.3372 55 47.2579 54.972 47.1926 54.916C47.1366 54.8507 47.1086 54.7713 47.1086 54.678V50.8C47.1086 50.1467 46.9499 49.638 46.6326 49.274C46.3152 48.9007 45.8486 48.714 45.2326 48.714C44.6539 48.714 44.1872 48.9007 43.8326 49.274C43.4872 49.638 43.3146 50.1467 43.3146 50.8V54.678C43.3146 54.7713 43.2819 54.8507 43.2166 54.916C43.1606 54.972 43.0859 55 42.9926 55H42.2926ZM54.3964 55C54.2938 55 54.2144 54.972 54.1584 54.916C54.1024 54.8507 54.0744 54.7713 54.0744 54.678V45.536C54.0744 45.4333 54.1024 45.354 54.1584 45.298C54.2144 45.2327 54.2938 45.2 54.3964 45.2H57.8124C58.8671 45.2 59.7024 45.4473 60.3184 45.942C60.9344 46.4367 61.2424 47.1693 61.2424 48.14C61.2424 48.8587 61.0604 49.4467 60.6964 49.904C60.3418 50.352 59.8564 50.6647 59.2404 50.842L61.3964 54.566C61.4244 54.622 61.4384 54.6733 61.4384 54.72C61.4384 54.7947 61.4058 54.86 61.3404 54.916C61.2844 54.972 61.2191 55 61.1444 55H60.4724C60.3138 55 60.1971 54.958 60.1224 54.874C60.0478 54.79 59.9824 54.706 59.9264 54.622L57.8964 51.066H55.4464V54.678C55.4464 54.7713 55.4138 54.8507 55.3484 54.916C55.2924 54.972 55.2131 55 55.1104 55H54.3964ZM55.4464 49.876H57.7564C58.4564 49.876 58.9791 49.7313 59.3244 49.442C59.6698 49.1433 59.8424 48.7047 59.8424 48.126C59.8424 47.5567 59.6698 47.1227 59.3244 46.824C58.9884 46.5253 58.4658 46.376 57.7564 46.376H55.4464V49.876ZM65.8962 55.14C64.9256 55.14 64.1556 54.846 63.5862 54.258C63.0169 53.6607 62.7042 52.8487 62.6482 51.822C62.6389 51.7007 62.6342 51.5467 62.6342 51.36C62.6342 51.164 62.6389 51.0053 62.6482 50.884C62.6856 50.2213 62.8396 49.6427 63.1102 49.148C63.3809 48.644 63.7496 48.2567 64.2162 47.986C64.6922 47.7153 65.2476 47.58 65.8822 47.58C66.5916 47.58 67.1842 47.7293 67.6602 48.028C68.1456 48.3267 68.5142 48.7513 68.7662 49.302C69.0182 49.8527 69.1442 50.4967 69.1442 51.234V51.472C69.1442 51.5747 69.1116 51.654 69.0462 51.71C68.9902 51.766 68.9156 51.794 68.8222 51.794H63.9782C63.9782 51.8033 63.9782 51.822 63.9782 51.85C63.9782 51.878 63.9782 51.9013 63.9782 51.92C63.9969 52.3027 64.0809 52.662 64.2302 52.998C64.3796 53.3247 64.5942 53.5907 64.8742 53.796C65.1636 54.0013 65.4996 54.104 65.8822 54.104C66.2182 54.104 66.4982 54.0527 66.7222 53.95C66.9462 53.8473 67.1282 53.7353 67.2682 53.614C67.4082 53.4833 67.5016 53.3807 67.5482 53.306C67.6322 53.194 67.6976 53.1287 67.7442 53.11C67.7909 53.082 67.8656 53.068 67.9682 53.068H68.6542C68.7382 53.068 68.8082 53.096 68.8642 53.152C68.9296 53.1987 68.9576 53.2687 68.9482 53.362C68.9389 53.502 68.8642 53.6747 68.7242 53.88C68.5842 54.076 68.3836 54.272 68.1222 54.468C67.8702 54.664 67.5529 54.8273 67.1702 54.958C66.7969 55.0793 66.3722 55.14 65.8962 55.14ZM63.9782 50.828H67.8142V50.786C67.8142 50.366 67.7349 49.9927 67.5762 49.666C67.4269 49.3393 67.2076 49.0827 66.9182 48.896C66.6289 48.7 66.2836 48.602 65.8822 48.602C65.4809 48.602 65.1356 48.7 64.8462 48.896C64.5662 49.0827 64.3516 49.3393 64.2022 49.666C64.0529 49.9927 63.9782 50.366 63.9782 50.786V50.828ZM76.0822 57.66C75.9796 57.66 75.9002 57.6273 75.8442 57.562C75.7882 57.506 75.7602 57.4313 75.7602 57.338V54.09C75.5269 54.3887 75.2236 54.6407 74.8502 54.846C74.4862 55.042 74.0336 55.14 73.4922 55.14C72.9789 55.14 72.5356 55.0513 72.1622 54.874C71.7889 54.6873 71.4809 54.4447 71.2382 54.146C71.0049 53.838 70.8276 53.488 70.7062 53.096C70.5942 52.6947 70.5289 52.2747 70.5102 51.836C70.5009 51.6867 70.4962 51.528 70.4962 51.36C70.4962 51.192 70.5009 51.0333 70.5102 50.884C70.5289 50.436 70.5942 50.016 70.7062 49.624C70.8276 49.232 71.0049 48.882 71.2382 48.574C71.4809 48.266 71.7889 48.0233 72.1622 47.846C72.5356 47.6687 72.9789 47.58 73.4922 47.58C74.0522 47.58 74.5189 47.6827 74.8922 47.888C75.2656 48.0933 75.5642 48.35 75.7882 48.658V48.042C75.7882 47.9487 75.8162 47.874 75.8722 47.818C75.9376 47.7527 76.0169 47.72 76.1102 47.72H76.7542C76.8476 47.72 76.9222 47.7527 76.9782 47.818C77.0436 47.874 77.0762 47.9487 77.0762 48.042V57.338C77.0762 57.4313 77.0436 57.506 76.9782 57.562C76.9222 57.6273 76.8476 57.66 76.7542 57.66H76.0822ZM73.7862 54.006C74.2342 54.006 74.5982 53.9033 74.8782 53.698C75.1676 53.4927 75.3822 53.2313 75.5222 52.914C75.6716 52.5967 75.7509 52.2747 75.7602 51.948C75.7696 51.7893 75.7742 51.6073 75.7742 51.402C75.7742 51.1967 75.7696 51.0193 75.7602 50.87C75.7509 50.5247 75.6762 50.1887 75.5362 49.862C75.3962 49.526 75.1816 49.2507 74.8922 49.036C74.6122 48.8213 74.2436 48.714 73.7862 48.714C73.3102 48.714 72.9322 48.8213 72.6522 49.036C72.3722 49.2413 72.1716 49.5167 72.0502 49.862C71.9289 50.198 71.8589 50.562 71.8402 50.954C71.8309 51.2247 71.8309 51.4953 71.8402 51.766C71.8589 52.158 71.9289 52.5267 72.0502 52.872C72.1716 53.208 72.3722 53.4833 72.6522 53.698C72.9322 53.9033 73.3102 54.006 73.7862 54.006ZM81.8741 55.14C81.2767 55.14 80.7681 55.0093 80.3481 54.748C79.9374 54.4773 79.6247 54.104 79.4101 53.628C79.1954 53.152 79.0881 52.606 79.0881 51.99V48.042C79.0881 47.9487 79.1161 47.874 79.1721 47.818C79.2374 47.7527 79.3167 47.72 79.4101 47.72H80.1101C80.2034 47.72 80.2781 47.7527 80.3341 47.818C80.3994 47.874 80.4321 47.9487 80.4321 48.042V51.92C80.4321 53.3107 81.0387 54.006 82.2521 54.006C82.8307 54.006 83.2927 53.824 83.6381 53.46C83.9927 53.0867 84.1701 52.5733 84.1701 51.92V48.042C84.1701 47.9487 84.1981 47.874 84.2541 47.818C84.3194 47.7527 84.3987 47.72 84.4921 47.72H85.1921C85.2854 47.72 85.3601 47.7527 85.4161 47.818C85.4721 47.874 85.5001 47.9487 85.5001 48.042V54.678C85.5001 54.7713 85.4721 54.8507 85.4161 54.916C85.3601 54.972 85.2854 55 85.1921 55H84.5341C84.4407 55 84.3614 54.972 84.2961 54.916C84.2401 54.8507 84.2121 54.7713 84.2121 54.678V54.062C83.9601 54.3887 83.6521 54.65 83.2881 54.846C82.9334 55.042 82.4621 55.14 81.8741 55.14ZM90.4919 55.14C89.5213 55.14 88.7513 54.846 88.1819 54.258C87.6126 53.6607 87.2999 52.8487 87.2439 51.822C87.2346 51.7007 87.2299 51.5467 87.2299 51.36C87.2299 51.164 87.2346 51.0053 87.2439 50.884C87.2813 50.2213 87.4353 49.6427 87.7059 49.148C87.9766 48.644 88.3453 48.2567 88.8119 47.986C89.2879 47.7153 89.8433 47.58 90.4779 47.58C91.1873 47.58 91.7799 47.7293 92.2559 48.028C92.7413 48.3267 93.1099 48.7513 93.3619 49.302C93.6139 49.8527 93.7399 50.4967 93.7399 51.234V51.472C93.7399 51.5747 93.7073 51.654 93.6419 51.71C93.5859 51.766 93.5113 51.794 93.4179 51.794H88.5739C88.5739 51.8033 88.5739 51.822 88.5739 51.85C88.5739 51.878 88.5739 51.9013 88.5739 51.92C88.5926 52.3027 88.6766 52.662 88.8259 52.998C88.9753 53.3247 89.1899 53.5907 89.4699 53.796C89.7593 54.0013 90.0953 54.104 90.4779 54.104C90.8139 54.104 91.0939 54.0527 91.3179 53.95C91.5419 53.8473 91.7239 53.7353 91.8639 53.614C92.0039 53.4833 92.0973 53.3807 92.1439 53.306C92.2279 53.194 92.2933 53.1287 92.3399 53.11C92.3866 53.082 92.4613 53.068 92.5639 53.068H93.2499C93.3339 53.068 93.4039 53.096 93.4599 53.152C93.5253 53.1987 93.5533 53.2687 93.5439 53.362C93.5346 53.502 93.4599 53.6747 93.3199 53.88C93.1799 54.076 92.9793 54.272 92.7179 54.468C92.4659 54.664 92.1486 54.8273 91.7659 54.958C91.3926 55.0793 90.9679 55.14 90.4919 55.14ZM88.5739 50.828H92.4099V50.786C92.4099 50.366 92.3306 49.9927 92.1719 49.666C92.0226 49.3393 91.8033 49.0827 91.5139 48.896C91.2246 48.7 90.8793 48.602 90.4779 48.602C90.0766 48.602 89.7313 48.7 89.4419 48.896C89.1619 49.0827 88.9473 49.3393 88.7979 49.666C88.6486 49.9927 88.5739 50.366 88.5739 50.786V50.828ZM97.9339 55.14C97.4113 55.14 96.9633 55.0747 96.5899 54.944C96.2166 54.8133 95.9133 54.6547 95.6799 54.468C95.4466 54.2813 95.2693 54.0947 95.1479 53.908C95.0359 53.7213 94.9753 53.572 94.9659 53.46C94.9566 53.3573 94.9893 53.278 95.0639 53.222C95.1386 53.166 95.2133 53.138 95.2879 53.138H95.9179C95.9646 53.138 96.0019 53.1473 96.0299 53.166C96.0673 53.1753 96.1139 53.2127 96.1699 53.278C96.2913 53.4087 96.4266 53.5393 96.5759 53.67C96.7253 53.8007 96.9073 53.908 97.1219 53.992C97.3459 54.076 97.6213 54.118 97.9479 54.118C98.4239 54.118 98.8159 54.0293 99.1239 53.852C99.4319 53.6653 99.5859 53.3947 99.5859 53.04C99.5859 52.8067 99.5206 52.62 99.3899 52.48C99.2686 52.34 99.0446 52.214 98.7179 52.102C98.4006 51.99 97.9619 51.8733 97.4019 51.752C96.8419 51.6213 96.3986 51.4627 96.0719 51.276C95.7453 51.08 95.5119 50.8513 95.3719 50.59C95.2319 50.3193 95.1619 50.016 95.1619 49.68C95.1619 49.3347 95.2646 49.0033 95.4699 48.686C95.6753 48.3593 95.9739 48.0933 96.3659 47.888C96.7673 47.6827 97.2666 47.58 97.8639 47.58C98.3493 47.58 98.7646 47.6407 99.1099 47.762C99.4553 47.8833 99.7399 48.0373 99.9639 48.224C100.188 48.4013 100.356 48.5787 100.468 48.756C100.58 48.9333 100.641 49.0827 100.65 49.204C100.659 49.2973 100.631 49.3767 100.566 49.442C100.501 49.498 100.426 49.526 100.342 49.526H99.7539C99.6886 49.526 99.6326 49.512 99.5859 49.484C99.5486 49.456 99.5113 49.4233 99.4739 49.386C99.3806 49.2647 99.2686 49.1433 99.1379 49.022C99.0166 48.9007 98.8533 48.8027 98.6479 48.728C98.4519 48.644 98.1906 48.602 97.8639 48.602C97.3973 48.602 97.0473 48.7 96.8139 48.896C96.5806 49.092 96.4639 49.3393 96.4639 49.638C96.4639 49.8153 96.5153 49.974 96.6179 50.114C96.7206 50.254 96.9166 50.38 97.2059 50.492C97.4953 50.604 97.9246 50.7253 98.4939 50.856C99.1099 50.9773 99.5953 51.1407 99.9499 51.346C100.305 51.5513 100.557 51.7893 100.706 52.06C100.855 52.3307 100.93 52.6433 100.93 52.998C100.93 53.39 100.818 53.7493 100.594 54.076C100.37 54.4027 100.034 54.664 99.5859 54.86C99.1379 55.0467 98.5873 55.14 97.9339 55.14ZM105.379 55C104.856 55 104.432 54.902 104.105 54.706C103.778 54.5007 103.54 54.216 103.391 53.852C103.242 53.4787 103.167 53.04 103.167 52.536V48.84H102.075C101.982 48.84 101.902 48.812 101.837 48.756C101.781 48.6907 101.753 48.6113 101.753 48.518V48.042C101.753 47.9487 101.781 47.874 101.837 47.818C101.902 47.7527 101.982 47.72 102.075 47.72H103.167V45.382C103.167 45.2887 103.195 45.214 103.251 45.158C103.316 45.0927 103.396 45.06 103.489 45.06H104.147C104.24 45.06 104.315 45.0927 104.371 45.158C104.436 45.214 104.469 45.2887 104.469 45.382V47.72H106.205C106.308 47.72 106.387 47.7527 106.443 47.818C106.499 47.874 106.527 47.9487 106.527 48.042V48.518C106.527 48.6113 106.499 48.6907 106.443 48.756C106.387 48.812 106.308 48.84 106.205 48.84H104.469V52.438C104.469 52.8767 104.544 53.222 104.693 53.474C104.842 53.726 105.108 53.852 105.491 53.852H106.345C106.438 53.852 106.513 53.8847 106.569 53.95C106.634 54.006 106.667 54.0807 106.667 54.174V54.678C106.667 54.7713 106.634 54.8507 106.569 54.916C106.513 54.972 106.438 55 106.345 55H105.379ZM115.189 55.14C114.359 55.14 113.654 54.986 113.075 54.678C112.506 54.37 112.067 53.936 111.759 53.376C111.461 52.816 111.293 52.158 111.255 51.402C111.246 50.9913 111.241 50.5573 111.241 50.1C111.241 49.6333 111.246 49.19 111.255 48.77C111.293 48.014 111.461 47.3607 111.759 46.81C112.067 46.25 112.511 45.8207 113.089 45.522C113.668 45.214 114.368 45.06 115.189 45.06C115.843 45.06 116.412 45.1533 116.897 45.34C117.383 45.5267 117.779 45.7647 118.087 46.054C118.405 46.334 118.638 46.628 118.787 46.936C118.946 47.244 119.03 47.5147 119.039 47.748C119.049 47.832 119.025 47.902 118.969 47.958C118.913 48.0047 118.839 48.028 118.745 48.028H117.919C117.826 48.028 117.756 48.0093 117.709 47.972C117.672 47.9347 117.635 47.8693 117.597 47.776C117.513 47.5333 117.373 47.2953 117.177 47.062C116.991 46.8287 116.734 46.6373 116.407 46.488C116.09 46.3293 115.684 46.25 115.189 46.25C114.443 46.25 113.841 46.4507 113.383 46.852C112.935 47.2533 112.693 47.916 112.655 48.84C112.627 49.6707 112.627 50.5013 112.655 51.332C112.693 52.2653 112.94 52.9373 113.397 53.348C113.855 53.7493 114.452 53.95 115.189 53.95C115.684 53.95 116.123 53.8567 116.505 53.67C116.897 53.4833 117.205 53.2033 117.429 52.83C117.653 52.4473 117.765 51.962 117.765 51.374V50.786H115.665C115.572 50.786 115.493 50.758 115.427 50.702C115.371 50.6367 115.343 50.5527 115.343 50.45V50.002C115.343 49.8993 115.371 49.82 115.427 49.764C115.493 49.6987 115.572 49.666 115.665 49.666H118.829C118.932 49.666 119.011 49.6987 119.067 49.764C119.123 49.82 119.151 49.8993 119.151 50.002V51.346C119.151 52.1113 118.993 52.7787 118.675 53.348C118.367 53.9173 117.915 54.3607 117.317 54.678C116.72 54.986 116.011 55.14 115.189 55.14ZM123.879 55.14C122.908 55.14 122.138 54.846 121.569 54.258C120.999 53.6607 120.687 52.8487 120.631 51.822C120.621 51.7007 120.617 51.5467 120.617 51.36C120.617 51.164 120.621 51.0053 120.631 50.884C120.668 50.2213 120.822 49.6427 121.093 49.148C121.363 48.644 121.732 48.2567 122.199 47.986C122.675 47.7153 123.23 47.58 123.865 47.58C124.574 47.58 125.167 47.7293 125.643 48.028C126.128 48.3267 126.497 48.7513 126.749 49.302C127.001 49.8527 127.127 50.4967 127.127 51.234V51.472C127.127 51.5747 127.094 51.654 127.029 51.71C126.973 51.766 126.898 51.794 126.805 51.794H121.961C121.961 51.8033 121.961 51.822 121.961 51.85C121.961 51.878 121.961 51.9013 121.961 51.92C121.979 52.3027 122.063 52.662 122.213 52.998C122.362 53.3247 122.577 53.5907 122.857 53.796C123.146 54.0013 123.482 54.104 123.865 54.104C124.201 54.104 124.481 54.0527 124.705 53.95C124.929 53.8473 125.111 53.7353 125.251 53.614C125.391 53.4833 125.484 53.3807 125.531 53.306C125.615 53.194 125.68 53.1287 125.727 53.11C125.773 53.082 125.848 53.068 125.951 53.068H126.637C126.721 53.068 126.791 53.096 126.847 53.152C126.912 53.1987 126.94 53.2687 126.931 53.362C126.921 53.502 126.847 53.6747 126.707 53.88C126.567 54.076 126.366 54.272 126.105 54.468C125.853 54.664 125.535 54.8273 125.153 54.958C124.779 55.0793 124.355 55.14 123.879 55.14ZM121.961 50.828H125.797V50.786C125.797 50.366 125.717 49.9927 125.559 49.666C125.409 49.3393 125.19 49.0827 124.901 48.896C124.611 48.7 124.266 48.602 123.865 48.602C123.463 48.602 123.118 48.7 122.829 48.896C122.549 49.0827 122.334 49.3393 122.185 49.666C122.035 49.9927 121.961 50.366 121.961 50.786V50.828ZM129.123 55C129.029 55 128.95 54.972 128.885 54.916C128.829 54.8507 128.801 54.7713 128.801 54.678V48.042C128.801 47.9487 128.829 47.874 128.885 47.818C128.95 47.7527 129.029 47.72 129.123 47.72H129.781C129.874 47.72 129.949 47.7527 130.005 47.818C130.07 47.874 130.103 47.9487 130.103 48.042V48.658C130.345 48.3407 130.649 48.084 131.013 47.888C131.386 47.6827 131.862 47.58 132.441 47.58C133.047 47.58 133.561 47.7153 133.981 47.986C134.41 48.2473 134.732 48.616 134.947 49.092C135.171 49.5587 135.283 50.1047 135.283 50.73V54.678C135.283 54.7713 135.25 54.8507 135.185 54.916C135.129 54.972 135.054 55 134.961 55H134.261C134.167 55 134.088 54.972 134.023 54.916C133.967 54.8507 133.939 54.7713 133.939 54.678V50.8C133.939 50.1467 133.78 49.638 133.463 49.274C133.145 48.9007 132.679 48.714 132.063 48.714C131.484 48.714 131.017 48.9007 130.663 49.274C130.317 49.638 130.145 50.1467 130.145 50.8V54.678C130.145 54.7713 130.112 54.8507 130.047 54.916C129.991 54.972 129.916 55 129.823 55H129.123ZM140.203 55.14C139.232 55.14 138.462 54.846 137.893 54.258C137.324 53.6607 137.011 52.8487 136.955 51.822C136.946 51.7007 136.941 51.5467 136.941 51.36C136.941 51.164 136.946 51.0053 136.955 50.884C136.992 50.2213 137.146 49.6427 137.417 49.148C137.688 48.644 138.056 48.2567 138.523 47.986C138.999 47.7153 139.554 47.58 140.189 47.58C140.898 47.58 141.491 47.7293 141.967 48.028C142.452 48.3267 142.821 48.7513 143.073 49.302C143.325 49.8527 143.451 50.4967 143.451 51.234V51.472C143.451 51.5747 143.418 51.654 143.353 51.71C143.297 51.766 143.222 51.794 143.129 51.794H138.285C138.285 51.8033 138.285 51.822 138.285 51.85C138.285 51.878 138.285 51.9013 138.285 51.92C138.304 52.3027 138.388 52.662 138.537 52.998C138.686 53.3247 138.901 53.5907 139.181 53.796C139.47 54.0013 139.806 54.104 140.189 54.104C140.525 54.104 140.805 54.0527 141.029 53.95C141.253 53.8473 141.435 53.7353 141.575 53.614C141.715 53.4833 141.808 53.3807 141.855 53.306C141.939 53.194 142.004 53.1287 142.051 53.11C142.098 53.082 142.172 53.068 142.275 53.068H142.961C143.045 53.068 143.115 53.096 143.171 53.152C143.236 53.1987 143.264 53.2687 143.255 53.362C143.246 53.502 143.171 53.6747 143.031 53.88C142.891 54.076 142.69 54.272 142.429 54.468C142.177 54.664 141.86 54.8273 141.477 54.958C141.104 55.0793 140.679 55.14 140.203 55.14ZM138.285 50.828H142.121V50.786C142.121 50.366 142.042 49.9927 141.883 49.666C141.734 49.3393 141.514 49.0827 141.225 48.896C140.936 48.7 140.59 48.602 140.189 48.602C139.788 48.602 139.442 48.7 139.153 48.896C138.873 49.0827 138.658 49.3393 138.509 49.666C138.36 49.9927 138.285 50.366 138.285 50.786V50.828ZM145.447 55C145.354 55 145.274 54.972 145.209 54.916C145.153 54.8507 145.125 54.7713 145.125 54.678V48.056C145.125 47.9627 145.153 47.8833 145.209 47.818C145.274 47.7527 145.354 47.72 145.447 47.72H146.091C146.184 47.72 146.264 47.7527 146.329 47.818C146.394 47.8833 146.427 47.9627 146.427 48.056V48.672C146.614 48.3547 146.87 48.1167 147.197 47.958C147.524 47.7993 147.92 47.72 148.387 47.72H148.933C149.026 47.72 149.101 47.7527 149.157 47.818C149.222 47.874 149.255 47.9487 149.255 48.042V48.616C149.255 48.7093 149.222 48.784 149.157 48.84C149.101 48.896 149.026 48.924 148.933 48.924H148.093C147.589 48.924 147.192 49.0733 146.903 49.372C146.614 49.6613 146.469 50.058 146.469 50.562V54.678C146.469 54.7713 146.436 54.8507 146.371 54.916C146.306 54.972 146.226 55 146.133 55H145.447ZM152.364 55.14C151.897 55.14 151.473 55.0467 151.09 54.86C150.707 54.6733 150.399 54.4213 150.166 54.104C149.933 53.7867 149.816 53.4273 149.816 53.026C149.816 52.382 150.077 51.8687 150.6 51.486C151.123 51.1033 151.804 50.8513 152.644 50.73L154.73 50.436V50.03C154.73 49.582 154.599 49.232 154.338 48.98C154.086 48.728 153.671 48.602 153.092 48.602C152.681 48.602 152.345 48.686 152.084 48.854C151.823 49.022 151.641 49.2367 151.538 49.498C151.482 49.638 151.384 49.708 151.244 49.708H150.614C150.511 49.708 150.432 49.68 150.376 49.624C150.329 49.5587 150.306 49.484 150.306 49.4C150.306 49.26 150.357 49.0873 150.46 48.882C150.572 48.6767 150.74 48.476 150.964 48.28C151.188 48.084 151.473 47.9207 151.818 47.79C152.173 47.65 152.602 47.58 153.106 47.58C153.666 47.58 154.137 47.6547 154.52 47.804C154.903 47.944 155.201 48.1353 155.416 48.378C155.64 48.6207 155.799 48.896 155.892 49.204C155.995 49.512 156.046 49.8247 156.046 50.142V54.678C156.046 54.7713 156.013 54.8507 155.948 54.916C155.892 54.972 155.817 55 155.724 55H155.08C154.977 55 154.898 54.972 154.842 54.916C154.786 54.8507 154.758 54.7713 154.758 54.678V54.076C154.637 54.244 154.473 54.412 154.268 54.58C154.063 54.7387 153.806 54.874 153.498 54.986C153.19 55.0887 152.812 55.14 152.364 55.14ZM152.658 54.09C153.041 54.09 153.391 54.0107 153.708 53.852C154.025 53.684 154.273 53.4273 154.45 53.082C154.637 52.7367 154.73 52.3027 154.73 51.78V51.388L153.106 51.626C152.443 51.7193 151.944 51.878 151.608 52.102C151.272 52.3167 151.104 52.592 151.104 52.928C151.104 53.1893 151.179 53.4087 151.328 53.586C151.487 53.754 151.683 53.88 151.916 53.964C152.159 54.048 152.406 54.09 152.658 54.09ZM160.832 55C160.309 55 159.885 54.902 159.558 54.706C159.231 54.5007 158.993 54.216 158.844 53.852C158.695 53.4787 158.62 53.04 158.62 52.536V48.84H157.528C157.435 48.84 157.355 48.812 157.29 48.756C157.234 48.6907 157.206 48.6113 157.206 48.518V48.042C157.206 47.9487 157.234 47.874 157.29 47.818C157.355 47.7527 157.435 47.72 157.528 47.72H158.62V45.382C158.62 45.2887 158.648 45.214 158.704 45.158C158.769 45.0927 158.849 45.06 158.942 45.06H159.6C159.693 45.06 159.768 45.0927 159.824 45.158C159.889 45.214 159.922 45.2887 159.922 45.382V47.72H161.658C161.761 47.72 161.84 47.7527 161.896 47.818C161.952 47.874 161.98 47.9487 161.98 48.042V48.518C161.98 48.6113 161.952 48.6907 161.896 48.756C161.84 48.812 161.761 48.84 161.658 48.84H159.922V52.438C159.922 52.8767 159.997 53.222 160.146 53.474C160.295 53.726 160.561 53.852 160.944 53.852H161.798C161.891 53.852 161.966 53.8847 162.022 53.95C162.087 54.006 162.12 54.0807 162.12 54.174V54.678C162.12 54.7713 162.087 54.8507 162.022 54.916C161.966 54.972 161.891 55 161.798 55H160.832ZM166.371 55.14C165.4 55.14 164.63 54.846 164.061 54.258C163.492 53.6607 163.179 52.8487 163.123 51.822C163.114 51.7007 163.109 51.5467 163.109 51.36C163.109 51.164 163.114 51.0053 163.123 50.884C163.16 50.2213 163.314 49.6427 163.585 49.148C163.856 48.644 164.224 48.2567 164.691 47.986C165.167 47.7153 165.722 47.58 166.357 47.58C167.066 47.58 167.659 47.7293 168.135 48.028C168.62 48.3267 168.989 48.7513 169.241 49.302C169.493 49.8527 169.619 50.4967 169.619 51.234V51.472C169.619 51.5747 169.586 51.654 169.521 51.71C169.465 51.766 169.39 51.794 169.297 51.794H164.453C164.453 51.8033 164.453 51.822 164.453 51.85C164.453 51.878 164.453 51.9013 164.453 51.92C164.472 52.3027 164.556 52.662 164.705 52.998C164.854 53.3247 165.069 53.5907 165.349 53.796C165.638 54.0013 165.974 54.104 166.357 54.104C166.693 54.104 166.973 54.0527 167.197 53.95C167.421 53.8473 167.603 53.7353 167.743 53.614C167.883 53.4833 167.976 53.3807 168.023 53.306C168.107 53.194 168.172 53.1287 168.219 53.11C168.266 53.082 168.34 53.068 168.443 53.068H169.129C169.213 53.068 169.283 53.096 169.339 53.152C169.404 53.1987 169.432 53.2687 169.423 53.362C169.414 53.502 169.339 53.6747 169.199 53.88C169.059 54.076 168.858 54.272 168.597 54.468C168.345 54.664 168.028 54.8273 167.645 54.958C167.272 55.0793 166.847 55.14 166.371 55.14ZM164.453 50.828H168.289V50.786C168.289 50.366 168.21 49.9927 168.051 49.666C167.902 49.3393 167.682 49.0827 167.393 48.896C167.104 48.7 166.758 48.602 166.357 48.602C165.956 48.602 165.61 48.7 165.321 48.896C165.041 49.0827 164.826 49.3393 164.677 49.666C164.528 49.9927 164.453 50.366 164.453 50.786V50.828ZM173.953 55.14C173.44 55.14 172.996 55.0513 172.623 54.874C172.25 54.6873 171.942 54.44 171.699 54.132C171.466 53.8147 171.288 53.4553 171.167 53.054C171.055 52.6527 170.99 52.228 170.971 51.78C170.962 51.6307 170.957 51.4907 170.957 51.36C170.957 51.2293 170.962 51.0893 170.971 50.94C170.99 50.5013 171.055 50.0813 171.167 49.68C171.288 49.2787 171.466 48.9193 171.699 48.602C171.942 48.2847 172.25 48.0373 172.623 47.86C172.996 47.6733 173.44 47.58 173.953 47.58C174.504 47.58 174.961 47.678 175.325 47.874C175.689 48.07 175.988 48.3127 176.221 48.602V45.382C176.221 45.2887 176.249 45.214 176.305 45.158C176.37 45.0927 176.45 45.06 176.543 45.06H177.215C177.308 45.06 177.383 45.0927 177.439 45.158C177.504 45.214 177.537 45.2887 177.537 45.382V54.678C177.537 54.7713 177.504 54.8507 177.439 54.916C177.383 54.972 177.308 55 177.215 55H176.585C176.482 55 176.403 54.972 176.347 54.916C176.291 54.8507 176.263 54.7713 176.263 54.678V54.09C176.03 54.3887 175.726 54.6407 175.353 54.846C174.98 55.042 174.513 55.14 173.953 55.14ZM174.247 54.006C174.714 54.006 175.087 53.8987 175.367 53.684C175.647 53.4693 175.857 53.1987 175.997 52.872C176.137 52.536 176.212 52.1953 176.221 51.85C176.23 51.7007 176.235 51.5233 176.235 51.318C176.235 51.1033 176.23 50.9213 176.221 50.772C176.212 50.4453 176.132 50.1233 175.983 49.806C175.843 49.4887 175.628 49.2273 175.339 49.022C175.059 48.8167 174.695 48.714 174.247 48.714C173.771 48.714 173.393 48.8213 173.113 49.036C172.833 49.2413 172.632 49.5167 172.511 49.862C172.39 50.198 172.32 50.562 172.301 50.954C172.292 51.2247 172.292 51.4953 172.301 51.766C172.32 52.158 172.39 52.5267 172.511 52.872C172.632 53.208 172.833 53.4833 173.113 53.698C173.393 53.9033 173.771 54.006 174.247 54.006Z" fill="black"/>
<path d="M11 76C11 71.5817 14.5817 68 19 68H95C99.4183 68 103 71.5817 103 76V89C103 93.4183 99.4183 97 95 97H19C14.5817 97 11 93.4183 11 89V76Z" fill="#E59236"/>
<path d="M25.528 87.5C25.432 87.5 25.352 87.468 25.288 87.404C25.224 87.3293 25.192 87.2493 25.192 87.164C25.192 87.1107 25.1973 87.0627 25.208 87.02L29.016 76.732C29.048 76.6147 29.112 76.5133 29.208 76.428C29.304 76.3427 29.4373 76.3 29.608 76.3H31.656C31.8267 76.3 31.96 76.3427 32.056 76.428C32.152 76.5133 32.216 76.6147 32.248 76.732L36.056 87.02C36.0667 87.0627 36.072 87.1107 36.072 87.164C36.072 87.2493 36.04 87.3293 35.976 87.404C35.912 87.468 35.832 87.5 35.736 87.5H34.072C33.912 87.5 33.7947 87.4627 33.72 87.388C33.6453 87.3133 33.5973 87.244 33.576 87.18L32.888 85.388H28.376L27.688 87.18C27.6667 87.244 27.6187 87.3133 27.544 87.388C27.4693 87.4627 27.352 87.5 27.192 87.5H25.528ZM28.968 83.324H32.28L30.632 78.716L28.968 83.324ZM37.6736 90.54C37.5563 90.54 37.4603 90.5027 37.3856 90.428C37.311 90.3533 37.2736 90.2573 37.2736 90.14V79.58C37.2736 79.4627 37.311 79.3667 37.3856 79.292C37.4603 79.2173 37.5563 79.18 37.6736 79.18H39.1936C39.311 79.18 39.407 79.2173 39.4816 79.292C39.5563 79.3667 39.5936 79.4627 39.5936 79.58V80.188C39.8496 79.8467 40.1803 79.5693 40.5856 79.356C40.991 79.132 41.4976 79.02 42.1056 79.02C42.6603 79.02 43.1403 79.1107 43.5456 79.292C43.9616 79.4627 44.3083 79.7133 44.5856 80.044C44.8736 80.364 45.0923 80.7533 45.2416 81.212C45.4016 81.6707 45.4923 82.188 45.5136 82.764C45.5243 82.9667 45.5296 83.1587 45.5296 83.34C45.5296 83.5213 45.5243 83.7187 45.5136 83.932C45.503 84.476 45.4176 84.9773 45.2576 85.436C45.1083 85.8947 44.8896 86.2893 44.6016 86.62C44.3136 86.9507 43.9616 87.2067 43.5456 87.388C43.1403 87.5693 42.6603 87.66 42.1056 87.66C41.5616 87.66 41.087 87.564 40.6816 87.372C40.287 87.1693 39.9616 86.8973 39.7056 86.556V90.14C39.7056 90.2573 39.6683 90.3533 39.5936 90.428C39.519 90.5027 39.4283 90.54 39.3216 90.54H37.6736ZM41.3856 85.74C41.791 85.74 42.111 85.6547 42.3456 85.484C42.5803 85.3027 42.7456 85.068 42.8416 84.78C42.9483 84.492 43.0123 84.1773 43.0336 83.836C43.055 83.5053 43.055 83.1747 43.0336 82.844C43.0123 82.5027 42.9483 82.188 42.8416 81.9C42.7456 81.612 42.5803 81.3827 42.3456 81.212C42.111 81.0307 41.791 80.94 41.3856 80.94C40.991 80.94 40.671 81.0307 40.4256 81.212C40.1803 81.3933 40.0043 81.6227 39.8976 81.9C39.791 82.1773 39.727 82.476 39.7056 82.796C39.695 82.988 39.6896 83.1853 39.6896 83.388C39.6896 83.5907 39.695 83.7933 39.7056 83.996C39.7163 84.2947 39.7803 84.5773 39.8976 84.844C40.0256 85.1 40.207 85.3133 40.4416 85.484C40.687 85.6547 41.0016 85.74 41.3856 85.74ZM47.6268 90.54C47.5094 90.54 47.4134 90.5027 47.3388 90.428C47.2641 90.3533 47.2268 90.2573 47.2268 90.14V79.58C47.2268 79.4627 47.2641 79.3667 47.3388 79.292C47.4134 79.2173 47.5094 79.18 47.6268 79.18H49.1468C49.2641 79.18 49.3601 79.2173 49.4348 79.292C49.5094 79.3667 49.5468 79.4627 49.5468 79.58V80.188C49.8028 79.8467 50.1334 79.5693 50.5388 79.356C50.9441 79.132 51.4508 79.02 52.0588 79.02C52.6134 79.02 53.0934 79.1107 53.4988 79.292C53.9148 79.4627 54.2614 79.7133 54.5388 80.044C54.8268 80.364 55.0454 80.7533 55.1948 81.212C55.3548 81.6707 55.4454 82.188 55.4668 82.764C55.4774 82.9667 55.4828 83.1587 55.4828 83.34C55.4828 83.5213 55.4774 83.7187 55.4668 83.932C55.4561 84.476 55.3708 84.9773 55.2108 85.436C55.0614 85.8947 54.8428 86.2893 54.5548 86.62C54.2668 86.9507 53.9148 87.2067 53.4988 87.388C53.0934 87.5693 52.6134 87.66 52.0588 87.66C51.5148 87.66 51.0401 87.564 50.6348 87.372C50.2401 87.1693 49.9148 86.8973 49.6588 86.556V90.14C49.6588 90.2573 49.6214 90.3533 49.5468 90.428C49.4721 90.5027 49.3814 90.54 49.2748 90.54H47.6268ZM51.3388 85.74C51.7441 85.74 52.0641 85.6547 52.2988 85.484C52.5334 85.3027 52.6988 85.068 52.7948 84.78C52.9014 84.492 52.9654 84.1773 52.9868 83.836C53.0081 83.5053 53.0081 83.1747 52.9868 82.844C52.9654 82.5027 52.9014 82.188 52.7948 81.9C52.6988 81.612 52.5334 81.3827 52.2988 81.212C52.0641 81.0307 51.7441 80.94 51.3388 80.94C50.9441 80.94 50.6241 81.0307 50.3788 81.212C50.1334 81.3933 49.9574 81.6227 49.8508 81.9C49.7441 82.1773 49.6801 82.476 49.6588 82.796C49.6481 82.988 49.6428 83.1853 49.6428 83.388C49.6428 83.5907 49.6481 83.7933 49.6588 83.996C49.6694 84.2947 49.7334 84.5773 49.8508 84.844C49.9788 85.1 50.1601 85.3133 50.3948 85.484C50.6401 85.6547 50.9548 85.74 51.3388 85.74ZM57.5639 87.5C57.4572 87.5 57.3665 87.4627 57.2919 87.388C57.2172 87.3133 57.1799 87.2173 57.1799 87.1V79.58C57.1799 79.4733 57.2172 79.3827 57.2919 79.308C57.3665 79.2227 57.4572 79.18 57.5639 79.18H59.1319C59.2385 79.18 59.3292 79.2227 59.4039 79.308C59.4892 79.3827 59.5319 79.4733 59.5319 79.58V80.22C59.7985 79.8893 60.1239 79.6333 60.5079 79.452C60.9025 79.2707 61.3559 79.18 61.8679 79.18H62.5559C62.6625 79.18 62.7532 79.2173 62.8279 79.292C62.9025 79.3667 62.9399 79.4627 62.9399 79.58V80.956C62.9399 81.0733 62.9025 81.1693 62.8279 81.244C62.7532 81.3187 62.6625 81.356 62.5559 81.356H61.1479C60.6785 81.356 60.3105 81.4893 60.0439 81.756C59.7772 82.012 59.6439 82.38 59.6439 82.86V87.1C59.6439 87.2173 59.6065 87.3133 59.5319 87.388C59.4572 87.4627 59.3612 87.5 59.2439 87.5H57.5639ZM67.8473 87.66C66.9619 87.66 66.2206 87.516 65.6233 87.228C65.0259 86.9293 64.5673 86.508 64.2473 85.964C63.9379 85.42 63.7673 84.7853 63.7353 84.06C63.7246 83.8467 63.7193 83.6067 63.7193 83.34C63.7193 83.0627 63.7246 82.8227 63.7353 82.62C63.7673 81.884 63.9486 81.2493 64.2793 80.716C64.6099 80.172 65.0739 79.756 65.6713 79.468C66.2686 79.1693 66.9939 79.02 67.8473 79.02C68.6899 79.02 69.4099 79.1693 70.0073 79.468C70.6046 79.756 71.0686 80.172 71.3993 80.716C71.7299 81.2493 71.9113 81.884 71.9433 82.62C71.9646 82.8227 71.9753 83.0627 71.9753 83.34C71.9753 83.6067 71.9646 83.8467 71.9433 84.06C71.9113 84.7853 71.7353 85.42 71.4153 85.964C71.1059 86.508 70.6526 86.9293 70.0553 87.228C69.4579 87.516 68.7219 87.66 67.8473 87.66ZM67.8473 85.9C68.3699 85.9 68.7646 85.74 69.0313 85.42C69.2979 85.0893 69.4419 84.6093 69.4633 83.98C69.4739 83.82 69.4793 83.6067 69.4793 83.34C69.4793 83.0733 69.4739 82.86 69.4633 82.7C69.4419 82.0813 69.2979 81.6067 69.0313 81.276C68.7646 80.9453 68.3699 80.78 67.8473 80.78C67.3246 80.78 66.9246 80.9453 66.6473 81.276C66.3806 81.6067 66.2366 82.0813 66.2153 82.7C66.2046 82.86 66.1993 83.0733 66.1993 83.34C66.1993 83.6067 66.2046 83.82 66.2153 83.98C66.2366 84.6093 66.3806 85.0893 66.6473 85.42C66.9246 85.74 67.3246 85.9 67.8473 85.9ZM76.2801 87.5C76.1201 87.5 75.9975 87.4627 75.9121 87.388C75.8375 87.3027 75.7735 87.2067 75.7201 87.1L72.7121 79.676C72.6908 79.6333 72.6801 79.5853 72.6801 79.532C72.6801 79.436 72.7121 79.356 72.7761 79.292C72.8508 79.2173 72.9361 79.18 73.0321 79.18H74.5841C74.7228 79.18 74.8241 79.2173 74.8881 79.292C74.9628 79.3667 75.0108 79.436 75.0321 79.5L77.0001 84.78L78.9681 79.5C79.0001 79.436 79.0481 79.3667 79.1121 79.292C79.1868 79.2173 79.2881 79.18 79.4161 79.18H80.9681C81.0641 79.18 81.1441 79.2173 81.2081 79.292C81.2828 79.356 81.3201 79.436 81.3201 79.532C81.3201 79.5853 81.3148 79.6333 81.3041 79.676L78.2801 87.1C78.2375 87.2067 78.1735 87.3027 78.0881 87.388C78.0028 87.4627 77.8801 87.5 77.7201 87.5H76.2801ZM86.0794 87.66C84.8527 87.66 83.8767 87.3187 83.1514 86.636C82.4367 85.9533 82.058 84.9613 82.0154 83.66C82.0154 83.5747 82.0154 83.4627 82.0154 83.324C82.0154 83.1747 82.0154 83.0573 82.0154 82.972C82.058 82.1507 82.2447 81.4467 82.5754 80.86C82.906 80.2627 83.37 79.8093 83.9674 79.5C84.5647 79.18 85.2634 79.02 86.0634 79.02C86.9594 79.02 87.706 79.2067 88.3034 79.58C88.9114 79.9427 89.3647 80.444 89.6634 81.084C89.9727 81.7133 90.1274 82.4387 90.1274 83.26V83.628C90.1274 83.7347 90.0847 83.8253 89.9994 83.9C89.9247 83.9747 89.834 84.012 89.7274 84.012H84.4954C84.4954 84.0227 84.4954 84.044 84.4954 84.076C84.4954 84.0973 84.4954 84.1187 84.4954 84.14C84.506 84.4813 84.57 84.796 84.6874 85.084C84.8154 85.3613 84.9914 85.5853 85.2154 85.756C85.45 85.9267 85.7274 86.012 86.0474 86.012C86.314 86.012 86.5327 85.9747 86.7034 85.9C86.874 85.8253 87.0127 85.7347 87.1194 85.628C87.2367 85.5213 87.322 85.4307 87.3754 85.356C87.4714 85.2493 87.546 85.1853 87.5994 85.164C87.6634 85.132 87.7594 85.116 87.8874 85.116H89.5514C89.658 85.116 89.7434 85.148 89.8074 85.212C89.882 85.2653 89.914 85.3453 89.9034 85.452C89.8927 85.6227 89.802 85.836 89.6314 86.092C89.4714 86.3373 89.2314 86.5827 88.9114 86.828C88.5914 87.0627 88.1914 87.26 87.7114 87.42C87.242 87.58 86.698 87.66 86.0794 87.66ZM84.4954 82.556H87.6314V82.524C87.6314 82.14 87.5674 81.8093 87.4394 81.532C87.322 81.244 87.146 81.02 86.9114 80.86C86.6767 80.7 86.394 80.62 86.0634 80.62C85.7327 80.62 85.45 80.7 85.2154 80.86C84.9807 81.02 84.7994 81.244 84.6714 81.532C84.554 81.8093 84.4954 82.14 84.4954 82.524V82.556Z" fill="white"/>
</svg>
