<svg width="371" height="496" viewBox="0 0 371 496" fill="none" xmlns="http://www.w3.org/2000/svg">
<path d="M180.747 412.427C180.747 412.427 199.628 444.002 180.747 462.519C161.867 481.037 146.619 461.071 143.343 447.278C140.077 433.484 146.252 388.84 146.252 388.84C146.252 388.84 178.853 408.828 180.747 412.427Z" fill="white" stroke="#242626" stroke-width="0.75" stroke-miterlimit="10" stroke-linecap="round" stroke-linejoin="round"/>
<path d="M110.698 235.22C110.698 235.22 129.3 235.777 151.936 258.762C164.553 271.575 176.891 291.162 184.95 318.826C195.783 355.984 201.167 387.292 200.62 412.728C200.453 420.248 196.017 426.254 188.427 429.318C181.049 432.293 170.427 430.51 163.472 429.017C146.653 425.418 136.299 414.867 136.299 414.867L110.698 235.22Z" fill="white"/>
<path d="M168.243 340.474C170.628 335.884 176.19 333.522 182.019 335.873C182.61 336.118 183.167 336.463 183.635 336.898C190.724 343.393 187.369 353.12 179.924 355.081C176.836 355.894 173.559 355.226 171.052 353.287C168.666 357.877 163.105 360.239 157.265 357.888C156.674 357.643 156.117 357.298 155.648 356.863C148.56 350.368 151.926 340.641 159.36 338.68C162.458 337.856 165.724 338.535 168.243 340.474Z" fill="#E59236"/>
<path d="M198.213 403.647C196.886 406.21 194.568 408.071 191.759 408.817C186.309 410.265 180.692 407.001 179.243 401.542C177.794 396.093 181.06 390.478 186.521 389.03C189.608 388.216 192.885 388.885 195.393 390.823C196.307 389.063 197.7 387.637 199.383 386.679C199.751 392.929 200.007 399.001 200.186 404.84C199.506 404.528 198.837 404.126 198.213 403.647Z" fill="#E59236"/>
<path d="M164.586 416.305C170.036 414.856 175.653 418.121 177.102 423.58C177.782 426.143 177.414 428.727 176.277 430.911L166.659 430.287C166.659 430.287 155.825 427.836 153.173 423.547C152.482 422.432 152.927 421.04 154.109 419.602C155.558 419.926 156.94 420.561 158.144 421.485C159.459 418.912 161.777 417.051 164.586 416.305Z" fill="#E59236"/>
<path d="M155.591 274.706C158.678 273.892 161.955 274.561 164.463 276.499C164.63 276.176 164.808 275.875 165.009 275.575C167.093 278.683 171.886 286.037 174.148 291.418C171.696 291.563 169.256 290.839 167.283 289.312C165.956 291.875 163.638 293.735 160.829 294.482C155.379 295.93 149.762 292.666 148.313 287.206C146.875 281.758 150.13 276.154 155.591 274.706Z" fill="#E59236"/>
<path d="M110.698 235.22C110.698 235.22 157.509 237.014 184.382 317.088C195.093 349.009 199.974 382.044 200.576 410.377C201.323 444.816 148.437 425.708 148.437 425.708L110.698 235.22Z" stroke="#242626" stroke-width="0.75" stroke-miterlimit="10" stroke-linecap="round" stroke-linejoin="round"/>
<path d="M45.6413 437.473C45.6413 437.473 7.79079 436.437 0.936245 409.697C-5.91831 382.957 27.4405 331.472 27.4405 331.472L56.4414 365.197L45.6413 437.473Z" fill="#51AB86"/>
<path d="M82.7556 237.024C82.7556 237.024 46.1869 240.3 25.3892 285.323C4.58031 330.347 12.5271 354.167 18.4566 365.075C23.1266 373.665 34.8406 388.84 64.5549 375.114C72.5686 371.415 89.4207 323.706 94.0016 314.67C98.5824 305.634 95.1941 247.52 95.1941 247.52L82.7556 237.024Z" fill="white"/>
<path d="M51.6804 304.955C52.9844 310.447 49.585 315.974 44.1014 317.277C40.9918 318.024 37.7372 317.266 35.2741 315.261C33.8809 317.79 31.518 319.595 28.6982 320.263C23.2034 321.567 17.6751 318.169 16.3711 312.687C16.1482 311.751 16.0702 310.815 16.1147 309.901C16.5717 308.297 17.0621 306.659 17.6083 304.977C18.9792 302.737 21.2083 301.022 23.9613 300.364C27.0709 299.618 30.3254 300.375 32.7886 302.381C34.1818 299.852 36.5447 298.047 39.3645 297.378C44.8481 296.064 50.3764 299.462 51.6804 304.955Z" fill="#E59236"/>
<path d="M24.1628 336.664C22.8922 331.338 17.6538 327.996 12.3373 328.987C12.315 329.177 11.8023 334.97 11.9584 340.24C12.0921 344.853 12.9058 349.009 12.9281 349.176C14.1318 349.332 15.3689 349.276 16.5838 348.987C22.0675 347.672 25.4669 342.146 24.1628 336.664Z" fill="#E59236"/>
<path d="M26.6257 282.772C26.648 282.772 26.6703 282.783 26.6926 282.783C27.6066 281.023 30.2815 275.92 31.4184 274.026C32.6221 272.02 38.2729 264.522 39.7664 262.561C39.7553 262.572 39.7441 262.572 39.733 262.572C39.7999 262.494 39.8667 262.416 39.9336 262.338C40.0562 262.182 40.1342 262.071 40.1342 262.071L40.1677 262.06C40.4797 261.703 40.7807 261.336 41.0927 260.979C41.2265 260.934 41.3602 260.868 41.494 260.834C46.9888 259.531 52.517 262.929 53.821 268.41C55.1251 273.892 51.7257 279.429 46.242 280.733C43.1324 281.48 39.8779 280.722 37.4147 278.716C36.0215 281.246 33.6586 283.051 30.8388 283.719C29.245 284.098 27.6511 284.076 26.1576 283.719C26.3137 283.407 26.4697 283.095 26.6257 282.772Z" fill="#E59236"/>
<path d="M19.0909 365.264C19.6036 365.543 20.1051 365.821 20.5732 366.2C21.9664 363.671 24.3293 361.866 27.1491 361.197C32.6439 359.894 38.1722 363.292 39.4762 368.774C40.4904 373.052 38.6514 377.342 35.1851 379.648C34.8619 379.537 34.5275 379.414 34.1932 379.291C34.1932 379.291 34.182 379.28 34.1709 379.28C34.0817 379.247 34.0037 379.225 33.9145 379.191C33.9257 379.18 33.948 379.169 33.9591 379.169C32.9449 378.612 28.8544 376.35 27.0488 375.47C24.9757 374.456 19.793 367.348 19.793 367.348L19.0909 365.264Z" fill="#E59236"/>
<path d="M82.7556 237.024C82.7556 237.024 46.1869 240.3 25.3892 285.323C4.58031 330.347 12.5271 354.167 18.4566 365.075C23.1266 373.665 34.8407 388.84 64.5549 375.114C72.5686 371.415 89.4207 323.706 94.0016 314.67C98.5824 305.634 95.1941 247.52 95.1941 247.52L82.7556 237.024Z" stroke="#242626" stroke-width="0.75" stroke-miterlimit="10" stroke-linecap="round" stroke-linejoin="round"/>
<path d="M161.578 394.199L47.0568 409.697L45.0172 466.965C46.5999 467.578 157.276 497.471 171.375 495.933L161.578 394.199Z" fill="#242626"/>
<path d="M39.7681 342.602V437.473L167.396 422.164L161.545 303.495L142.43 291.44L144.269 273.402L125.913 241.414L73.2941 242.06L61.2568 262.839L61.2011 331.483L39.7681 342.602Z" fill="white"/>
<path d="M114.032 345.81C115.381 343.281 117.677 341.476 120.419 340.808C125.747 339.504 131.108 342.902 132.378 348.384C133.649 353.877 130.35 359.403 125.022 360.707C122.002 361.453 118.847 360.696 116.462 358.69C115.114 361.219 112.818 363.024 110.076 363.693C104.748 364.996 99.3871 361.598 98.1166 356.116C96.846 350.624 100.145 345.097 105.473 343.794C108.493 343.047 111.647 343.805 114.032 345.81Z" fill="#E59236"/>
<path d="M98.6165 293.89C99.9651 291.361 102.261 289.556 105.003 288.888C110.331 287.584 115.692 290.982 116.962 296.464C118.233 301.957 114.934 307.483 109.606 308.787C106.586 309.533 103.431 308.776 101.046 306.77C99.6976 309.299 97.4016 311.104 94.6598 311.773C89.3322 313.076 83.9711 309.678 82.7005 304.196C81.4299 298.704 84.729 293.177 90.0566 291.874C93.0771 291.138 96.2313 291.885 98.6165 293.89Z" fill="#E59236"/>
<path d="M126.704 255.229C128.053 252.7 130.349 250.895 133.091 250.227C138.418 248.923 143.779 252.321 145.05 257.803C146.321 263.296 143.022 268.822 137.694 270.126C134.673 270.872 131.519 270.114 129.134 268.109C127.785 270.638 125.489 272.443 122.748 273.112C117.42 274.415 112.059 271.017 110.788 265.535C109.518 260.042 112.817 254.516 118.145 253.213C121.165 252.466 124.319 253.224 126.704 255.229Z" fill="#E59236"/>
<path d="M119.771 406.343C121.119 403.813 123.415 402.008 126.157 401.34C131.485 400.036 136.846 403.435 138.116 408.916C139.387 414.409 136.088 419.935 130.76 421.239C127.74 421.985 124.586 421.228 122.201 419.222C120.852 421.751 118.556 423.556 115.814 424.225C110.486 425.528 105.125 422.13 103.855 416.649C102.584 411.156 105.883 405.63 111.211 404.326C114.22 403.591 117.374 404.337 119.771 406.343Z" fill="#E59236"/>
<path d="M76.4485 385.898C77.7971 383.369 80.0931 381.564 82.8349 380.896C88.1625 379.592 93.5236 382.99 94.7942 388.472C96.0648 393.965 92.7657 399.491 87.4381 400.795C84.4176 401.53 81.2634 400.783 78.8782 398.778C77.5296 401.307 75.2336 403.112 72.4918 403.781C67.1642 405.084 61.8032 401.686 60.5326 396.204C59.262 390.711 62.5611 385.185 67.8887 383.882C70.9091 383.135 74.0633 383.893 76.4485 385.898Z" fill="#E59236"/>
<path d="M63.0627 251.909C64.4447 251.92 65.8045 252.221 67.0639 252.8C67.8441 253.157 68.5909 253.625 69.2708 254.193C70.6194 251.664 72.9154 249.859 75.6572 249.191C80.9848 247.887 86.3458 251.285 87.6164 256.767C88.887 262.26 85.5879 267.786 80.2603 269.09C77.2399 269.836 74.0857 269.078 71.7005 267.073C70.3519 269.602 68.0559 271.407 65.3141 272.075C64.9797 272.153 64.6453 272.22 64.311 272.265L63.1295 252.912L63.0627 251.909Z" fill="#E59236"/>
<path d="M41.6631 407.758C46.9907 406.454 52.3517 409.853 53.6223 415.334C54.8929 420.827 51.5938 426.353 46.2662 427.657C44.0594 428.203 41.7745 427.935 39.7683 426.966V426.286V425.83V409.596V408.449C40.3702 408.159 41.0055 407.925 41.6631 407.758Z" fill="#E59236"/>
<path d="M141.984 310.58C145.004 309.834 148.159 310.592 150.544 312.597C151.892 310.068 154.188 308.263 156.93 307.595C158.58 307.193 160.229 307.238 161.756 307.661L161.812 308.776L162.659 326.023L162.715 327.126C162.336 327.271 161.935 327.404 161.533 327.505C158.513 328.251 155.359 327.493 152.974 325.488C151.625 328.017 149.329 329.822 146.587 330.491C141.26 331.794 135.898 328.396 134.628 322.914C133.357 317.41 136.656 311.884 141.984 310.58Z" fill="#E59236"/>
<path d="M146.855 364.183C149.876 363.436 153.03 364.194 155.415 366.199C156.764 363.67 159.06 361.865 161.802 361.197C162.671 360.985 163.529 360.907 164.376 360.929L164.432 361.988L165.335 380.249L165.391 381.285C162.693 381.653 159.974 380.862 157.845 379.079C156.496 381.608 154.2 383.413 151.459 384.082C146.131 385.385 140.77 381.987 139.499 376.505C138.24 371.013 141.539 365.486 146.855 364.183Z" fill="#E59236"/>
<path d="M39.7681 342.602V437.473L167.396 422.164L161.545 303.495" stroke="#242626" stroke-width="0.75" stroke-miterlimit="10" stroke-linecap="round" stroke-linejoin="round"/>
<path d="M39.7681 444.882L167.396 422.165L166.783 409.697C139.031 414.666 67.3423 428.27 39.7681 433.161V444.882Z" fill="white" stroke="#242626" stroke-width="0.75" stroke-miterlimit="10" stroke-linecap="round" stroke-linejoin="round"/>
<path d="M78.5633 301.323C76.2673 271.118 72.0097 251.898 68.4765 240.567C63.9848 241.804 59.0585 243.631 53.9761 248.623C60.5074 278.215 68.9112 347.56 27.4272 379.225C28.9988 383.793 31.4062 390.589 39.7654 389.664C55.4584 373.899 81.3386 337.867 78.5633 301.323Z" fill="#51AB86"/>
<path d="M29.3796 338.725C29.3796 338.725 37.0255 326.48 50.69 327.583C64.3657 328.675 84.3609 345.766 71.4097 367.67C64.923 378.645 48.7395 383.848 35.5431 379.659C34.3394 379.28 31.2966 378.344 28.566 375.793C27.2619 374.578 25.5232 373.431 24.3641 371.681C22.0569 368.228 21.1096 362.891 21.143 357.22C21.1876 347.025 29.3796 338.725 29.3796 338.725Z" fill="white"/>
<path d="M49.6974 336.763C51.0906 334.234 53.4534 332.429 56.2733 331.761C61.7681 330.457 67.2963 333.856 68.6003 339.337C69.9044 344.83 66.505 350.356 61.0213 351.66C57.9117 352.406 54.6572 351.649 52.194 349.643C50.8008 352.172 48.4379 353.977 45.6181 354.646C40.1233 355.949 34.5951 352.551 33.291 347.069C31.987 341.577 35.3864 336.05 40.87 334.747C43.9797 334.011 47.2342 334.758 49.6974 336.763Z" fill="#E59236"/>
<path d="M75.0207 358.713C75.0875 358.379 75.1767 358.044 75.2324 357.721C73.6163 357.287 71.8999 357.242 70.2169 357.643C64.7221 358.947 61.3227 364.484 62.6379 369.966C63.0726 371.771 63.9531 373.331 65.1456 374.59C65.4243 374.378 65.6918 374.144 65.9593 373.921C65.1456 373.074 70.4955 371.994 73.3822 363.949C73.973 362.278 74.6417 358.601 75.0207 358.713Z" fill="#E59236"/>
<path d="M28.8773 376.417L33.2575 361.632C36.2668 362.813 38.6854 365.398 39.4879 368.785C40.5022 373.063 38.6631 377.353 35.1969 379.659C34.8736 379.548 34.5393 379.425 34.2049 379.302C34.2049 379.302 34.1938 379.291 34.1826 379.291C34.0934 379.258 34.0154 379.236 33.9263 379.202C33.9374 379.191 33.9597 379.18 33.9708 379.18C33.2129 378.768 30.8166 377.442 28.8773 376.417Z" fill="#E59236"/>
<path d="M19.0928 365.264C19.6055 365.543 20.1071 365.821 20.5752 366.2C21.9684 363.671 24.3313 361.866 27.1511 361.197C32.6459 359.894 38.1741 363.292 39.4781 368.774C40.4924 373.052 38.6534 377.342 35.1871 379.648C34.8639 379.537 34.5295 379.414 34.1951 379.291C34.1951 379.291 34.184 379.28 34.1728 379.28C34.0837 379.247 34.0056 379.225 33.9165 379.191C33.9276 379.18 33.9499 379.169 33.9611 379.169C32.9468 378.612 30.3053 376.851 28.4997 375.971C26.4266 374.957 20.3077 367.169 20.3077 367.169L19.0928 365.264Z" fill="#E59236"/>
<path d="M29.4128 338.78C29.4128 338.78 37.0587 326.536 50.7232 327.639C64.3989 328.731 84.3941 345.822 71.4429 367.726C63.7302 380.773 42.1745 385.753 28.3651 376.405" stroke="#242626" stroke-width="0.75" stroke-miterlimit="10" stroke-linecap="round" stroke-linejoin="round"/>
<path d="M51.1349 332.063C51.6364 330.057 52.216 327.929 52.7844 323.54C52.7844 323.54 50.0092 297.357 54.512 294.928C61.5672 291.106 62.0687 308.744 62.0687 308.744L62.392 308.732C66.1146 306.348 75.3654 299.752 78.2076 291.463C78.2076 291.463 81.4287 291.641 82.1754 294.505L82.2089 294.883C83.6689 295.14 85.0621 296.365 86.0652 299.151C87.8708 300.098 91.1811 303.362 91.2145 308.22H91.2257C92.9086 309.356 93.8003 312.075 93.8003 312.075C96.0406 317.891 92.6746 327.796 85.8869 335.417C79.0992 343.049 68.8564 348.786 62.4365 346.848C58.1009 345.544 54.3114 341.533 52.372 338.859C51.4358 337.567 50.5442 334.447 51.1349 332.063Z" fill="white"/>
<path d="M62.0584 308.732C62.0584 308.732 61.568 291.106 54.5017 294.916C49.9988 297.345 52.7741 323.539 52.7741 323.539C52.2057 327.929 51.6261 330.057 51.1245 332.063C50.5338 334.447 51.4143 337.566 52.3506 338.859C54.2899 341.533 58.0794 345.544 62.4151 346.847C68.8349 348.775 79.0889 343.037 85.8654 335.416C92.6531 327.784 96.0191 317.89 93.7788 312.074C93.7788 312.074 92.8872 309.367 91.2042 308.219" stroke="#242626" stroke-width="0.75" stroke-miterlimit="10" stroke-linecap="round" stroke-linejoin="round"/>
<path d="M60.8094 309.69C60.8094 309.69 74.6076 301.913 78.1965 291.463C78.1965 291.463 82.4987 290.727 82.6882 298.348C82.8777 305.969 77.7841 312.063 77.7841 312.063" stroke="#242626" stroke-width="0.75" stroke-miterlimit="10" stroke-linecap="round" stroke-linejoin="round"/>
<path d="M84.5715 314.192C84.5715 314.192 86.7338 308.253 86.8007 303.674C86.8675 299.095 85.3183 295.217 82.1975 294.872" stroke="#242626" stroke-width="0.75" stroke-miterlimit="10" stroke-linecap="round" stroke-linejoin="round"/>
<path d="M88.5961 319.785C88.5961 319.785 90.8921 314.181 91.2041 308.933C91.5162 303.685 88.1837 300.276 86.3001 299.284" stroke="#242626" stroke-width="0.75" stroke-miterlimit="10" stroke-linecap="round" stroke-linejoin="round"/>
<path d="M92.7965 155.635C83.2225 160.392 77.5939 171.712 78.7865 183.756C80.4249 200.357 94.8919 212.691 94.8919 212.691L95.9062 185.06L97.5 184.213L92.7965 155.635Z" fill="#242626"/>
<path d="M89.0529 189.138C91.1483 189.127 93.0765 189.795 94.6703 190.909L94.648 185.138C94.6146 175.991 101.168 168.481 109.204 168.448L121.297 168.403C129.333 168.37 135.943 175.835 135.976 184.982L136.043 203.722C136.076 212.87 129.523 220.379 121.487 220.412L114.498 220.435L114.532 230.529C114.543 234.674 111.177 238.072 107.031 238.083L102.238 238.105C98.1032 238.116 94.6926 234.752 94.6815 230.607L94.6369 219.198V218.563L94.5923 207.154C94.5923 206.92 94.6146 206.697 94.6369 206.474C93.0765 207.566 91.1817 208.212 89.1309 208.224C83.8145 208.246 79.49 203.99 79.4677 198.709C79.4454 193.45 83.7365 189.16 89.0529 189.138Z" fill="white" stroke="#242626" stroke-width="0.75" stroke-miterlimit="10" stroke-linecap="round" stroke-linejoin="round"/>
<path d="M93.6672 199.945C93.6672 199.945 94.0685 193.461 87.4145 194.207" stroke="#242626" stroke-width="0.75" stroke-miterlimit="10" stroke-linecap="round" stroke-linejoin="round"/>
<path d="M88.952 162.654C89.3644 162.242 89.7991 161.863 90.2226 161.473L88.7291 158.209C93.1427 154.699 98.7824 152.794 105.225 153.373C136.042 142.555 147.511 171.813 136.577 179.734C133.356 182.063 117.34 183.244 111.065 176.993C110.652 178.264 110.017 179.868 109.07 181.918C107.008 186.352 102.46 189.483 98.8939 191.366L101.469 203.566C101.469 203.566 116.404 199.945 125.588 200.012C134.76 200.079 136.042 203.722 136.042 203.722C136.042 203.722 135.964 216.279 126.479 219.387C118.432 222.017 114.487 220.446 114.487 220.446C114.487 220.446 104.333 217.827 99.4623 212.491C97.3223 210.151 96.3638 208.714 95.2158 206.43L94.7923 191.734C94.4356 191.455 94.1793 191.266 93.8449 191.043C93.8449 191.043 91.6158 189.138 89.1526 189.138C86.8678 189.138 84.6498 190.007 82.9779 191.31C80.2807 186.118 79.9575 171.801 88.952 162.654Z" fill="#242626"/>
<path d="M123.046 198.553L127.861 195.589L123.615 188.425" stroke="#242626" stroke-width="0.75" stroke-miterlimit="10" stroke-linecap="round" stroke-linejoin="round"/>
<path d="M110.063 187.433L114.744 185.539" stroke="#242626" stroke-miterlimit="10" stroke-linecap="round" stroke-linejoin="round"/>
<path d="M130.035 185.762L134.516 186.408" stroke="#242626" stroke-miterlimit="10" stroke-linecap="round" stroke-linejoin="round"/>
<path d="M112.225 191.511C112.225 192.703 113.195 193.661 114.376 193.661C115.569 193.661 116.527 192.692 116.527 191.511C116.527 190.319 115.558 189.36 114.376 189.36C113.195 189.349 112.225 190.319 112.225 191.511Z" fill="#242626"/>
<path d="M130.292 190.865C130.292 191.89 131.117 192.715 132.142 192.715C133.167 192.715 133.992 191.89 133.992 190.865C133.992 189.84 133.167 189.016 132.142 189.016C131.128 189.016 130.292 189.84 130.292 190.865Z" fill="#242626"/>
<path d="M128.24 205.293C128.251 207.61 126.379 209.493 124.061 209.504C121.742 209.516 119.859 207.644 119.848 205.326L128.24 205.293Z" fill="white"/>
<path d="M90.0561 244.812L118.756 244.188C123.415 244.088 127.104 240.333 127.004 235.799L126.881 230.618C126.781 226.083 122.913 222.496 118.255 222.596L89.5546 223.22C84.8957 223.32 81.2065 227.075 81.3068 231.609L81.4406 236.79C81.5409 241.325 85.3973 244.924 90.0561 244.812Z" fill="#E59236"/>
<path d="M92.5762 244.767L90.5923 244.8V223.197L92.5762 223.152V244.767Z" fill="white"/>
<path d="M98.8945 244.623L96.9106 244.667V223.052L98.8945 223.008V244.623Z" fill="white"/>
<path d="M86.2441 243.987C85.5197 243.653 84.8509 243.23 84.2602 242.717V225.247C84.8621 224.746 85.5085 224.289 86.2441 223.966V243.987Z" fill="white"/>
<path d="M117.887 244.21L115.903 244.255V222.64L117.887 222.596V244.21Z" fill="white"/>
<path d="M105.227 244.489L103.243 244.533V222.919L105.227 222.874V244.489Z" fill="white"/>
<path d="M124.207 242.038C123.616 242.561 122.959 243.018 122.223 243.364V223.498C122.948 223.855 123.627 224.278 124.207 224.813V242.038Z" fill="white"/>
<path d="M111.557 244.344L109.573 244.388V222.774L111.557 222.74V244.344Z" fill="white"/>
<path d="M86.3773 244.612L121.441 244.222" stroke="#242626" stroke-width="0.75" stroke-miterlimit="10" stroke-linecap="round" stroke-linejoin="round"/>
<g clip-path="url(#clip0_375_3257)">
<path d="M239.354 181.348C240.586 174.139 235.748 167.296 228.547 166.062C221.346 164.828 214.509 169.672 213.276 176.88C212.044 184.089 216.883 190.933 224.084 192.166C231.285 193.4 238.121 188.557 239.354 181.348Z" fill="white"/>
<path d="M226.31 192.985C218.666 192.985 212.449 186.762 212.449 179.11C212.449 171.457 218.666 165.234 226.31 165.234C233.955 165.234 240.171 171.457 240.171 179.11C240.171 186.762 233.955 192.985 226.31 192.985ZM226.31 166.499C219.363 166.499 213.712 172.155 213.712 179.11C213.712 186.064 219.363 191.721 226.31 191.721C233.257 191.721 238.908 186.064 238.908 179.11C238.908 172.155 233.257 166.499 226.31 166.499Z" fill="#BFA564"/>
<path d="M207.283 215.505C211.093 211.691 211.093 205.508 207.283 201.694C203.473 197.88 197.296 197.88 193.486 201.694C189.676 205.508 189.676 211.691 193.486 215.505C197.296 219.319 203.473 219.319 207.283 215.505Z" fill="white"/>
<path d="M200.386 218.999C194.661 218.999 190 214.334 190 208.6C190 202.865 194.661 198.203 200.386 198.203C206.114 198.203 210.771 202.869 210.771 208.6C210.771 214.334 206.114 218.999 200.386 218.999ZM200.386 199.467C195.354 199.467 191.263 203.563 191.263 208.6C191.263 213.636 195.354 217.732 200.386 217.732C205.417 217.732 209.508 213.636 209.508 208.6C209.508 203.563 205.417 199.467 200.386 199.467Z" fill="#BFA564"/>
<path d="M289.551 162.437C334.185 162.437 370.369 126.215 370.369 81.5338C370.369 36.8524 334.185 0.630859 289.551 0.630859C244.916 0.630859 208.732 36.8524 208.732 81.5338C208.732 126.215 244.916 162.437 289.551 162.437Z" fill="white"/>
<path d="M289.553 163.07C244.644 163.07 208.105 126.494 208.105 81.5367C208.102 36.5764 244.64 0 289.553 0C334.467 0 371.001 36.5764 371.001 81.5334C371.001 126.494 334.463 163.07 289.553 163.07ZM289.553 1.26416C245.337 1.26416 209.365 37.2742 209.365 81.5334C209.365 125.793 245.337 161.803 289.55 161.803C333.763 161.803 369.735 125.793 369.735 81.5334C369.735 37.2742 333.766 1.26416 289.553 1.26416Z" fill="#BFA564"/>
<path d="M246.418 48C246.247 48 246.109 47.9573 246.002 47.872C245.906 47.776 245.837 47.664 245.794 47.536L242.434 37.28C242.423 37.2267 242.418 37.1787 242.418 37.136C242.418 37.0507 242.45 36.976 242.514 36.912C242.578 36.8373 242.658 36.8 242.754 36.8H244.434C244.594 36.8 244.717 36.848 244.802 36.944C244.898 37.0293 244.957 37.1093 244.978 37.184L247.474 45.008L249.954 37.184C249.986 37.1093 250.045 37.0293 250.13 36.944C250.215 36.848 250.338 36.8 250.498 36.8H252.178C252.274 36.8 252.354 36.8373 252.418 36.912C252.482 36.976 252.514 37.0507 252.514 37.136C252.514 37.1787 252.509 37.2267 252.498 37.28L249.138 47.536C249.106 47.664 249.037 47.776 248.93 47.872C248.834 47.9573 248.695 48 248.514 48H246.418ZM254.081 48C253.975 48 253.884 47.9627 253.809 47.888C253.735 47.8133 253.697 47.7173 253.697 47.6V40.08C253.697 39.9627 253.735 39.8667 253.809 39.792C253.884 39.7173 253.975 39.68 254.081 39.68H255.681C255.799 39.68 255.895 39.7173 255.969 39.792C256.044 39.8667 256.081 39.9627 256.081 40.08V47.6C256.081 47.7173 256.044 47.8133 255.969 47.888C255.895 47.9627 255.799 48 255.681 48H254.081ZM254.033 38.4C253.927 38.4 253.836 38.3627 253.761 38.288C253.687 38.2133 253.649 38.1173 253.649 38V36.72C253.649 36.6027 253.687 36.5067 253.761 36.432C253.836 36.3467 253.927 36.304 254.033 36.304H255.713C255.831 36.304 255.927 36.3467 256.001 36.432C256.087 36.5067 256.129 36.6027 256.129 36.72V38C256.129 38.1173 256.087 38.2133 256.001 38.288C255.927 38.3627 255.831 38.4 255.713 38.4H254.033ZM261.602 48.16C260.941 48.16 260.37 48.0853 259.89 47.936C259.421 47.776 259.037 47.584 258.738 47.36C258.45 47.136 258.232 46.912 258.082 46.688C257.944 46.4533 257.869 46.256 257.858 46.096C257.848 45.9787 257.885 45.8827 257.97 45.808C258.056 45.7333 258.141 45.696 258.226 45.696H259.778C259.81 45.696 259.842 45.7013 259.874 45.712C259.906 45.7227 259.938 45.7493 259.97 45.792C260.109 45.888 260.253 46 260.402 46.128C260.552 46.2453 260.722 46.3467 260.914 46.432C261.117 46.5173 261.368 46.56 261.666 46.56C262.018 46.56 262.317 46.4907 262.562 46.352C262.808 46.2027 262.93 45.9947 262.93 45.728C262.93 45.536 262.872 45.376 262.754 45.248C262.648 45.12 262.44 45.0027 262.13 44.896C261.821 44.7893 261.362 44.672 260.754 44.544C260.178 44.416 259.688 44.2453 259.282 44.032C258.877 43.8187 258.573 43.552 258.37 43.232C258.168 42.9013 258.066 42.5067 258.066 42.048C258.066 41.632 258.194 41.232 258.45 40.848C258.717 40.464 259.106 40.1493 259.618 39.904C260.13 39.648 260.77 39.52 261.538 39.52C262.125 39.52 262.637 39.5947 263.074 39.744C263.522 39.8827 263.896 40.064 264.194 40.288C264.493 40.5013 264.717 40.7253 264.866 40.96C265.026 41.184 265.112 41.3813 265.122 41.552C265.133 41.6587 265.101 41.7493 265.026 41.824C264.952 41.8987 264.866 41.936 264.77 41.936H263.346C263.293 41.936 263.245 41.9307 263.202 41.92C263.16 41.8987 263.122 41.872 263.09 41.84C262.962 41.7547 262.829 41.6587 262.69 41.552C262.562 41.4347 262.408 41.3333 262.226 41.248C262.045 41.1627 261.81 41.12 261.522 41.12C261.17 41.12 260.898 41.2 260.706 41.36C260.525 41.5093 260.434 41.7013 260.434 41.936C260.434 42.0853 260.482 42.224 260.578 42.352C260.674 42.48 260.872 42.5973 261.17 42.704C261.469 42.8107 261.922 42.9227 262.53 43.04C263.256 43.168 263.832 43.36 264.258 43.616C264.685 43.872 264.989 44.1707 265.17 44.512C265.362 44.8427 265.458 45.2 265.458 45.584C265.458 46.0853 265.309 46.5333 265.01 46.928C264.712 47.312 264.274 47.616 263.698 47.84C263.133 48.0533 262.434 48.16 261.602 48.16ZM267.378 48C267.272 48 267.181 47.9627 267.106 47.888C267.032 47.8133 266.994 47.7173 266.994 47.6V40.08C266.994 39.9627 267.032 39.8667 267.106 39.792C267.181 39.7173 267.272 39.68 267.378 39.68H268.978C269.096 39.68 269.192 39.7173 269.266 39.792C269.341 39.8667 269.378 39.9627 269.378 40.08V47.6C269.378 47.7173 269.341 47.8133 269.266 47.888C269.192 47.9627 269.096 48 268.978 48H267.378ZM267.33 38.4C267.224 38.4 267.133 38.3627 267.058 38.288C266.984 38.2133 266.946 38.1173 266.946 38V36.72C266.946 36.6027 266.984 36.5067 267.058 36.432C267.133 36.3467 267.224 36.304 267.33 36.304H269.01C269.128 36.304 269.224 36.3467 269.298 36.432C269.384 36.5067 269.426 36.6027 269.426 36.72V38C269.426 38.1173 269.384 38.2133 269.298 38.288C269.224 38.3627 269.128 38.4 269.01 38.4H267.33ZM275.385 48C274.724 48 274.158 47.8933 273.689 47.68C273.22 47.456 272.862 47.1147 272.617 46.656C272.382 46.1973 272.265 45.6213 272.265 44.928V41.568H271.017C270.9 41.568 270.804 41.5307 270.729 41.456C270.654 41.3813 270.617 41.2853 270.617 41.168V40.08C270.617 39.9627 270.654 39.8667 270.729 39.792C270.804 39.7173 270.9 39.68 271.017 39.68H272.265V37.04C272.265 36.9227 272.302 36.8267 272.377 36.752C272.462 36.6773 272.558 36.64 272.665 36.64H274.233C274.35 36.64 274.446 36.6773 274.521 36.752C274.596 36.8267 274.633 36.9227 274.633 37.04V39.68H276.633C276.74 39.68 276.83 39.7173 276.905 39.792C276.98 39.8667 277.017 39.9627 277.017 40.08V41.168C277.017 41.2853 276.98 41.3813 276.905 41.456C276.83 41.5307 276.74 41.568 276.633 41.568H274.633V44.736C274.633 45.1413 274.702 45.4613 274.841 45.696C274.99 45.92 275.246 46.032 275.609 46.032H276.777C276.884 46.032 276.974 46.0693 277.049 46.144C277.124 46.2187 277.161 46.3093 277.161 46.416V47.6C277.161 47.7173 277.124 47.8133 277.049 47.888C276.974 47.9627 276.884 48 276.777 48H275.385ZM242.53 76C242.434 76 242.354 75.968 242.29 75.904C242.226 75.8293 242.194 75.7493 242.194 75.664C242.194 75.6107 242.199 75.5627 242.21 75.52L246.018 65.232C246.05 65.1147 246.114 65.0133 246.21 64.928C246.306 64.8427 246.439 64.8 246.61 64.8H248.658C248.829 64.8 248.962 64.8427 249.058 64.928C249.154 65.0133 249.218 65.1147 249.25 65.232L253.058 75.52C253.069 75.5627 253.074 75.6107 253.074 75.664C253.074 75.7493 253.042 75.8293 252.978 75.904C252.914 75.968 252.834 76 252.738 76H251.074C250.914 76 250.797 75.9627 250.722 75.888C250.647 75.8133 250.599 75.744 250.578 75.68L249.89 73.888H245.378L244.69 75.68C244.669 75.744 244.621 75.8133 244.546 75.888C244.471 75.9627 244.354 76 244.194 76H242.53ZM245.97 71.824H249.282L247.634 67.216L245.97 71.824ZM254.676 79.04C254.558 79.04 254.462 79.0027 254.388 78.928C254.313 78.8533 254.276 78.7573 254.276 78.64V68.08C254.276 67.9627 254.313 67.8667 254.388 67.792C254.462 67.7173 254.558 67.68 254.676 67.68H256.196C256.313 67.68 256.409 67.7173 256.484 67.792C256.558 67.8667 256.596 67.9627 256.596 68.08V68.688C256.852 68.3467 257.182 68.0693 257.588 67.856C257.993 67.632 258.5 67.52 259.108 67.52C259.662 67.52 260.142 67.6107 260.548 67.792C260.964 67.9627 261.31 68.2133 261.588 68.544C261.876 68.864 262.094 69.2533 262.244 69.712C262.404 70.1707 262.494 70.688 262.516 71.264C262.526 71.4667 262.532 71.6587 262.532 71.84C262.532 72.0213 262.526 72.2187 262.516 72.432C262.505 72.976 262.42 73.4773 262.26 73.936C262.11 74.3947 261.892 74.7893 261.604 75.12C261.316 75.4507 260.964 75.7067 260.548 75.888C260.142 76.0693 259.662 76.16 259.108 76.16C258.564 76.16 258.089 76.064 257.684 75.872C257.289 75.6693 256.964 75.3973 256.708 75.056V78.64C256.708 78.7573 256.67 78.8533 256.596 78.928C256.521 79.0027 256.43 79.04 256.324 79.04H254.676ZM258.388 74.24C258.793 74.24 259.113 74.1547 259.348 73.984C259.582 73.8027 259.748 73.568 259.844 73.28C259.95 72.992 260.014 72.6773 260.036 72.336C260.057 72.0053 260.057 71.6747 260.036 71.344C260.014 71.0027 259.95 70.688 259.844 70.4C259.748 70.112 259.582 69.8827 259.348 69.712C259.113 69.5307 258.793 69.44 258.388 69.44C257.993 69.44 257.673 69.5307 257.428 69.712C257.182 69.8933 257.006 70.1227 256.9 70.4C256.793 70.6773 256.729 70.976 256.708 71.296C256.697 71.488 256.692 71.6853 256.692 71.888C256.692 72.0907 256.697 72.2933 256.708 72.496C256.718 72.7947 256.782 73.0773 256.9 73.344C257.028 73.6 257.209 73.8133 257.444 73.984C257.689 74.1547 258.004 74.24 258.388 74.24ZM266.677 76.16C266.111 76.16 265.605 76.0533 265.157 75.84C264.709 75.616 264.351 75.3173 264.085 74.944C263.818 74.5707 263.685 74.1547 263.685 73.696C263.685 72.9387 263.989 72.3413 264.597 71.904C265.215 71.4667 266.026 71.168 267.029 71.008L269.125 70.704V70.416C269.125 70 269.029 69.68 268.837 69.456C268.645 69.232 268.309 69.12 267.829 69.12C267.477 69.12 267.194 69.1893 266.981 69.328C266.767 69.4667 266.602 69.648 266.485 69.872C266.399 70.0107 266.277 70.08 266.117 70.08H264.597C264.479 70.08 264.389 70.048 264.325 69.984C264.261 69.9093 264.234 69.824 264.245 69.728C264.245 69.5467 264.314 69.3333 264.453 69.088C264.591 68.8427 264.805 68.6027 265.093 68.368C265.381 68.1227 265.749 67.92 266.197 67.76C266.645 67.6 267.194 67.52 267.845 67.52C268.517 67.52 269.093 67.6 269.573 67.76C270.053 67.92 270.437 68.144 270.725 68.432C271.013 68.72 271.226 69.056 271.365 69.44C271.503 69.8133 271.573 70.2187 271.573 70.656V75.6C271.573 75.7173 271.535 75.8133 271.461 75.888C271.386 75.9627 271.29 76 271.173 76H269.605C269.498 76 269.407 75.9627 269.333 75.888C269.258 75.8133 269.221 75.7173 269.221 75.6V75.008C269.082 75.2107 268.895 75.4027 268.661 75.584C268.426 75.7547 268.143 75.8933 267.813 76C267.493 76.1067 267.114 76.16 266.677 76.16ZM267.317 74.496C267.669 74.496 267.983 74.4213 268.261 74.272C268.538 74.1227 268.757 73.8933 268.917 73.584C269.077 73.2747 269.157 72.8853 269.157 72.416V72.144L267.669 72.384C267.093 72.48 266.671 72.624 266.405 72.816C266.138 73.008 266.005 73.2427 266.005 73.52C266.005 73.7227 266.063 73.8987 266.181 74.048C266.309 74.1973 266.474 74.3093 266.677 74.384C266.879 74.4587 267.093 74.496 267.317 74.496ZM273.894 76C273.787 76 273.697 75.9627 273.622 75.888C273.547 75.8133 273.51 75.7173 273.51 75.6V68.08C273.51 67.9733 273.547 67.8827 273.622 67.808C273.697 67.7227 273.787 67.68 273.894 67.68H275.462C275.569 67.68 275.659 67.7227 275.734 67.808C275.819 67.8827 275.862 67.9733 275.862 68.08V68.72C276.129 68.3893 276.454 68.1333 276.838 67.952C277.233 67.7707 277.686 67.68 278.198 67.68H278.886C278.993 67.68 279.083 67.7173 279.158 67.792C279.233 67.8667 279.27 67.9627 279.27 68.08V69.456C279.27 69.5733 279.233 69.6693 279.158 69.744C279.083 69.8187 278.993 69.856 278.886 69.856H277.478C277.009 69.856 276.641 69.9893 276.374 70.256C276.107 70.512 275.974 70.88 275.974 71.36V75.6C275.974 75.7173 275.937 75.8133 275.862 75.888C275.787 75.9627 275.691 76 275.574 76H273.894ZM284.463 76C283.802 76 283.236 75.8933 282.767 75.68C282.298 75.456 281.94 75.1147 281.695 74.656C281.46 74.1973 281.343 73.6213 281.343 72.928V69.568H280.095C279.978 69.568 279.882 69.5307 279.807 69.456C279.732 69.3813 279.695 69.2853 279.695 69.168V68.08C279.695 67.9627 279.732 67.8667 279.807 67.792C279.882 67.7173 279.978 67.68 280.095 67.68H281.343V65.04C281.343 64.9227 281.38 64.8267 281.455 64.752C281.54 64.6773 281.636 64.64 281.743 64.64H283.311C283.428 64.64 283.524 64.6773 283.599 64.752C283.674 64.8267 283.711 64.9227 283.711 65.04V67.68H285.711C285.818 67.68 285.908 67.7173 285.983 67.792C286.058 67.8667 286.095 67.9627 286.095 68.08V69.168C286.095 69.2853 286.058 69.3813 285.983 69.456C285.908 69.5307 285.818 69.568 285.711 69.568H283.711V72.736C283.711 73.1413 283.78 73.4613 283.919 73.696C284.068 73.92 284.324 74.032 284.687 74.032H285.855C285.962 74.032 286.052 74.0693 286.127 74.144C286.202 74.2187 286.239 74.3093 286.239 74.416V75.6C286.239 75.7173 286.202 75.8133 286.127 75.888C286.052 75.9627 285.962 76 285.855 76H284.463ZM288.019 76C287.912 76 287.822 75.9627 287.747 75.888C287.672 75.8133 287.635 75.7173 287.635 75.6V68.08C287.635 67.9627 287.672 67.8667 287.747 67.792C287.822 67.7173 287.912 67.68 288.019 67.68H289.507C289.614 67.68 289.704 67.7173 289.779 67.792C289.864 67.8667 289.907 67.9627 289.907 68.08V68.624C290.12 68.3253 290.414 68.0693 290.787 67.856C291.171 67.6427 291.624 67.5307 292.147 67.52C293.384 67.4987 294.232 67.968 294.691 68.928C294.936 68.512 295.288 68.176 295.747 67.92C296.216 67.6533 296.728 67.52 297.283 67.52C297.838 67.52 298.339 67.648 298.787 67.904C299.235 68.1493 299.587 68.5333 299.843 69.056C300.11 69.568 300.243 70.2293 300.243 71.04V75.6C300.243 75.7173 300.206 75.8133 300.131 75.888C300.056 75.9627 299.966 76 299.859 76H298.275C298.168 76 298.078 75.9627 298.003 75.888C297.928 75.8133 297.891 75.7173 297.891 75.6V71.168C297.891 70.7307 297.827 70.3893 297.699 70.144C297.571 69.888 297.4 69.7067 297.187 69.6C296.984 69.4933 296.755 69.44 296.499 69.44C296.275 69.44 296.056 69.4933 295.843 69.6C295.64 69.7067 295.47 69.888 295.331 70.144C295.203 70.3893 295.139 70.7307 295.139 71.168V75.6C295.139 75.7173 295.102 75.8133 295.027 75.888C294.952 75.9627 294.856 76 294.739 76H293.171C293.054 76 292.958 75.9627 292.883 75.888C292.808 75.8133 292.771 75.7173 292.771 75.6V71.168C292.771 70.7307 292.707 70.3893 292.579 70.144C292.451 69.888 292.28 69.7067 292.067 69.6C291.864 69.4933 291.64 69.44 291.395 69.44C291.171 69.44 290.952 69.4987 290.739 69.616C290.526 69.7227 290.35 69.8987 290.211 70.144C290.083 70.3893 290.019 70.7253 290.019 71.152V75.6C290.019 75.7173 289.982 75.8133 289.907 75.888C289.832 75.9627 289.742 76 289.635 76H288.019ZM305.894 76.16C304.667 76.16 303.691 75.8187 302.966 75.136C302.251 74.4533 301.872 73.4613 301.83 72.16C301.83 72.0747 301.83 71.9627 301.83 71.824C301.83 71.6747 301.83 71.5573 301.83 71.472C301.872 70.6507 302.059 69.9467 302.39 69.36C302.72 68.7627 303.184 68.3093 303.782 68C304.379 67.68 305.078 67.52 305.878 67.52C306.774 67.52 307.52 67.7067 308.118 68.08C308.726 68.4427 309.179 68.944 309.478 69.584C309.787 70.2133 309.942 70.9387 309.942 71.76V72.128C309.942 72.2347 309.899 72.3253 309.814 72.4C309.739 72.4747 309.648 72.512 309.542 72.512H304.31C304.31 72.5227 304.31 72.544 304.31 72.576C304.31 72.5973 304.31 72.6187 304.31 72.64C304.32 72.9813 304.384 73.296 304.502 73.584C304.63 73.8613 304.806 74.0853 305.03 74.256C305.264 74.4267 305.542 74.512 305.862 74.512C306.128 74.512 306.347 74.4747 306.518 74.4C306.688 74.3253 306.827 74.2347 306.934 74.128C307.051 74.0213 307.136 73.9307 307.19 73.856C307.286 73.7493 307.36 73.6853 307.414 73.664C307.478 73.632 307.574 73.616 307.702 73.616H309.366C309.472 73.616 309.558 73.648 309.622 73.712C309.696 73.7653 309.728 73.8453 309.718 73.952C309.707 74.1227 309.616 74.336 309.446 74.592C309.286 74.8373 309.046 75.0827 308.726 75.328C308.406 75.5627 308.006 75.76 307.526 75.92C307.056 76.08 306.512 76.16 305.894 76.16ZM304.31 71.056H307.446V71.024C307.446 70.64 307.382 70.3093 307.254 70.032C307.136 69.744 306.96 69.52 306.726 69.36C306.491 69.2 306.208 69.12 305.878 69.12C305.547 69.12 305.264 69.2 305.03 69.36C304.795 69.52 304.614 69.744 304.486 70.032C304.368 70.3093 304.31 70.64 304.31 71.024V71.056ZM311.925 76C311.819 76 311.728 75.9627 311.653 75.888C311.579 75.8133 311.541 75.7173 311.541 75.6V68.08C311.541 67.9627 311.579 67.8667 311.653 67.792C311.728 67.7173 311.819 67.68 311.925 67.68H313.493C313.611 67.68 313.707 67.7173 313.781 67.792C313.856 67.8667 313.893 67.9627 313.893 68.08V68.704C314.171 68.3627 314.528 68.08 314.965 67.856C315.403 67.632 315.936 67.52 316.565 67.52C317.195 67.52 317.744 67.664 318.213 67.952C318.693 68.2293 319.067 68.64 319.333 69.184C319.611 69.7173 319.749 70.368 319.749 71.136V75.6C319.749 75.7173 319.707 75.8133 319.621 75.888C319.547 75.9627 319.456 76 319.349 76H317.653C317.536 76 317.44 75.9627 317.365 75.888C317.291 75.8133 317.253 75.7173 317.253 75.6V71.232C317.253 70.6667 317.115 70.2293 316.837 69.92C316.571 69.6 316.176 69.44 315.653 69.44C315.152 69.44 314.752 69.6 314.453 69.92C314.155 70.2293 314.005 70.6667 314.005 71.232V75.6C314.005 75.7173 313.968 75.8133 313.893 75.888C313.819 75.9627 313.728 76 313.621 76H311.925ZM325.572 76C324.911 76 324.346 75.8933 323.876 75.68C323.407 75.456 323.05 75.1147 322.804 74.656C322.57 74.1973 322.452 73.6213 322.452 72.928V69.568H321.204C321.087 69.568 320.991 69.5307 320.916 69.456C320.842 69.3813 320.804 69.2853 320.804 69.168V68.08C320.804 67.9627 320.842 67.8667 320.916 67.792C320.991 67.7173 321.087 67.68 321.204 67.68H322.452V65.04C322.452 64.9227 322.49 64.8267 322.564 64.752C322.65 64.6773 322.746 64.64 322.852 64.64H324.42C324.538 64.64 324.634 64.6773 324.708 64.752C324.783 64.8267 324.82 64.9227 324.82 65.04V67.68H326.82C326.927 67.68 327.018 67.7173 327.092 67.792C327.167 67.8667 327.204 67.9627 327.204 68.08V69.168C327.204 69.2853 327.167 69.3813 327.092 69.456C327.018 69.5307 326.927 69.568 326.82 69.568H324.82V72.736C324.82 73.1413 324.89 73.4613 325.028 73.696C325.178 73.92 325.434 74.032 325.796 74.032H326.964C327.071 74.032 327.162 74.0693 327.236 74.144C327.311 74.2187 327.348 74.3093 327.348 74.416V75.6C327.348 75.7173 327.311 75.8133 327.236 75.888C327.162 75.9627 327.071 76 326.964 76H325.572ZM245.01 104C244.839 104 244.701 103.952 244.594 103.856C244.498 103.76 244.439 103.643 244.418 103.504L242.594 93.248C242.583 93.2267 242.578 93.2053 242.578 93.184C242.578 93.1627 242.578 93.1467 242.578 93.136C242.578 93.0507 242.61 92.976 242.674 92.912C242.738 92.8373 242.818 92.8 242.914 92.8H244.594C244.871 92.8 245.026 92.912 245.058 93.136L246.258 99.904L247.554 95.696C247.586 95.6107 247.639 95.52 247.714 95.424C247.789 95.328 247.911 95.28 248.082 95.28H249.09C249.261 95.28 249.383 95.328 249.458 95.424C249.533 95.52 249.581 95.6107 249.602 95.696L250.914 99.888L252.098 93.136C252.13 92.912 252.29 92.8 252.578 92.8H254.258C254.354 92.8 254.434 92.8373 254.498 92.912C254.562 92.976 254.594 93.0507 254.594 93.136C254.594 93.1467 254.594 93.1627 254.594 93.184C254.594 93.2053 254.589 93.2267 254.578 93.248L252.754 103.504C252.733 103.643 252.669 103.76 252.562 103.856C252.466 103.952 252.333 104 252.162 104H250.866C250.695 104 250.562 103.957 250.466 103.872C250.381 103.776 250.322 103.68 250.29 103.584L248.578 98.624L246.882 103.584C246.85 103.68 246.786 103.776 246.69 103.872C246.605 103.957 246.471 104 246.29 104H245.01ZM256.566 104C256.459 104 256.368 103.963 256.294 103.888C256.219 103.813 256.182 103.717 256.182 103.6V96.08C256.182 95.9627 256.219 95.8667 256.294 95.792C256.368 95.7173 256.459 95.68 256.566 95.68H258.166C258.283 95.68 258.379 95.7173 258.454 95.792C258.528 95.8667 258.566 95.9627 258.566 96.08V103.6C258.566 103.717 258.528 103.813 258.454 103.888C258.379 103.963 258.283 104 258.166 104H256.566ZM256.518 94.4C256.411 94.4 256.32 94.3627 256.246 94.288C256.171 94.2133 256.134 94.1173 256.134 94V92.72C256.134 92.6027 256.171 92.5067 256.246 92.432C256.32 92.3467 256.411 92.304 256.518 92.304H258.198C258.315 92.304 258.411 92.3467 258.486 92.432C258.571 92.5067 258.614 92.6027 258.614 92.72V94C258.614 94.1173 258.571 94.2133 258.486 94.288C258.411 94.3627 258.315 94.4 258.198 94.4H256.518ZM264.572 104C263.911 104 263.346 103.893 262.876 103.68C262.407 103.456 262.05 103.115 261.804 102.656C261.57 102.197 261.452 101.621 261.452 100.928V97.568H260.204C260.087 97.568 259.991 97.5307 259.916 97.456C259.842 97.3813 259.804 97.2853 259.804 97.168V96.08C259.804 95.9627 259.842 95.8667 259.916 95.792C259.991 95.7173 260.087 95.68 260.204 95.68H261.452V93.04C261.452 92.9227 261.49 92.8267 261.564 92.752C261.65 92.6773 261.746 92.64 261.852 92.64H263.42C263.538 92.64 263.634 92.6773 263.708 92.752C263.783 92.8267 263.82 92.9227 263.82 93.04V95.68H265.82C265.927 95.68 266.018 95.7173 266.092 95.792C266.167 95.8667 266.204 95.9627 266.204 96.08V97.168C266.204 97.2853 266.167 97.3813 266.092 97.456C266.018 97.5307 265.927 97.568 265.82 97.568H263.82V100.736C263.82 101.141 263.89 101.461 264.028 101.696C264.178 101.92 264.434 102.032 264.796 102.032H265.964C266.071 102.032 266.162 102.069 266.236 102.144C266.311 102.219 266.348 102.309 266.348 102.416V103.6C266.348 103.717 266.311 103.813 266.236 103.888C266.162 103.963 266.071 104 265.964 104H264.572ZM268.144 104C268.027 104 267.931 103.963 267.856 103.888C267.782 103.813 267.744 103.717 267.744 103.6V93.04C267.744 92.9227 267.782 92.8267 267.856 92.752C267.931 92.6773 268.027 92.64 268.144 92.64H269.872C269.979 92.64 270.07 92.6773 270.144 92.752C270.219 92.8267 270.256 92.9227 270.256 93.04V96.64C270.544 96.2987 270.896 96.0267 271.312 95.824C271.728 95.6213 272.23 95.52 272.816 95.52C273.446 95.52 274 95.664 274.48 95.952C274.971 96.2293 275.355 96.64 275.632 97.184C275.91 97.7173 276.048 98.368 276.048 99.136V103.6C276.048 103.717 276.011 103.813 275.936 103.888C275.862 103.963 275.766 104 275.648 104H273.904C273.798 104 273.707 103.963 273.632 103.888C273.558 103.813 273.52 103.717 273.52 103.6V99.232C273.52 98.6667 273.382 98.2293 273.104 97.92C272.827 97.6 272.432 97.44 271.92 97.44C271.419 97.44 271.014 97.6 270.704 97.92C270.406 98.2293 270.256 98.6667 270.256 99.232V103.6C270.256 103.717 270.219 103.813 270.144 103.888C270.07 103.963 269.979 104 269.872 104H268.144ZM281.771 104.16C280.886 104.16 280.144 104.016 279.547 103.728C278.95 103.429 278.491 103.008 278.171 102.464C277.862 101.92 277.691 101.285 277.659 100.56C277.648 100.347 277.643 100.107 277.643 99.84C277.643 99.5627 277.648 99.3227 277.659 99.12C277.691 98.384 277.872 97.7493 278.203 97.216C278.534 96.672 278.998 96.256 279.595 95.968C280.192 95.6693 280.918 95.52 281.771 95.52C282.614 95.52 283.334 95.6693 283.931 95.968C284.528 96.256 284.992 96.672 285.323 97.216C285.654 97.7493 285.835 98.384 285.867 99.12C285.888 99.3227 285.899 99.5627 285.899 99.84C285.899 100.107 285.888 100.347 285.867 100.56C285.835 101.285 285.659 101.92 285.339 102.464C285.03 103.008 284.576 103.429 283.979 103.728C283.382 104.016 282.646 104.16 281.771 104.16ZM281.771 102.4C282.294 102.4 282.688 102.24 282.955 101.92C283.222 101.589 283.366 101.109 283.387 100.48C283.398 100.32 283.403 100.107 283.403 99.84C283.403 99.5733 283.398 99.36 283.387 99.2C283.366 98.5813 283.222 98.1067 282.955 97.776C282.688 97.4453 282.294 97.28 281.771 97.28C281.248 97.28 280.848 97.4453 280.571 97.776C280.304 98.1067 280.16 98.5813 280.139 99.2C280.128 99.36 280.123 99.5733 280.123 99.84C280.123 100.107 280.128 100.32 280.139 100.48C280.16 101.109 280.304 101.589 280.571 101.92C280.848 102.24 281.248 102.4 281.771 102.4ZM290.628 104.16C290.01 104.16 289.46 104.021 288.98 103.744C288.511 103.456 288.143 103.045 287.876 102.512C287.62 101.968 287.492 101.312 287.492 100.544V96.08C287.492 95.9627 287.53 95.8667 287.604 95.792C287.679 95.7173 287.77 95.68 287.876 95.68H289.572C289.69 95.68 289.786 95.7173 289.86 95.792C289.935 95.8667 289.972 95.9627 289.972 96.08V100.448C289.972 101.643 290.495 102.24 291.54 102.24C292.042 102.24 292.436 102.085 292.724 101.776C293.023 101.456 293.172 101.013 293.172 100.448V96.08C293.172 95.9627 293.21 95.8667 293.284 95.792C293.359 95.7173 293.455 95.68 293.572 95.68H295.268C295.375 95.68 295.466 95.7173 295.54 95.792C295.615 95.8667 295.652 95.9627 295.652 96.08V103.6C295.652 103.717 295.615 103.813 295.54 103.888C295.466 103.963 295.375 104 295.268 104H293.7C293.583 104 293.487 103.963 293.412 103.888C293.338 103.813 293.3 103.717 293.3 103.6V102.976C293.023 103.36 292.666 103.653 292.228 103.856C291.791 104.059 291.258 104.16 290.628 104.16ZM301.666 104C301.005 104 300.44 103.893 299.97 103.68C299.501 103.456 299.144 103.115 298.898 102.656C298.664 102.197 298.546 101.621 298.546 100.928V97.568H297.298C297.181 97.568 297.085 97.5307 297.01 97.456C296.936 97.3813 296.898 97.2853 296.898 97.168V96.08C296.898 95.9627 296.936 95.8667 297.01 95.792C297.085 95.7173 297.181 95.68 297.298 95.68H298.546V93.04C298.546 92.9227 298.584 92.8267 298.658 92.752C298.744 92.6773 298.84 92.64 298.946 92.64H300.514C300.632 92.64 300.728 92.6773 300.802 92.752C300.877 92.8267 300.914 92.9227 300.914 93.04V95.68H302.914C303.021 95.68 303.112 95.7173 303.186 95.792C303.261 95.8667 303.298 95.9627 303.298 96.08V97.168C303.298 97.2853 303.261 97.3813 303.186 97.456C303.112 97.5307 303.021 97.568 302.914 97.568H300.914V100.736C300.914 101.141 300.984 101.461 301.122 101.696C301.272 101.92 301.528 102.032 301.89 102.032H303.058C303.165 102.032 303.256 102.069 303.33 102.144C303.405 102.219 303.442 102.309 303.442 102.416V103.6C303.442 103.717 303.405 103.813 303.33 103.888C303.256 103.963 303.165 104 303.058 104H301.666ZM307.483 104C307.387 104 307.307 103.968 307.243 103.904C307.179 103.829 307.147 103.749 307.147 103.664C307.147 103.611 307.152 103.563 307.163 103.52L310.971 93.232C311.003 93.1147 311.067 93.0133 311.163 92.928C311.259 92.8427 311.392 92.8 311.563 92.8H313.611C313.782 92.8 313.915 92.8427 314.011 92.928C314.107 93.0133 314.171 93.1147 314.203 93.232L318.011 103.52C318.022 103.563 318.027 103.611 318.027 103.664C318.027 103.749 317.995 103.829 317.931 103.904C317.867 103.968 317.787 104 317.691 104H316.027C315.867 104 315.75 103.963 315.675 103.888C315.6 103.813 315.552 103.744 315.531 103.68L314.843 101.888H310.331L309.643 103.68C309.622 103.744 309.574 103.813 309.499 103.888C309.424 103.963 309.307 104 309.147 104H307.483ZM310.923 99.824H314.235L312.587 95.216L310.923 99.824ZM319.613 104C319.506 104 319.415 103.963 319.341 103.888C319.266 103.813 319.229 103.717 319.229 103.6V96.08C319.229 95.9627 319.266 95.8667 319.341 95.792C319.415 95.7173 319.506 95.68 319.613 95.68H321.181C321.298 95.68 321.394 95.7173 321.469 95.792C321.543 95.8667 321.581 95.9627 321.581 96.08V96.704C321.858 96.3627 322.215 96.08 322.653 95.856C323.09 95.632 323.623 95.52 324.253 95.52C324.882 95.52 325.431 95.664 325.901 95.952C326.381 96.2293 326.754 96.64 327.021 97.184C327.298 97.7173 327.437 98.368 327.437 99.136V103.6C327.437 103.717 327.394 103.813 327.309 103.888C327.234 103.963 327.143 104 327.037 104H325.341C325.223 104 325.127 103.963 325.053 103.888C324.978 103.813 324.941 103.717 324.941 103.6V99.232C324.941 98.6667 324.802 98.2293 324.525 97.92C324.258 97.6 323.863 97.44 323.341 97.44C322.839 97.44 322.439 97.6 322.141 97.92C321.842 98.2293 321.693 98.6667 321.693 99.232V103.6C321.693 103.717 321.655 103.813 321.581 103.888C321.506 103.963 321.415 104 321.309 104H319.613ZM330.592 107.04C330.507 107.04 330.427 107.008 330.352 106.944C330.288 106.88 330.256 106.8 330.256 106.704C330.256 106.683 330.262 106.651 330.272 106.608C330.283 106.576 330.299 106.533 330.32 106.48L331.568 103.488L328.496 96.24C328.464 96.1547 328.448 96.0853 328.448 96.032C328.459 95.936 328.496 95.856 328.56 95.792C328.624 95.7173 328.704 95.68 328.8 95.68H330.352C330.491 95.68 330.592 95.7173 330.656 95.792C330.72 95.856 330.768 95.9253 330.8 96L332.784 100.96L334.816 96C334.859 95.9147 334.912 95.84 334.976 95.776C335.04 95.712 335.142 95.68 335.28 95.68H336.8C336.896 95.68 336.976 95.7173 337.04 95.792C337.115 95.856 337.152 95.9307 337.152 96.016C337.152 96.0693 337.131 96.144 337.088 96.24L332.56 106.72C332.528 106.805 332.475 106.88 332.4 106.944C332.336 107.008 332.235 107.04 332.096 107.04H330.592ZM243.586 132C243.469 132 243.373 131.963 243.298 131.888C243.223 131.813 243.186 131.717 243.186 131.6V121.2C243.186 121.083 243.223 120.987 243.298 120.912C243.373 120.837 243.469 120.8 243.586 120.8H245.33C245.447 120.8 245.543 120.837 245.618 120.912C245.693 120.987 245.73 121.083 245.73 121.2V125.2H250.066V121.2C250.066 121.083 250.103 120.987 250.178 120.912C250.253 120.837 250.349 120.8 250.466 120.8H252.21C252.327 120.8 252.423 120.837 252.498 120.912C252.573 120.987 252.61 121.083 252.61 121.2V131.6C252.61 131.717 252.573 131.813 252.498 131.888C252.423 131.963 252.327 132 252.21 132H250.466C250.349 132 250.253 131.963 250.178 131.888C250.103 131.813 250.066 131.717 250.066 131.6V127.472H245.73V131.6C245.73 131.717 245.693 131.813 245.618 131.888C245.543 131.963 245.447 132 245.33 132H243.586ZM257.863 132.16C257.244 132.16 256.695 132.021 256.215 131.744C255.745 131.456 255.377 131.045 255.111 130.512C254.855 129.968 254.727 129.312 254.727 128.544V124.08C254.727 123.963 254.764 123.867 254.839 123.792C254.913 123.717 255.004 123.68 255.111 123.68H256.807C256.924 123.68 257.02 123.717 257.095 123.792C257.169 123.867 257.207 123.963 257.207 124.08V128.448C257.207 129.643 257.729 130.24 258.775 130.24C259.276 130.24 259.671 130.085 259.959 129.776C260.257 129.456 260.407 129.013 260.407 128.448V124.08C260.407 123.963 260.444 123.867 260.519 123.792C260.593 123.717 260.689 123.68 260.807 123.68H262.503C262.609 123.68 262.7 123.717 262.775 123.792C262.849 123.867 262.887 123.963 262.887 124.08V131.6C262.887 131.717 262.849 131.813 262.775 131.888C262.7 131.963 262.609 132 262.503 132H260.935C260.817 132 260.721 131.963 260.647 131.888C260.572 131.813 260.535 131.717 260.535 131.6V130.976C260.257 131.36 259.9 131.653 259.463 131.856C259.025 132.059 258.492 132.16 257.863 132.16ZM268.181 132.16C267.519 132.16 266.949 132.085 266.469 131.936C265.999 131.776 265.615 131.584 265.317 131.36C265.029 131.136 264.81 130.912 264.661 130.688C264.522 130.453 264.447 130.256 264.437 130.096C264.426 129.979 264.463 129.883 264.549 129.808C264.634 129.733 264.719 129.696 264.805 129.696H266.357C266.389 129.696 266.421 129.701 266.453 129.712C266.485 129.723 266.517 129.749 266.549 129.792C266.687 129.888 266.831 130 266.981 130.128C267.13 130.245 267.301 130.347 267.493 130.432C267.695 130.517 267.946 130.56 268.245 130.56C268.597 130.56 268.895 130.491 269.141 130.352C269.386 130.203 269.509 129.995 269.509 129.728C269.509 129.536 269.45 129.376 269.333 129.248C269.226 129.12 269.018 129.003 268.709 128.896C268.399 128.789 267.941 128.672 267.333 128.544C266.757 128.416 266.266 128.245 265.861 128.032C265.455 127.819 265.151 127.552 264.949 127.232C264.746 126.901 264.645 126.507 264.645 126.048C264.645 125.632 264.773 125.232 265.029 124.848C265.295 124.464 265.685 124.149 266.197 123.904C266.709 123.648 267.349 123.52 268.117 123.52C268.703 123.52 269.215 123.595 269.653 123.744C270.101 123.883 270.474 124.064 270.773 124.288C271.071 124.501 271.295 124.725 271.445 124.96C271.605 125.184 271.69 125.381 271.701 125.552C271.711 125.659 271.679 125.749 271.605 125.824C271.53 125.899 271.445 125.936 271.349 125.936H269.925C269.871 125.936 269.823 125.931 269.781 125.92C269.738 125.899 269.701 125.872 269.669 125.84C269.541 125.755 269.407 125.659 269.269 125.552C269.141 125.435 268.986 125.333 268.805 125.248C268.623 125.163 268.389 125.12 268.101 125.12C267.749 125.12 267.477 125.2 267.285 125.36C267.103 125.509 267.013 125.701 267.013 125.936C267.013 126.085 267.061 126.224 267.157 126.352C267.253 126.48 267.45 126.597 267.749 126.704C268.047 126.811 268.501 126.923 269.109 127.04C269.834 127.168 270.41 127.36 270.837 127.616C271.263 127.872 271.567 128.171 271.749 128.512C271.941 128.843 272.037 129.2 272.037 129.584C272.037 130.085 271.887 130.533 271.589 130.928C271.29 131.312 270.853 131.616 270.277 131.84C269.711 132.053 269.013 132.16 268.181 132.16ZM276.852 132.16C276.191 132.16 275.62 132.085 275.14 131.936C274.671 131.776 274.287 131.584 273.988 131.36C273.7 131.136 273.482 130.912 273.332 130.688C273.194 130.453 273.119 130.256 273.108 130.096C273.098 129.979 273.135 129.883 273.22 129.808C273.306 129.733 273.391 129.696 273.476 129.696H275.028C275.06 129.696 275.092 129.701 275.124 129.712C275.156 129.723 275.188 129.749 275.22 129.792C275.359 129.888 275.503 130 275.652 130.128C275.802 130.245 275.972 130.347 276.164 130.432C276.367 130.517 276.618 130.56 276.916 130.56C277.268 130.56 277.567 130.491 277.812 130.352C278.058 130.203 278.18 129.995 278.18 129.728C278.18 129.536 278.122 129.376 278.004 129.248C277.898 129.12 277.69 129.003 277.38 128.896C277.071 128.789 276.612 128.672 276.004 128.544C275.428 128.416 274.938 128.245 274.532 128.032C274.127 127.819 273.823 127.552 273.62 127.232C273.418 126.901 273.316 126.507 273.316 126.048C273.316 125.632 273.444 125.232 273.7 124.848C273.967 124.464 274.356 124.149 274.868 123.904C275.38 123.648 276.02 123.52 276.788 123.52C277.375 123.52 277.887 123.595 278.324 123.744C278.772 123.883 279.146 124.064 279.444 124.288C279.743 124.501 279.967 124.725 280.116 124.96C280.276 125.184 280.362 125.381 280.372 125.552C280.383 125.659 280.351 125.749 280.276 125.824C280.202 125.899 280.116 125.936 280.02 125.936H278.596C278.543 125.936 278.495 125.931 278.452 125.92C278.41 125.899 278.372 125.872 278.34 125.84C278.212 125.755 278.079 125.659 277.94 125.552C277.812 125.435 277.658 125.333 277.476 125.248C277.295 125.163 277.06 125.12 276.772 125.12C276.42 125.12 276.148 125.2 275.956 125.36C275.775 125.509 275.684 125.701 275.684 125.936C275.684 126.085 275.732 126.224 275.828 126.352C275.924 126.48 276.122 126.597 276.42 126.704C276.719 126.811 277.172 126.923 277.78 127.04C278.506 127.168 279.082 127.36 279.508 127.616C279.935 127.872 280.239 128.171 280.42 128.512C280.612 128.843 280.708 129.2 280.708 129.584C280.708 130.085 280.559 130.533 280.26 130.928C279.962 131.312 279.524 131.616 278.948 131.84C278.383 132.053 277.684 132.16 276.852 132.16ZM286.213 132C285.552 132 284.986 131.893 284.517 131.68C284.048 131.456 283.69 131.115 283.445 130.656C283.21 130.197 283.093 129.621 283.093 128.928V125.568H281.845C281.728 125.568 281.632 125.531 281.557 125.456C281.482 125.381 281.445 125.285 281.445 125.168V124.08C281.445 123.963 281.482 123.867 281.557 123.792C281.632 123.717 281.728 123.68 281.845 123.68H283.093V121.04C283.093 120.923 283.13 120.827 283.205 120.752C283.29 120.677 283.386 120.64 283.493 120.64H285.061C285.178 120.64 285.274 120.677 285.349 120.752C285.424 120.827 285.461 120.923 285.461 121.04V123.68H287.461C287.568 123.68 287.658 123.717 287.733 123.792C287.808 123.867 287.845 123.963 287.845 124.08V125.168C287.845 125.285 287.808 125.381 287.733 125.456C287.658 125.531 287.568 125.568 287.461 125.568H285.461V128.736C285.461 129.141 285.53 129.461 285.669 129.696C285.818 129.92 286.074 130.032 286.437 130.032H287.605C287.712 130.032 287.802 130.069 287.877 130.144C287.952 130.219 287.989 130.309 287.989 130.416V131.6C287.989 131.717 287.952 131.813 287.877 131.888C287.802 131.963 287.712 132 287.605 132H286.213ZM289.785 132C289.668 132 289.572 131.963 289.497 131.888C289.422 131.813 289.385 131.717 289.385 131.6V121.04C289.385 120.923 289.422 120.827 289.497 120.752C289.572 120.677 289.668 120.64 289.785 120.64H291.385C291.492 120.64 291.582 120.677 291.657 120.752C291.732 120.827 291.769 120.923 291.769 121.04V131.6C291.769 131.717 291.732 131.813 291.657 131.888C291.582 131.963 291.492 132 291.385 132H289.785ZM297.503 132.16C296.277 132.16 295.301 131.819 294.575 131.136C293.861 130.453 293.482 129.461 293.439 128.16C293.439 128.075 293.439 127.963 293.439 127.824C293.439 127.675 293.439 127.557 293.439 127.472C293.482 126.651 293.669 125.947 293.999 125.36C294.33 124.763 294.794 124.309 295.391 124C295.989 123.68 296.687 123.52 297.487 123.52C298.383 123.52 299.13 123.707 299.727 124.08C300.335 124.443 300.789 124.944 301.087 125.584C301.397 126.213 301.551 126.939 301.551 127.76V128.128C301.551 128.235 301.509 128.325 301.423 128.4C301.349 128.475 301.258 128.512 301.151 128.512H295.919C295.919 128.523 295.919 128.544 295.919 128.576C295.919 128.597 295.919 128.619 295.919 128.64C295.93 128.981 295.994 129.296 296.111 129.584C296.239 129.861 296.415 130.085 296.639 130.256C296.874 130.427 297.151 130.512 297.471 130.512C297.738 130.512 297.957 130.475 298.127 130.4C298.298 130.325 298.437 130.235 298.543 130.128C298.661 130.021 298.746 129.931 298.799 129.856C298.895 129.749 298.97 129.685 299.023 129.664C299.087 129.632 299.183 129.616 299.311 129.616H300.975C301.082 129.616 301.167 129.648 301.231 129.712C301.306 129.765 301.338 129.845 301.327 129.952C301.317 130.123 301.226 130.336 301.055 130.592C300.895 130.837 300.655 131.083 300.335 131.328C300.015 131.563 299.615 131.76 299.135 131.92C298.666 132.08 298.122 132.16 297.503 132.16ZM295.919 127.056H299.055V127.024C299.055 126.64 298.991 126.309 298.863 126.032C298.746 125.744 298.57 125.52 298.335 125.36C298.101 125.2 297.818 125.12 297.487 125.12C297.157 125.12 296.874 125.2 296.639 125.36C296.405 125.52 296.223 125.744 296.095 126.032C295.978 126.309 295.919 126.64 295.919 127.024V127.056Z" fill="black"/>
</g>
<defs>
<clipPath id="clip0_375_3257">
<rect width="181" height="219" fill="white" transform="translate(190)"/>
</clipPath>
</defs>
</svg>
