<svg width="24" height="24" viewBox="0 0 24 24" fill="none" xmlns="http://www.w3.org/2000/svg">
<path d="M12 24C18.616 24 24 18.616 24 12C24 5.38401 18.6161 0 12 0C5.38394 0 0 5.38401 0 12C0 18.616 5.38401 24 12 24ZM12 1.59997C17.736 1.59997 22.4 6.26396 22.4 12C22.4 17.736 17.736 22.4 12 22.4C6.26396 22.4 1.59997 17.736 1.59997 12C1.59997 6.26396 6.26402 1.59997 12 1.59997Z" fill="#51AB86"/>
<path d="M15.5002 15.8238C15.6482 15.9438 15.8242 15.9998 16.0002 15.9998C16.2362 15.9998 16.4682 15.8958 16.6242 15.6998C16.9002 15.3558 16.8441 14.8518 16.5002 14.5758L12.8002 11.6158V5.59979C12.8002 5.15979 12.4402 4.7998 12.0002 4.7998C11.5602 4.7998 11.2002 5.15979 11.2002 5.59979V11.9998C11.2002 12.2438 11.3122 12.4718 11.5002 12.6238L15.5002 15.8238Z" fill="#51AB86"/>
</svg>
