<svg width="72" height="52" viewBox="0 0 72 52" fill="none" xmlns="http://www.w3.org/2000/svg">
<path d="M64.0738 33.7839L17.5494 48.9384C13.3305 50.3127 8.79495 48.0005 7.41729 43.7711L2.49283 28.653C1.11598 24.426 3.41957 19.8861 7.63852 18.5119L54.1629 3.35736C58.3819 1.98311 62.9174 4.29529 64.2942 8.52223L69.2187 23.6403C70.5988 27.8689 68.2928 32.4096 64.0738 33.7839Z" fill="#3674EE"/>
<path d="M22.2609 34.676C24.3048 34.0102 25.421 31.8105 24.754 29.7627C24.0869 27.7149 21.8893 26.5946 19.8454 27.2603C17.8014 27.9261 16.6853 30.1259 17.3523 32.1737C18.0193 34.2214 20.217 35.3418 22.2609 34.676Z" fill="white"/>
<path d="M37.0636 29.8538C39.1075 29.188 40.2237 26.9882 39.5567 24.9404C38.8897 22.8926 36.692 21.7723 34.6481 22.4381C32.6042 23.1038 31.488 25.3036 32.155 27.3514C32.8221 29.3992 35.0197 30.5195 37.0636 29.8538Z" fill="white"/>
<path d="M51.8683 25.0325C53.9122 24.3667 55.0284 22.1669 54.3614 20.1191C53.6944 18.0714 51.4967 16.951 49.4528 17.6168C47.4089 18.2826 46.2927 20.4823 46.9597 22.5301C47.6267 24.5779 49.8244 25.6982 51.8683 25.0325Z" fill="white"/>
</svg>
