<svg width="24" height="24" viewBox="0 0 24 24" fill="none" xmlns="http://www.w3.org/2000/svg">
<path d="M21.2004 2.40039H2.80035C2.57934 2.40039 2.40039 2.57934 2.40039 2.80035V21.2003C2.40039 21.4213 2.57934 21.6003 2.80035 21.6003H21.2003C21.4213 21.6003 21.6003 21.4213 21.6003 21.2003V2.80035C21.6004 2.57945 21.4214 2.40039 21.2004 2.40039ZM20.8005 20.8004H20.8004H3.20043V3.20043H20.8005V20.8004Z" fill="#191C21"/>
<path d="M2.80035 0C2.57934 0 2.40039 0.178945 2.40039 0.399961V1.59996C2.40039 1.82098 2.57934 1.99992 2.80035 1.99992C3.02137 1.99992 3.20031 1.82098 3.20031 1.59996V0.400078C3.20043 0.178945 3.02137 0 2.80035 0Z" fill="#191C21"/>
<path d="M1.59996 2.40039H0.399961C0.178945 2.40039 0 2.57945 0 2.80035C0 3.02125 0.178945 3.20031 0.399961 3.20031H1.59996C1.82098 3.20031 1.99992 3.02137 1.99992 2.80035C1.99992 2.57934 1.82098 2.40039 1.59996 2.40039Z" fill="#191C21"/>
<path d="M1.59996 20.7998H0.399961C0.178945 20.7998 0 20.9788 0 21.1998C0 21.4208 0.178945 21.5997 0.399961 21.5997H1.59996C1.82098 21.5997 1.99992 21.4208 1.99992 21.1998C1.99992 20.9788 1.82098 20.7998 1.59996 20.7998Z" fill="#191C21"/>
<path d="M2.80035 22C2.57934 22 2.40039 22.1791 2.40039 22.4V23.6C2.40039 23.821 2.57934 23.9999 2.80035 23.9999C3.02137 23.9999 3.20031 23.821 3.20031 23.6V22.4C3.20043 22.1791 3.02137 22 2.80035 22Z" fill="#191C21"/>
<path d="M21.1998 22C20.9787 22 20.7998 22.1791 20.7998 22.4V23.6C20.7998 23.821 20.9787 23.9999 21.1998 23.9999C21.4208 23.9999 21.5997 23.821 21.5997 23.6V22.4C21.5997 22.1791 21.4208 22 21.1998 22Z" fill="#191C21"/>
<path d="M23.6 20.7998H22.4C22.1789 20.7998 22 20.9788 22 21.1998C22 21.4208 22.1791 21.5997 22.4 21.5997H23.6C23.821 21.5997 23.9999 21.4208 23.9999 21.1998C23.9999 20.9788 23.821 20.7998 23.6 20.7998Z" fill="#191C21"/>
<path d="M23.6 2.40039H22.4C22.1789 2.40039 22 2.57934 22 2.80035C22 3.02137 22.1791 3.20031 22.4 3.20031H23.6C23.821 3.20031 23.9999 3.02137 23.9999 2.80035C23.9999 2.57934 23.821 2.40039 23.6 2.40039Z" fill="#191C21"/>
<path d="M21.1998 0C20.9787 0 20.7998 0.178945 20.7998 0.399961V1.59996C20.7998 1.82098 20.9787 1.99992 21.1998 1.99992C21.4208 1.99992 21.5997 1.82098 21.5997 1.59996V0.400078C21.5997 0.178945 21.4208 0 21.1998 0Z" fill="#191C21"/>
</svg>
