<svg width="53" height="53" viewBox="0 0 53 53" fill="none" xmlns="http://www.w3.org/2000/svg">
<path d="M26.5 53C41.1355 53 53 41.1355 53 26.5C53 11.8645 41.1355 0 26.5 0C11.8645 0 0 11.8645 0 26.5C0 41.1355 11.8645 53 26.5 53Z" fill="#51AB86"/>
<path d="M26.4993 48.277C14.4914 48.277 4.72266 38.5082 4.72266 26.5003C4.72266 14.4924 14.4914 4.72363 26.4993 4.72363C38.5073 4.72363 48.276 14.4924 48.276 26.5003C48.276 38.5082 38.5073 48.277 26.4993 48.277ZM26.4993 5.35263C14.8386 5.35263 5.35165 14.8396 5.35165 26.5003C5.35165 38.161 14.8386 47.648 26.4993 47.648C38.1601 47.648 47.647 38.161 47.647 26.5003C47.647 14.8396 38.1601 5.35263 26.4993 5.35263Z" fill="#013D55"/>
<path d="M26.5037 26.9076L13.2227 16.2046L13.6168 15.7148L26.497 26.0924L34.0449 19.7706L34.4475 20.2537L26.5037 26.9076Z" fill="#013D55"/>
</svg>
