<svg width="24" height="24" viewBox="0 0 24 24" fill="none" xmlns="http://www.w3.org/2000/svg">
<path d="M19.3664 1.84877H18.4712V0.942942C18.4712 0.425391 18.0516 0.00585938 17.5341 0.00585938C17.0165 0.00585938 16.597 0.425391 16.597 0.942942V1.84877H7.40295V0.942942C7.40295 0.425391 6.98342 0.00585938 6.46587 0.00585938C5.94832 0.00585938 5.52879 0.425391 5.52879 0.942942V1.84877H4.63364C2.07864 1.84877 0 3.92741 0 6.48237V19.3615C0 21.9165 2.07864 23.9952 4.63364 23.9952H19.3664C21.9214 23.9952 24 21.9165 24 19.3615V6.48237C24 3.92741 21.9214 1.84877 19.3664 1.84877ZM4.63364 3.72294H5.52879V5.55025C5.52879 6.0678 5.94832 6.48733 6.46587 6.48733C6.98342 6.48733 7.40295 6.0678 7.40295 5.55025V3.72294H16.597V5.55025C16.597 6.0678 17.0166 6.48733 17.5341 6.48733C18.0517 6.48733 18.4712 6.0678 18.4712 5.55025V3.72294H19.3664C20.8879 3.72294 22.1258 4.96082 22.1258 6.48237V7.37756H1.87417V6.48237C1.87417 4.96082 3.11205 3.72294 4.63364 3.72294ZM19.3664 22.121H4.63364C3.11205 22.121 1.87417 20.8831 1.87417 19.3615V9.25173H22.1258V19.3615C22.1258 20.8831 20.8879 22.121 19.3664 22.121ZM8.32443 12.9376C8.32443 13.4552 7.9049 13.8747 7.38735 13.8747H5.54444C5.02689 13.8747 4.60735 13.4552 4.60735 12.9376C4.60735 12.42 5.02689 12.0005 5.54444 12.0005H7.38735C7.90485 12.0005 8.32443 12.42 8.32443 12.9376ZM19.3927 12.9376C19.3927 13.4552 18.9732 13.8747 18.4556 13.8747H16.6127C16.0951 13.8747 15.6756 13.4552 15.6756 12.9376C15.6756 12.42 16.0951 12.0005 16.6127 12.0005H18.4556C18.9731 12.0005 19.3927 12.42 19.3927 12.9376ZM13.8532 12.9376C13.8532 13.4552 13.4337 13.8747 12.9161 13.8747H11.0732C10.5557 13.8747 10.1361 13.4552 10.1361 12.9376C10.1361 12.42 10.5557 12.0005 11.0732 12.0005H12.9161C13.4336 12.0005 13.8532 12.42 13.8532 12.9376ZM8.32443 18.4664C8.32443 18.9839 7.9049 19.4035 7.38735 19.4035H5.54444C5.02689 19.4035 4.60735 18.9839 4.60735 18.4664C4.60735 17.9488 5.02689 17.5293 5.54444 17.5293H7.38735C7.90485 17.5293 8.32443 17.9488 8.32443 18.4664ZM19.3927 18.4664C19.3927 18.9839 18.9732 19.4035 18.4556 19.4035H16.6127C16.0951 19.4035 15.6756 18.9839 15.6756 18.4664C15.6756 17.9488 16.0951 17.5293 16.6127 17.5293H18.4556C18.9731 17.5293 19.3927 17.9488 19.3927 18.4664ZM13.8532 18.4664C13.8532 18.9839 13.4337 19.4035 12.9161 19.4035H11.0732C10.5557 19.4035 10.1361 18.9839 10.1361 18.4664C10.1361 17.9488 10.5557 17.5293 11.0732 17.5293H12.9161C13.4336 17.5293 13.8532 17.9488 13.8532 18.4664Z" fill="#51AB86"/>
</svg>
