<svg width="19" height="16" viewBox="0 0 19 16" fill="none" xmlns="http://www.w3.org/2000/svg">
<path d="M9.46405 3.68C9.87258 3.68 10.2035 3.3508 10.2035 2.94437V0.735632C10.2035 0.329195 9.87258 0 9.46405 0C9.05551 0 8.72461 0.329195 8.72461 0.735632V2.94437C8.72461 3.3508 9.05551 3.68 9.46405 3.68Z" fill="#191C21"/>
<path d="M0.287094 5.13443L1.93382 6.61232C2.23884 6.88597 2.70616 6.85875 2.97827 6.55898C3.25186 6.25738 3.22783 5.79209 2.92466 5.5199L1.27757 4.04202C0.9744 3.76984 0.506707 3.79374 0.233115 4.09535C-0.0401068 4.39733 -0.0160751 4.86262 0.287094 5.13443Z" fill="#191C21"/>
<path d="M16.9947 6.61329L18.6414 5.13541C18.9446 4.86323 18.9686 4.39831 18.695 4.09633C18.4214 3.79472 17.9541 3.77081 17.6506 4.043L16.0038 5.52088C15.7007 5.79306 15.6766 6.25835 15.9502 6.55996C16.2227 6.85973 16.69 6.88658 16.9947 6.61329Z" fill="#191C21"/>
<path d="M18.8482 12.046C17.6019 9.62467 14.2061 5.89648 9.46478 5.89648C5.3073 5.89648 1.71512 8.87212 0.0813326 12.0456C-0.104636 12.4068 0.0391847 12.8493 0.401878 13.0347C0.764942 13.2201 1.21008 13.0777 1.39716 12.7169C2.8191 9.96085 5.94617 7.36775 9.46478 7.36775C13.3882 7.36775 16.3985 10.5192 17.5324 12.7173C17.7191 13.0792 18.165 13.2204 18.5269 13.0358C18.8904 12.8508 19.0342 12.4076 18.8482 12.046Z" fill="#191C21"/>
<path d="M9.46451 8.76172C7.46175 8.76172 5.83203 10.3853 5.83203 12.381C5.83203 14.3768 7.46175 16.0003 9.46451 16.0003C11.4673 16.0003 13.097 14.3768 13.097 12.381C13.097 10.3853 11.4673 8.76172 9.46451 8.76172ZM9.46451 14.5291C8.27698 14.5291 7.3109 13.5654 7.3109 12.381C7.3109 11.1967 8.27698 10.233 9.46451 10.233C10.652 10.233 11.6181 11.1967 11.6181 12.381C11.6181 13.5654 10.652 14.5291 9.46451 14.5291Z" fill="#191C21"/>
</svg>
