<svg width="24" height="24" viewBox="0 0 24 24" fill="none" xmlns="http://www.w3.org/2000/svg">
<path d="M22.4689 11.789V4.24558C22.4689 2.4107 20.9761 0.917969 19.1413 0.917969H4.76306C2.92819 0.917969 1.43545 2.41075 1.43545 4.24558V11.8863C0.546703 12.8155 0 14.0744 0 15.4586V21.1784C0 22.2284 0.854203 23.0826 1.9042 23.0826C2.95416 23.0826 3.80836 22.2284 3.80836 21.1784V20.5877H20.1917V21.1784C20.1917 22.2284 21.0459 23.0826 22.0958 23.0826C23.1458 23.0826 24 22.2284 24 21.1784V15.4586C24 14.0254 23.4139 12.7266 22.4689 11.789ZM4.76306 1.85547H19.1413C20.4592 1.85547 21.5314 2.92769 21.5314 4.24558V11.0512C21.2443 10.8745 20.9387 10.7249 20.6183 10.6063V9.04755C20.6183 7.66567 19.494 6.54142 18.1122 6.54142H14.0374C13.1985 6.54142 12.4552 6.95613 12 7.59086C11.5449 6.95613 10.8015 6.54142 9.96267 6.54142H5.88792C4.50605 6.54142 3.3818 7.66563 3.3818 9.04755V10.6063C3.0255 10.7382 2.68758 10.9083 2.373 11.1115V4.24558C2.37295 2.92769 3.44513 1.85547 4.76306 1.85547ZM5.17186 10.2867C4.88147 10.2867 4.59666 10.3112 4.3192 10.3574V9.04755C4.3192 8.18261 5.02289 7.47892 5.88783 7.47892H9.96258C10.8275 7.47892 11.5312 8.18261 11.5312 9.04755V10.2868H5.17186V10.2867ZM12.4688 9.0475C12.4688 8.18256 13.1724 7.47888 14.0374 7.47888H18.1121C18.9771 7.47888 19.6807 8.18256 19.6807 9.0475V10.3574C19.4032 10.3112 19.1185 10.2867 18.8281 10.2867H12.4688V9.0475ZM5.17186 11.2242H18.8281C21.1629 11.2242 23.0625 13.1238 23.0625 15.4586V16.8492H18.3611C18.1022 16.8492 17.8923 17.0591 17.8923 17.318C17.8923 17.5768 18.1022 17.7867 18.3611 17.7867H23.0625V19.6503H0.9375V17.7867H13.6736C13.9325 17.7867 14.1423 17.5768 14.1423 17.318C14.1423 17.0591 13.9325 16.8492 13.6736 16.8492H0.9375V15.4586C0.9375 13.1238 2.83702 11.2242 5.17186 11.2242ZM2.87086 21.1784C2.87086 21.7114 2.43722 22.1451 1.9042 22.1451C1.37119 22.1451 0.9375 21.7114 0.9375 21.1784V20.5877H2.87086V21.1784ZM22.0958 22.1451C21.5628 22.1451 21.1291 21.7114 21.1291 21.1784V20.5877H23.0625V21.1784C23.0625 21.7114 22.6289 22.1451 22.0958 22.1451Z" fill="#191C21"/>
<path d="M16.0168 17.7866C16.2758 17.7866 16.4858 17.5766 16.4858 17.3176C16.4858 17.0586 16.2758 16.8486 16.0168 16.8486C15.7578 16.8486 15.5479 17.0586 15.5479 17.3176C15.5479 17.5766 15.7578 17.7866 16.0168 17.7866Z" fill="#191C21"/>
</svg>
