<svg width="15" height="10" viewBox="0 0 15 10" fill="none" xmlns="http://www.w3.org/2000/svg">
<path d="M0.250242 1.56602C0.245672 1.35822 0.305911 1.15415 0.422678 0.982199C0.539446 0.810244 0.706969 0.678942 0.901809 0.606549C1.09665 0.534157 1.30917 0.52427 1.50989 0.578263C1.71061 0.632256 1.88944 0.747446 2.02166 0.907819L7.26384 7.02696L12.5042 0.907819C12.5857 0.796881 12.6892 0.703973 12.8083 0.634914C12.9274 0.565854 13.0596 0.522131 13.1963 0.506482C13.3331 0.490832 13.4716 0.503594 13.6033 0.543969C13.7349 0.584343 13.8568 0.651459 13.9613 0.741115C14.0658 0.830771 14.1505 0.941034 14.2104 1.065C14.2703 1.18897 14.304 1.32397 14.3093 1.46154C14.3146 1.59912 14.2915 1.73631 14.2413 1.86452C14.1912 1.99273 14.1151 2.10921 14.0178 2.20665L8.0236 9.21251C7.92971 9.32253 7.81318 9.41087 7.68184 9.47145C7.55051 9.53203 7.40756 9.5634 7.26292 9.5634C7.11829 9.5634 6.97534 9.53203 6.844 9.47145C6.71266 9.41087 6.59601 9.32253 6.50213 9.21251L0.502149 2.20665C0.344951 2.02967 0.255581 1.80267 0.250011 1.56602H0.250242Z" fill="#B2B3B5"/>
</svg>
