<svg width="32" height="16" viewBox="0 0 32 16" fill="none" xmlns="http://www.w3.org/2000/svg">
<path d="M16.6881 16C17.1694 16 17.56 15.5988 17.56 15.1046V12.4164C17.56 11.9222 17.17 11.521 16.6881 11.521C16.2069 11.521 15.8163 11.9222 15.8163 12.4164V15.1046C15.8163 15.5988 16.2069 16 16.6881 16Z" fill="black"/>
<path d="M7.56062 9.96639L5.58 11.72C5.21312 12.0448 5.17625 12.6103 5.48875 12.9826C5.80312 13.3568 6.35375 13.3991 6.71812 13.0763L8.69875 11.3227C9.06312 10.9998 9.10437 10.4343 8.79 10.0601C8.47562 9.68525 7.925 9.64353 7.56062 9.96639Z" fill="black"/>
<path d="M27.7794 11.0679L25.9194 9.18078C25.5769 8.83352 25.025 8.83673 24.6863 9.18848C24.3481 9.54022 24.3513 10.107 24.6938 10.4549L26.5538 12.342C26.8963 12.6893 27.4481 12.6861 27.7869 12.3343C28.1238 11.9838 28.1238 11.4171 27.7794 11.0679Z" fill="black"/>
<path d="M0.137611 1.8693C2.24511 6.09476 7.98511 12.6002 16.0001 12.6002C23.0282 12.6002 29.1007 7.40739 31.8626 1.8693C32.177 1.23898 31.9339 0.466807 31.3207 0.143302C30.707 -0.180202 29.9545 0.0682029 29.6382 0.697882C27.2345 5.50809 21.9482 10.0327 16.0001 10.0327C9.36761 10.0327 4.27886 4.53308 2.36199 0.69724C2.04636 0.0656354 1.29324 -0.180202 0.680736 0.141377C0.0663608 0.464239 -0.176764 1.2377 0.137611 1.8693Z" fill="black"/>
</svg>
