<svg width="11" height="19" viewBox="0 0 11 19" fill="none" xmlns="http://www.w3.org/2000/svg">
<path d="M3.34634 10.4985C3.27804 10.4985 1.84537 10.499 1.1846 10.4983C0.844433 10.4981 0.723068 10.3759 0.723068 10.0335C0.722633 9.15418 0.722416 8.27482 0.723068 7.39547C0.723286 7.05748 0.851611 6.9285 1.18743 6.92828C1.8482 6.92785 3.27304 6.92806 3.34634 6.92806C3.34634 6.86782 3.34612 5.59827 3.34634 5.01363C3.34677 4.14928 3.50098 3.32191 3.94011 2.56436C4.38968 1.78897 5.04392 1.25784 5.88238 0.950729C6.41939 0.753891 6.97684 0.675374 7.54669 0.674939C8.25966 0.674504 8.97262 0.675156 9.68581 0.676461C9.99226 0.676896 10.1282 0.812399 10.1289 1.12103C10.1302 1.94818 10.1302 2.77534 10.1289 3.60227C10.1284 3.91417 9.99814 4.03945 9.68472 4.04293C9.1003 4.04923 8.51544 4.04532 7.93167 4.06881C7.34203 4.06881 7.03187 4.35678 7.03187 4.96708C7.01773 5.61262 7.026 6.25882 7.026 6.92785C7.08124 6.92785 8.75926 6.92763 9.54356 6.92785C9.89983 6.92785 10.0216 7.0503 10.0216 7.40852C10.0216 8.28309 10.0214 9.15787 10.0208 10.0324C10.0205 10.3854 9.90613 10.4981 9.54769 10.4983C8.76339 10.4988 7.0919 10.4985 7.01882 10.4985V17.5771C7.01882 17.9544 6.90007 18.0747 6.52771 18.0747C5.61986 18.0747 4.7118 18.0749 3.80396 18.0747C3.47488 18.0747 3.34655 17.9468 3.34655 17.6178C3.34633 15.3125 3.34634 10.5795 3.34634 10.4985Z" fill="#191C21"/>
</svg>
