<svg width="10" height="16" viewBox="0 0 10 16" fill="none" xmlns="http://www.w3.org/2000/svg">
<path d="M1.53477 0.969969C1.32697 0.965398 1.1229 1.02564 0.950949 1.1424C0.778994 1.25917 0.647692 1.4267 0.575299 1.62154C0.502907 1.81638 0.49302 2.0289 0.547013 2.22962C0.601006 2.43034 0.716196 2.60917 0.876569 2.74139L6.99571 7.98357L0.876569 13.2239C0.765631 13.3054 0.672723 13.409 0.603664 13.5281C0.534604 13.6472 0.490881 13.7793 0.475232 13.9161C0.459582 14.0529 0.472344 14.1914 0.512719 14.323C0.553093 14.4546 0.620209 14.5765 0.709865 14.681C0.799521 14.7855 0.909784 14.8703 1.03375 14.9302C1.15772 14.9901 1.29272 15.0237 1.43029 15.029C1.56787 15.0343 1.70506 15.0112 1.83327 14.9611C1.96148 14.9109 2.07796 14.8348 2.1754 14.7375L9.18126 8.74333C9.29128 8.64944 9.37962 8.53291 9.4402 8.40157C9.50078 8.27023 9.53215 8.12728 9.53215 7.98265C9.53215 7.83801 9.50078 7.69506 9.4402 7.56373C9.37962 7.43239 9.29128 7.31574 9.18126 7.22185L2.1754 1.22188C1.99842 1.06468 1.77142 0.975307 1.53477 0.969738V0.969969Z" fill="#8C8D90"/>
</svg>
