<svg width="24" height="24" viewBox="0 0 24 24" fill="none" xmlns="http://www.w3.org/2000/svg">
<path fill-rule="evenodd" clip-rule="evenodd" d="M9.42857 4.28571V3.42857C9.42857 1.536 7.89257 0 6 0C4.10743 0 2.57143 1.536 2.57143 3.42857V11.1429C1.152 11.1429 0 12.2949 0 13.7143C0 14.8329 0.715714 15.786 1.71429 16.1391V17.1429C1.71429 19.6894 3.56914 21.8057 6 22.2146V23.1429C6 23.616 6.384 24 6.85714 24C7.33029 24 7.71429 23.616 7.71429 23.1429V22.2857H16.2857V23.1429C16.2857 23.616 16.6697 24 17.1429 24C17.616 24 18 23.616 18 23.1429V22.2146C20.4309 21.8057 22.2857 19.6894 22.2857 17.1429V16.1391C23.2843 15.786 24 14.8329 24 13.7143C24 12.2949 22.848 11.1429 21.4286 11.1429H4.28571V3.42857C4.28571 2.48229 5.05371 1.71429 6 1.71429C6.94629 1.71429 7.71429 2.48229 7.71429 3.42857V4.28571H6.85714C6.384 4.28571 6 4.66971 6 5.14286C6 5.616 6.384 6 6.85714 6H10.2857C10.7589 6 11.1429 5.616 11.1429 5.14286C11.1429 4.66971 10.7589 4.28571 10.2857 4.28571H9.42857ZM20.5714 16.2857H3.42857V17.1429C3.42857 19.0354 4.96457 20.5714 6.85714 20.5714H17.1429C19.0354 20.5714 20.5714 19.0354 20.5714 17.1429V16.2857ZM22.2857 13.7143C22.2857 14.1874 21.9017 14.5714 21.4286 14.5714H2.57143C2.09829 14.5714 1.71429 14.1874 1.71429 13.7143C1.71429 13.2411 2.09829 12.8571 2.57143 12.8571H21.4286C21.9017 12.8571 22.2857 13.2411 22.2857 13.7143Z" fill="#191C21"/>
</svg>
