<svg width="18" height="21" viewBox="0 0 18 21" fill="none" xmlns="http://www.w3.org/2000/svg">
<g clip-path="url(#clip0_1112_6243)">
<path d="M16.7969 7.15322C16.6799 7.24435 14.6144 8.41278 14.6144 11.0108C14.6144 14.0159 17.2427 15.0791 17.3213 15.1054C17.3092 15.1702 16.9038 16.5614 15.9356 17.9789C15.0723 19.2263 14.1707 20.4716 12.7991 20.4716C11.4275 20.4716 11.0745 19.6718 9.49107 19.6718C7.94802 19.6718 7.39938 20.498 6.14476 20.498C4.89015 20.498 4.01474 19.3437 3.00822 17.9262C1.84236 16.2617 0.900391 13.6757 0.900391 11.2214C0.900391 7.28485 3.44996 5.19707 5.95919 5.19707C7.29247 5.19707 8.40388 6.07592 9.24096 6.07592C10.0377 6.07592 11.2802 5.14442 12.797 5.14442C13.3719 5.14442 15.4374 5.19707 16.7969 7.15322ZM12.077 3.47785C12.7043 2.73062 13.148 1.69382 13.148 0.657025C13.148 0.51325 13.1359 0.36745 13.1097 0.25C12.0891 0.288475 10.8748 0.932425 10.1426 1.78495C9.56772 2.44105 9.03118 3.47785 9.03118 4.52882C9.03118 4.68677 9.05741 4.84472 9.06951 4.89535C9.13405 4.9075 9.23894 4.92167 9.34383 4.92167C10.2596 4.92167 11.4113 4.30607 12.077 3.47785Z" fill="#191C21"/>
</g>
<defs>
<clipPath id="clip0_1112_6243">
<rect width="16.4189" height="20.25" fill="white" transform="translate(0.900391 0.25)"/>
</clipPath>
</defs>
</svg>
