<svg width="21" height="21" viewBox="0 0 21 21" fill="none" xmlns="http://www.w3.org/2000/svg">
<path d="M20.929 6.20355C20.8816 5.12759 20.7076 4.38788 20.4583 3.74691C20.2012 3.06653 19.8056 2.4574 19.2873 1.95102C18.7809 1.43676 18.1678 1.03715 17.4953 0.78404C16.8506 0.53479 16.1148 0.360795 15.0388 0.313355C13.9548 0.261898 13.6107 0.25 10.8614 0.25C8.11204 0.25 7.76791 0.261898 6.68793 0.309338C5.61197 0.356777 4.87226 0.530927 4.23144 0.780022C3.55091 1.03715 2.94177 1.43274 2.43539 1.95102C1.92113 2.4574 1.52168 3.07055 1.26841 3.74305C1.01917 4.38788 0.84517 5.12358 0.79773 6.19954C0.746273 7.28353 0.734375 7.62766 0.734375 10.377C0.734375 13.1263 0.746273 13.4704 0.793713 14.5504C0.841152 15.6264 1.0153 16.3661 1.26455 17.007C1.52168 17.6874 1.92113 18.2966 2.43539 18.8029C2.94177 19.3172 3.55493 19.7168 4.22742 19.9699C4.87226 20.2192 5.60795 20.3932 6.68407 20.4406C7.76389 20.4882 8.10817 20.4999 10.8575 20.4999C13.6068 20.4999 13.9509 20.4882 15.0309 20.4406C16.1069 20.3932 16.8466 20.2192 17.4874 19.9699C18.8483 19.4438 19.9243 18.3678 20.4504 17.007C20.6995 16.3622 20.8737 15.6264 20.9211 14.5504C20.9685 13.4704 20.9804 13.1263 20.9804 10.377C20.9804 7.62766 20.9764 7.28353 20.929 6.20355ZM19.1054 14.4713C19.0619 15.4602 18.8957 15.9943 18.7573 16.3503C18.417 17.2325 17.7169 17.9327 16.8347 18.2729C16.4787 18.4114 15.9408 18.5775 14.9557 18.6209C13.8876 18.6685 13.5672 18.6802 10.8654 18.6802C8.16349 18.6802 7.83914 18.6685 6.77493 18.6209C5.78596 18.5775 5.25192 18.4114 4.8959 18.2729C4.45689 18.1107 4.05729 17.8535 3.73294 17.5173C3.39669 17.1889 3.13956 16.7933 2.97731 16.3543C2.83886 15.9983 2.67274 15.4602 2.62932 14.4753C2.58173 13.4072 2.56998 13.0867 2.56998 10.3849C2.56998 7.68298 2.58173 7.35863 2.62932 6.29457C2.67274 5.30561 2.83886 4.77157 2.97731 4.41554C3.13956 3.97638 3.39669 3.57693 3.73696 3.25243C4.06517 2.91618 4.46076 2.65905 4.89992 2.49695C5.25594 2.3585 5.794 2.19238 6.77895 2.14881C7.84702 2.10137 8.16751 2.08947 10.8692 2.08947C13.5751 2.08947 13.8955 2.10137 14.9597 2.14881C15.9486 2.19238 16.4827 2.3585 16.8387 2.49695C17.2777 2.65905 17.6773 2.91618 18.0017 3.25243C18.3379 3.5808 18.595 3.97638 18.7573 4.41554C18.8957 4.77157 19.0619 5.30947 19.1054 6.29457C19.1529 7.36265 19.1648 7.68298 19.1648 10.3849C19.1648 13.0867 19.1529 13.4032 19.1054 14.4713Z" fill="#191C21"/>
<path d="M10.8621 5.1748C7.99025 5.1748 5.66016 7.50474 5.66016 10.3767C5.66016 13.2488 7.99025 15.5787 10.8621 15.5787C13.7341 15.5787 16.064 13.2488 16.064 10.3767C16.064 7.50474 13.7341 5.1748 10.8621 5.1748ZM10.8621 13.7511C8.99899 13.7511 7.48773 12.24 7.48773 10.3767C7.48773 8.51348 8.99899 7.00238 10.8621 7.00238C12.7254 7.00238 14.2365 8.51348 14.2365 10.3767C14.2365 12.24 12.7254 13.7511 10.8621 13.7511Z" fill="#191C21"/>
<path d="M17.4837 4.9693C17.4837 5.63994 16.9399 6.18371 16.2691 6.18371C15.5985 6.18371 15.0547 5.63994 15.0547 4.9693C15.0547 4.2985 15.5985 3.75488 16.2691 3.75488C16.9399 3.75488 17.4837 4.2985 17.4837 4.9693Z" fill="#191C21"/>
</svg>
